<svg viewBox="0 0 13.3333 16.6667" fill="none" xmlns="http://www.w3.org/2000/svg" xmlns:xlink="http://www.w3.org/1999/xlink" x="0" y="0"><path id="Vector" d="M5.8333,3.333c0,-0.458 0.375,-0.833 0.8333,-0.833c0.4584,0 0.8334,0.375 0.8334,0.833c0,0.459 -0.375,0.834 -0.8334,0.834c-0.4583,0 -0.8333,-0.375 -0.8333,-0.834zM3.3333,5.833c0.4583,0 0.8333,-0.375 0.8333,-0.833c0,-0.458 -0.375,-0.833 -0.8333,-0.833c-0.4583,0 -0.8333,0.375 -0.8333,0.833c0,0.458 0.375,0.833 0.8333,0.833zM1.6666,2.5c0,-0.458 -0.375,-0.833 -0.8333,-0.833c-0.4583,0 -0.8333,0.375 -0.8333,0.833c0,0.458 0.375,0.833 0.8333,0.833c0.4583,0 0.8333,-0.375 0.8333,-0.833zM4.1666,1.667c0.4584,0 0.8334,-0.375 0.8334,-0.834c0,-0.458 -0.375,-0.833 -0.8334,-0.833c-0.4583,0 -0.8333,0.375 -0.8333,0.833c0,0.459 0.375,0.834 0.8333,0.834zM9.1666,1.667c0.4584,0 0.8334,-0.375 0.8334,-0.834c0,-0.458 -0.375,-0.833 -0.8334,-0.833c-0.4583,0 -0.8333,0.375 -0.8333,0.833c0,0.459 0.375,0.834 0.8333,0.834zM12.5,1.667c-0.4584,0 -0.8334,0.375 -0.8334,0.833c0,0.458 0.375,0.833 0.8334,0.833c0.4583,0 0.8333,-0.375 0.8333,-0.833c0,-0.458 -0.375,-0.833 -0.8333,-0.833zM9.1666,5c0,0.458 0.375,0.833 0.8334,0.833c0.4583,0 0.8333,-0.375 0.8333,-0.833c0,-0.458 -0.375,-0.833 -0.8333,-0.833c-0.4584,0 -0.8334,0.375 -0.8334,0.833zM12.0833,9.225c0,0.592 -0.2167,1.158 -0.575,1.608c0.35,0.45 0.575,1.017 0.575,1.609c0,1.441 -1.1917,2.616 -2.6333,2.616l-0.3584,-0.025c-0.3916,0.959 -1.3333,1.634 -2.425,1.634c-1.0916,0 -2.0333,-0.675 -2.425,-1.634l-0.3583,0.025c-1.45,0 -2.6333,-1.175 -2.6333,-2.616c0,-0.592 0.2166,-1.159 0.575,-1.609c-0.35,-0.45 -0.575,-1.016 -0.575,-1.608c0,-1.442 1.1916,-2.617 2.6333,-2.617l0.3583,0.025c0.3917,-0.958 1.3334,-1.633 2.425,-1.633c1.0917,0 2.0334,0.675 2.425,1.633l0.3584,-0.025c1.4416,0 2.6333,1.175 2.6333,2.617zM2.9166,9.225c0,0.358 0.225,0.692 0.5584,0.858l0.7333,0.334c0.1,-0.6 0.425,-1.134 0.8833,-1.509l-0.675,-0.466c-0.15,-0.109 -0.3333,-0.167 -0.5333,-0.167c-0.525,0 -0.9667,0.425 -0.9667,0.95zM5.1,12.758c-0.4667,-0.375 -0.7917,-0.908 -0.8917,-1.508l-0.7333,0.333c-0.3334,0.167 -0.5584,0.5 -0.5584,0.85c0,0.525 0.4417,0.95 0.9667,0.95c0.1917,0 0.375,-0.05 0.5417,-0.166zM7.6166,14.083l-0.0916,-0.908c-0.2667,0.1 -0.5584,0.158 -0.8584,0.158c-0.3,0 -0.5833,-0.058 -0.8333,-0.158l-0.1167,0.908c0.0167,0.5 0.4334,0.917 0.95,0.917c0.5167,0 0.9334,-0.417 0.95,-0.917zM7.6166,7.583c-0.0166,-0.5 -0.4333,-0.916 -0.95,-0.916c-0.5166,0 -0.9333,0.416 -0.95,0.916l0.1167,0.909c0.25,-0.1 0.5333,-0.159 0.8333,-0.159c0.3,0 0.5917,0.059 0.8584,0.159zM10.4166,12.433c0,-0.35 -0.225,-0.7 -0.5583,-0.858l-0.7333,-0.35c-0.1,0.617 -0.425,1.15 -0.8834,1.525l0.675,0.475c0.15,0.108 0.3334,0.167 0.5334,0.167c0.525,0 0.9666,-0.425 0.9666,-0.959zM10.4166,9.225c0,-0.525 -0.4416,-0.95 -0.9666,-0.95c-0.1917,0 -0.375,0.058 -0.5417,0.167l-0.6833,0.466c0.4666,0.375 0.7916,0.909 0.8916,1.509l0.7334,-0.334c0.3416,-0.166 0.5666,-0.5 0.5666,-0.858z" fill="currentColor"/></svg>