<svg viewBox="0 0 177 177" fill="none" xmlns="http://www.w3.org/2000/svg" x="0" y="0"><g id="Select Role">
<rect x="0" y="0" width="177" height="177" rx="8" fill="#229A94"/>
<g id="Group 2916">
<path id="Vector_317" d="M88.5,164.34c42.25,0 76.5,-34.25 76.5,-76.5c0,-42.25 -34.25,-76.5 -76.5,-76.5c-42.25,0 -76.5,34.25 -76.5,76.5c0,42.25 34.25,76.5 76.5,76.5z" fill="#1F8B85"/>
<g id="Group 2915">
<g id="Group_351">
<g id="Group_352">
<path id="Vector_318" d="M114.8,47.856c5.75,0 10.42,-4.665 10.42,-10.42c0,-5.754 -4.67,-10.419 -10.42,-10.419c-5.76,0 -10.42,4.665 -10.42,10.419c0,5.755 4.66,10.42 10.42,10.42z" fill="#BAE0DE"/>
<g id="Group_353">
<path id="Vector_319" d="M117.98,43.81l-2.61,1.196c-0.36,0.167 -0.78,0.167 -1.15,0l-2.61,-1.196c-2,-0.917 -3.28,-2.915 -3.28,-5.116v-4.709c0,-0.493 0.26,-0.949 0.69,-1.191l5.11,-2.877c0.41,-0.235 0.92,-0.235 1.34,0l5.1,2.877c0.43,0.242 0.7,0.698 0.7,1.191v4.709c0,2.201 -1.29,4.199 -3.29,5.116z" fill="white"/>
<path id="Vector_320" d="M118.9,36.111h-2.78v-2.778h-2.65v2.778h-2.78v2.651h2.78v2.778h2.65v-2.778h2.78z" fill="#229A94"/>
</g>
</g>
<g id="Group_354">
<path id="Vector_321" d="M123.96,73.181c5.59,0 10.12,-4.533 10.12,-10.125c0,-5.592 -4.53,-10.125 -10.12,-10.125c-5.59,0 -10.13,4.533 -10.13,10.125c0,5.592 4.54,10.125 10.13,10.125z" fill="#BAE0DE"/>
<g id="Group_355">
<path id="Vector_322" d="M130.64,58.7c-1.6,-1.595 -4.18,-1.595 -5.78,0l-0.9,0.905l-0.91,-0.905c-1.59,-1.595 -4.18,-1.595 -5.77,0c-1.6,1.595 -1.6,4.182 0,5.776l0.9,0.905l5.78,5.777l5.77,-5.777l0.91,-0.905c1.59,-1.594 1.59,-4.181 0,-5.776z" fill="#229A94"/>
<g id="Group_356">
<path id="Vector_323" d="M123.08,69.705l-1.96,-6.606l-0.8,2.235h-5.52v-0.804h4.95l1.44,-4.018l1.6,5.404l1.06,-7.585l1.55,6.26l1.11,-4.167l1.4,4.106h5.21v0.804h-5.78l-0.73,-2.147l-1.24,4.627l-1.3,-5.24z" fill="white"/>
</g>
</g>
</g>
<g id="Group_357">
<path id="Vector_324" d="M64,64.431c3.87,-3.875 3.87,-10.157 0,-14.032c-3.88,-3.875 -10.16,-3.875 -14.03,0c-3.88,3.875 -3.88,10.157 0,14.032c3.87,3.875 10.15,3.875 14.03,0z" fill="#BAE0DE"/>
<g id="Group_358">
<g id="Group_359">
<path id="Vector_325" d="M51.21,57.024v3.049c0,1.474 1.2,2.668 2.67,2.668c1.48,0 2.67,-1.194 2.67,-2.668v-3.049z" fill="white"/>
<path id="Vector_326" d="M56.55,53.975c0,-1.474 -1.19,-2.669 -2.67,-2.669c-1.47,0 -2.67,1.195 -2.67,2.669v3.049h5.34v-3.049z" fill="#229A94"/>
</g>
<g id="Group_360">
<path id="Vector_327" d="M56.55,60.074v-3.05h-2.45l-1.08,1.082c-1.06,1.058 -1.38,2.579 -0.96,3.917c0.48,0.445 1.12,0.719 1.82,0.719c1.48,0 2.67,-1.195 2.67,-2.668z" fill="#E4E4E0"/>
<path id="Vector_328" d="M56.55,57.024v-2.449l-2.45,2.449z" fill="#A34262"/>
</g>
<g id="Group_361">
<path id="Vector_329" d="M56.04,56.812l-2.16,2.156c-1.04,1.042 -1.04,2.732 0,3.774c1.04,1.042 2.73,1.042 3.78,0l2.15,-2.157z" fill="white"/>
<path id="Vector_330" d="M61.97,58.429c1.04,-1.042 1.04,-2.731 0,-3.773c-1.04,-1.042 -2.73,-1.042 -3.78,0l-2.15,2.156l3.77,3.773z" fill="#229A94"/>
</g>
</g>
</g>
<g id="Group_362">
<path id="Vector_331" d="M84.6,40.099c3.74,-3.737 3.74,-9.796 0,-13.533c-3.74,-3.737 -9.8,-3.737 -13.53,0c-3.74,3.737 -3.74,9.796 0,13.533c3.73,3.737 9.79,3.737 13.53,0z" fill="#BAE0DE"/>
<g id="Group_363">
<path id="Vector_332" d="M81.94,31.255l-2.17,-2.173l-5.71,5.714l2.17,2.172z" fill="white"/>
<path id="Vector_333" d="M76.23,36.325l5.07,-5.07l-1.53,-1.529l-5.07,5.07z" fill="#C7D2D7"/>
<path id="Vector_334" d="M76.99,37.733l-3.7,-3.701l-0.41,0.415l3.7,3.702z" fill="white"/>
<path id="Vector_335" d="M81.99,30.048l-1.01,-1.019l-0.64,0.63l1.02,1.02z" fill="#C7D2D7"/>
<path id="Vector_336" d="M81.63,29.68l-0.29,-0.282l2.4,-2.394h0.56z" fill="#99A3B0"/>
<path id="Vector_337" d="M75.14,36.713l-0.83,-0.831l-1.85,1.85l0.83,0.832z" fill="#C7D2D7"/>
<path id="Vector_338" d="M74.08,39.358l-2.41,-2.419l-0.31,0.302l2.42,2.419z" fill="white"/>
<path id="Vector_339" d="M75.14,36.715l-0.83,-0.832l-0.62,0.619l0.83,0.831z" fill="#99A3B0"/>
<path id="Vector_340" d="M80.2,31.256l-2.81,2.803c-0.3,0.303 -0.79,0.303 -1.1,0l-0.42,-0.429l-1.17,1.166l0.98,0.98l0.55,0.549l1.16,-1.166l3.91,-3.903c-0.31,-0.304 -0.8,-0.304 -1.1,0z" fill="#229A94"/>
</g>
</g>
</g>
<g id="Group_364">
<g id="Group_365">
<g id="Group_366">
<path id="Vector_341" d="M68.45,108.689l-11.67,-2.428l-2.23,20.631c-0.11,1.05 -0.15,2.107 -0.11,3.162l0.76,22.812h11.14v-24.295z" fill="#BD6C67"/>
<path id="Vector_342" d="M56.78,106.261l11.67,2.428l-0.47,4.383l-11.4,-5.035z" fill="#A64F5A"/>
</g>
<g id="Group_367">
<path id="Vector_343" d="M108.84,108.689l11.67,-2.428l2.22,20.631c0.11,1.05 0.15,2.107 0.12,3.162l-0.77,22.812h-11.14v-24.295z" fill="#BD6C67"/>
<path id="Vector_344" d="M120.51,106.261l-11.67,2.428l0.46,4.383l11.4,-5.035z" fill="#A64F5A"/>
</g>
<g id="Group_368">
<path id="Vector_345" d="M108.84,120.248c2.69,-5.17 1.6,-10.275 1.22,-11.8l13.27,-2.774l-4.17,-10.636c-1.65,-4.218 -5.13,-7.459 -9.45,-8.816l-11.47,-3.598c-1.34,2.795 -3.96,6.353 -9.6,6.353c-5.64,0 -8.26,-3.558 -9.6,-6.353l-11.47,3.598c-4.32,1.357 -7.79,4.598 -9.45,8.816l-4.17,10.636l13.27,2.774c-0.38,1.525 -1.47,6.63 1.23,11.8c0,0 1.3,9.746 1.3,14.778c0,5.031 -4.23,10.216 -4.23,17.839h23.12h23.12c0,-7.623 -4.22,-12.808 -4.22,-17.839c0,-5.032 1.3,-14.778 1.3,-14.778z" fill="#B5BEC6"/>
<path id="Vector_346" d="M67.22,108.448l1.03,-3.812l-12.87,-2.608l-1.43,3.645z" fill="white"/>
<path id="Vector_347" d="M98.98,82.855l-0.74,-0.231c-1.34,2.795 -3.96,6.353 -9.6,6.353c-5.64,0 -8.26,-3.558 -9.6,-6.353l-0.74,0.231c-1.19,3.539 -0.44,7.625 1.22,10.968c1.29,2.594 3.21,4.827 5.42,6.709c0.84,0.715 2.13,0.227 2.31,-0.862c0.33,-2.013 0.81,-3.996 1.39,-5.959c0.58,1.963 1.06,3.946 1.39,5.959c0.18,1.089 1.47,1.577 2.31,0.862c2.22,-1.882 4.13,-4.115 5.42,-6.709c1.66,-3.343 2.41,-7.429 1.22,-10.968z" fill="#0F2C46"/>
<path id="Vector_348" d="M98.98,82.855l-0.74,-0.232c-1.34,2.795 -3.96,6.354 -9.6,6.354c-5.64,0 -8.26,-3.559 -9.6,-6.354l-0.74,0.232c-0.56,2.566 -0.39,5.287 0.49,7.761c0.73,2.027 2.86,4.716 4.9,6.656c0.94,0.903 2.5,0.562 2.97,-0.658l1.98,-5.105l1.98,5.105c0.47,1.22 2.03,1.561 2.98,0.658c2.03,-1.94 4.17,-4.629 4.89,-6.656c0.88,-2.474 1.05,-5.195 0.49,-7.761z" fill="white"/>
<g id="Group_369">
<g id="Group_370">
<path id="Vector_349" d="M88.64,152.951h-23.2v-0.085c0,-4.209 1.33,-7.809 2.3,-10.437l0.16,0.059c-1.24,3.367 -2.28,6.468 -2.29,10.293h23.03z" fill="#422C4F"/>
</g>
<g id="Group_371">
<path id="Vector_350" d="M80.26,123.898c-0.04,0 -0.08,-0.032 -0.08,-0.076c-0.01,-0.046 0.03,-0.088 0.07,-0.093c0.36,-0.041 0.71,-0.093 1.06,-0.154c3.07,-0.538 5.28,-1.735 6.24,-3.37c0.02,-0.041 0.07,-0.055 0.11,-0.031c0.04,0.024 0.06,0.076 0.03,0.116c-0.98,1.68 -3.23,2.906 -6.35,3.453c-0.35,0.061 -0.71,0.113 -1.07,0.154c0,0.001 -0.01,0.001 -0.01,0.001z" fill="#422C4F"/>
</g>
<g id="Group_372">
<path id="Vector_351" d="M68.97,102.113c-0.02,0 -0.05,-0.01 -0.07,-0.031c-0.01,-0.021 -1.68,-2.041 -3.86,-2.754c-0.05,-0.015 -0.07,-0.063 -0.06,-0.108c0.02,-0.044 0.07,-0.069 0.11,-0.054c2.23,0.729 3.93,2.788 3.95,2.808c0.03,0.037 0.02,0.09 -0.02,0.12c-0.01,0.013 -0.03,0.019 -0.05,0.019z" fill="#422C4F"/>
</g>
<g id="Group_373">
<path id="Vector_352" d="M68.69,103.135c-0.04,0 -0.07,-0.028 -0.08,-0.068c-0.09,-0.408 -1.42,-1.575 -3.51,-1.575c-0.01,0 -0.03,0.002 -0.04,0c-0.04,0 -0.08,-0.038 -0.08,-0.084c0,-0.047 0.04,-0.085 0.08,-0.086c0.02,0 0.03,0 0.04,0c2.16,0 3.57,1.21 3.68,1.71c0,0.046 -0.02,0.091 -0.07,0.101c-0.01,0.001 -0.01,0.002 -0.02,0.002z" fill="#422C4F"/>
</g>
<g id="Group_374">
<path id="Vector_353" d="M70.86,122.539c-0.01,0 -0.03,-0.003 -0.04,-0.01c-1.16,-0.609 -1.98,-1.364 -2.45,-2.241c-2.47,-4.732 -1.83,-9.462 -1.23,-11.861l2.38,-8.736c0.01,-0.045 0.06,-0.072 0.1,-0.06c0.05,0.012 0.08,0.059 0.06,0.104l-2.38,8.735c-0.59,2.374 -1.22,7.057 1.22,11.738c0.45,0.846 1.25,1.577 2.38,2.171c0.04,0.021 0.06,0.073 0.04,0.114c-0.02,0.03 -0.05,0.046 -0.08,0.046z" fill="#422C4F"/>
</g>
</g>
<path id="Vector_354" d="M110.06,108.448l-1.03,-3.812l12.87,-2.608l1.43,3.645z" fill="white"/>
<g id="Group_375">
<g id="Group_376">
<path id="Vector_355" d="M88.64,152.951h23.21v-0.085c0,-4.209 -1.34,-7.809 -2.31,-10.437l-0.16,0.059c1.25,3.367 2.28,6.468 2.3,10.293h-23.04z" fill="#422C4F"/>
</g>
<g id="Group_377">
<path id="Vector_356" d="M97.02,123.898c0.04,0 0.08,-0.032 0.08,-0.076c0.01,-0.046 -0.02,-0.088 -0.07,-0.093c-0.35,-0.041 -0.71,-0.093 -1.06,-0.154c-3.06,-0.538 -5.28,-1.735 -6.24,-3.37c-0.02,-0.041 -0.07,-0.055 -0.11,-0.031c-0.04,0.024 -0.06,0.076 -0.03,0.116c0.98,1.68 3.24,2.906 6.35,3.453c0.35,0.061 0.71,0.113 1.07,0.154c0,0.001 0.01,0.001 0.01,0.001z" fill="#422C4F"/>
</g>
<g id="Group_378">
<path id="Vector_357" d="M108.31,102.113c0.03,0 0.05,-0.01 0.07,-0.031c0.01,-0.02 1.69,-2.041 3.86,-2.754c0.05,-0.015 0.07,-0.063 0.06,-0.107c-0.02,-0.045 -0.06,-0.069 -0.11,-0.055c-2.22,0.729 -3.93,2.788 -3.94,2.809c-0.03,0.036 -0.03,0.089 0.01,0.119c0.01,0.013 0.03,0.019 0.05,0.019z" fill="#422C4F"/>
</g>
<g id="Group_379">
<path id="Vector_358" d="M108.59,103.135c0.04,0 0.07,-0.028 0.08,-0.067c0.09,-0.409 1.43,-1.576 3.51,-1.576c0.01,0 0.03,0.002 0.04,0c0.04,0 0.08,-0.037 0.08,-0.084c0,-0.047 -0.03,-0.085 -0.08,-0.086c-0.02,0 -0.03,0 -0.04,0c-2.15,0 -3.57,1.21 -3.67,1.71c-0.01,0.046 0.02,0.091 0.06,0.101c0.01,0.001 0.01,0.002 0.02,0.002z" fill="#422C4F"/>
</g>
<g id="Group_380">
<path id="Vector_359" d="M106.42,122.539c0.01,0 0.03,-0.003 0.04,-0.01c1.16,-0.609 1.98,-1.364 2.45,-2.241c2.47,-4.732 1.83,-9.462 1.23,-11.861l-2.38,-8.736c-0.01,-0.045 -0.06,-0.072 -0.1,-0.06c-0.05,0.012 -0.07,0.059 -0.06,0.104l2.38,8.735c0.59,2.374 1.22,7.057 -1.22,11.738c-0.45,0.846 -1.25,1.577 -2.38,2.171c-0.04,0.021 -0.06,0.073 -0.03,0.114c0.01,0.03 0.04,0.046 0.07,0.046z" fill="#422C4F"/>
</g>
</g>
</g>
<g id="Group_381">
<path id="Vector_360" d="M98.24,82.624l-3.8,-1.194v-5.489h-5.8h-5.79v5.489l-3.81,1.194c1.34,2.795 3.96,6.353 9.6,6.353c5.64,0 8.26,-3.558 9.6,-6.353z" fill="#BD6C67"/>
<path id="Vector_361" d="M88.64,75.941h-5.79v1.183c1.33,2.667 4.4,3.582 5.79,3.582c1.39,0 4.46,-0.915 5.8,-3.582v-1.183z" fill="#422C4F"/>
</g>
<g id="Group_382">
<path id="Vector_362" d="M82.42,76.79c3.34,-3.335 3.34,-8.741 0,-12.076c-3.33,-3.335 -8.74,-3.335 -12.07,0c-3.34,3.335 -3.34,8.741 0,12.076c3.33,3.335 8.74,3.335 12.07,0z" fill="#0F2C46"/>
<path id="Vector_363" d="M108.76,74.07c1.84,-4.346 -0.2,-9.354 -4.55,-11.187c-4.34,-1.833 -9.35,0.204 -11.18,4.55c-1.84,4.346 0.2,9.354 4.55,11.187c4.34,1.832 9.35,-0.205 11.18,-4.55z" fill="#0F2C46"/>
<g id="Group_383">
<path id="Vector_364" d="M79.83,69.094c0.27,-2.137 -1.25,-4.082 -3.39,-4.345c-2.14,-0.262 -4.08,1.258 -4.35,3.395c-0.26,2.137 1.26,4.083 3.4,4.345c2.14,0.262 4.08,-1.258 4.34,-3.395z" fill="#A64F5A"/>
<path id="Vector_365" d="M78.02,68.618c0,1.134 -0.92,2.053 -2.05,2.053c-1.13,0 -2.05,-0.919 -2.05,-2.053c0,-1.134 0.92,-2.053 2.05,-2.053c1.13,0.001 2.05,0.92 2.05,2.053z" fill="#8C404C"/>
</g>
<g id="Group_384">
<path id="Vector_366" d="M102.2,72.416c2.1,-0.492 3.4,-2.591 2.91,-4.687c-0.5,-2.096 -2.59,-3.397 -4.69,-2.904c-2.1,0.492 -3.4,2.59 -2.91,4.686c0.5,2.097 2.6,3.397 4.69,2.905z" fill="#A64F5A"/>
<path id="Vector_367" d="M99.26,68.618c0,1.134 0.92,2.053 2.05,2.053c1.14,0 2.06,-0.919 2.06,-2.053c0,-1.134 -0.92,-2.053 -2.06,-2.053c-1.13,0.001 -2.05,0.92 -2.05,2.053z" fill="#8C404C"/>
</g>
<path id="Vector_368" d="M88.64,46.321c-7.13,0 -12.92,5.785 -12.92,12.921v0.649c0,0.99 0.11,1.977 0.34,2.942l1.88,8.027c0.55,2.371 2.01,4.429 4.07,5.733l1.42,0.903c1.56,0.988 3.37,1.513 5.21,1.513c1.85,0 3.65,-0.525 5.21,-1.513l1.42,-0.903c2.06,-1.304 3.52,-3.362 4.08,-5.733l1.87,-8.027c0.23,-0.965 0.34,-1.952 0.34,-2.942v-0.649c0,-7.136 -5.78,-12.921 -12.92,-12.921z" fill="#BD6C67"/>
<g id="Group_385">
<path id="Vector_369" d="M82.5,58.024c-1.47,0.066 -2.75,0.83 -3.53,1.955l7.22,-0.321c-0.88,-1.052 -2.21,-1.7 -3.69,-1.634z" fill="#0F2C46"/>
</g>
<g id="Group_386">
<path id="Vector_370" d="M94.78,58.024c1.47,0.066 2.75,0.83 3.53,1.955l-7.22,-0.321c0.88,-1.052 2.22,-1.7 3.69,-1.634z" fill="#0F2C46"/>
</g>
<path id="Vector_371" d="M90.82,69.084h-4.32c-0.01,0 -0.03,0 -0.04,0c0.35,0.306 0.7,0.571 1.1,0.8c0.4,0.228 0.86,0.374 1.32,0.327c0.71,-0.072 1.42,-0.647 1.94,-1.127z" fill="#A64F5A"/>
<path id="Vector_372" d="M90.83,74.563h-3.7c0.52,0.425 1.15,0.695 1.82,0.712c0.68,0.017 1.34,-0.313 1.88,-0.712z" fill="#A64F5A"/>
<path id="Vector_373" d="M83.08,62.07c-0.33,0 -0.63,0.138 -0.85,0.358c-0.45,-0.184 -0.9,-0.391 -1.34,-0.624c0.21,0.484 0.58,0.91 1.03,1.192c-0.02,0.085 -0.03,0.172 -0.03,0.263c0,0.656 0.53,1.188 1.19,1.188c0.66,0 1.19,-0.532 1.19,-1.188c0,-0.657 -0.53,-1.189 -1.19,-1.189z" fill="#0F2C46"/>
<path id="Vector_374" d="M94.2,62.07c0.33,0 0.63,0.138 0.85,0.358c0.46,-0.184 0.9,-0.391 1.34,-0.624c-0.21,0.484 -0.58,0.91 -1.03,1.192c0.02,0.085 0.03,0.172 0.03,0.263c0,0.656 -0.53,1.188 -1.19,1.188c-0.65,0 -1.19,-0.532 -1.19,-1.188c0,-0.657 0.54,-1.189 1.19,-1.189z" fill="#0F2C46"/>
<path id="Vector_375" d="M93.01,70.671c-2.78,1.274 -5.93,1.342 -8.76,0.188c1.04,1.54 2.66,2.675 4.3,2.668c1.65,-0.007 3.44,-1.308 4.46,-2.856z" fill="white"/>
<path id="Vector_376" d="M101.02,48.148c-2.74,-3.754 -7.74,-5.482 -12.39,-5.322c-4.65,-0.16 -9.64,1.568 -12.39,5.322c-2.29,3.136 -2.81,7.295 -2.24,11.139c0.57,3.844 2.33,7.728 3.87,11.297l-1.68,-9.552c1.63,-1.836 1.2,-4.76 2.46,-6.873c0.92,-1.552 2.67,-2.472 4.44,-2.813c1.78,-0.341 3.75,-0.253 5.54,-0.088c1.8,-0.165 3.77,-0.253 5.55,0.088c1.77,0.341 3.52,1.261 4.44,2.813c1.25,2.113 0.83,5.037 2.46,6.873l-1.68,9.552c1.53,-3.569 3.3,-7.453 3.87,-11.297c0.57,-3.844 0.05,-8.004 -2.25,-11.139z" fill="#0F2C46"/>
</g>
<g id="Group_387">
<g id="Group_388">
<path id="Vector_377" d="M95.93,87.676c-0.03,0 -0.05,-0.009 -0.06,-0.026c-0.03,-0.031 -0.03,-0.079 0,-0.107c0.58,-0.521 1.1,-1.099 1.54,-1.719c0.02,-0.035 0.07,-0.043 0.1,-0.018c0.04,0.024 0.04,0.071 0.02,0.106c-0.44,0.629 -0.97,1.216 -1.55,1.744c-0.02,0.013 -0.04,0.02 -0.05,0.02z" fill="#422C4F"/>
</g>
<g id="Group_389">
<path id="Vector_378" d="M94.01,89.054c-0.02,0 -0.05,-0.014 -0.06,-0.038c-0.02,-0.037 -0.01,-0.084 0.03,-0.105c0.33,-0.189 0.65,-0.397 0.96,-0.618c0.03,-0.025 0.08,-0.017 0.11,0.017c0.02,0.034 0.01,0.082 -0.02,0.107c-0.31,0.224 -0.64,0.435 -0.98,0.627c-0.01,0.007 -0.02,0.01 -0.04,0.01z" fill="#422C4F"/>
</g>
<g id="Group_390">
<path id="Vector_379" d="M88.65,90.5c-0.11,0 -0.21,-0.001 -0.31,-0.004c-1.8,-0.057 -3.6,-0.593 -5.21,-1.553c-0.04,-0.022 -0.05,-0.069 -0.03,-0.105c0.02,-0.036 0.07,-0.048 0.11,-0.026c1.58,0.947 3.36,1.476 5.13,1.531c1.41,0.046 2.87,-0.217 4.22,-0.753c0.04,-0.015 0.08,0.004 0.1,0.043c0.02,0.039 0,0.084 -0.04,0.099c-1.28,0.504 -2.64,0.768 -3.97,0.768z" fill="#422C4F"/>
</g>
<g id="Group_391">
<path id="Vector_380" d="M81.5,87.736c-0.02,0 -0.04,-0.006 -0.05,-0.02c-0.79,-0.698 -1.46,-1.495 -2,-2.366c-0.02,-0.036 -0.01,-0.083 0.02,-0.105c0.04,-0.022 0.09,-0.011 0.11,0.025c0.53,0.859 1.19,1.643 1.97,2.332c0.03,0.028 0.04,0.076 0.01,0.108c-0.02,0.017 -0.04,0.026 -0.06,0.026z" fill="#422C4F"/>
</g>
<g id="Group_392">
<path id="Vector_381" d="M94.66,94.745c-0.02,0 -0.04,-0.007 -0.05,-0.021c-0.03,-0.029 -0.03,-0.078 0,-0.108c1.65,-1.723 2.86,-3.851 3.48,-6.154c0.01,-0.041 0.06,-0.064 0.1,-0.053c0.04,0.01 0.06,0.053 0.05,0.093c-0.63,2.328 -1.85,4.478 -3.52,6.219c-0.02,0.016 -0.04,0.024 -0.06,0.024z" fill="#422C4F"/>
</g>
<g id="Group_393">
<path id="Vector_382" d="M80.4,91.928c-0.03,0 -0.06,-0.015 -0.07,-0.041c-0.35,-0.667 -0.64,-1.37 -0.85,-2.088c-0.01,-0.041 0.01,-0.083 0.05,-0.095c0.04,-0.012 0.09,0.011 0.1,0.052c0.2,0.709 0.49,1.402 0.83,2.06c0.02,0.037 0.01,0.083 -0.03,0.103c-0.01,0.006 -0.02,0.009 -0.03,0.009z" fill="#422C4F"/>
</g>
<g id="Group_394">
<path id="Vector_383" d="M82.39,128.428c-0.04,0 -0.07,-0.031 -0.07,-0.071c-0.01,-0.042 0.03,-0.079 0.07,-0.081c5.26,-0.304 10.75,-1.693 15.94,-3.207c-7.26,0.925 -14.62,1.065 -21.91,0.415c-0.04,-0.004 -0.07,-0.041 -0.07,-0.083c0.01,-0.042 0.04,-0.075 0.09,-0.069c7.6,0.679 15.29,0.496 22.85,-0.544c0.04,-0.003 0.08,0.021 0.09,0.06c0,0.039 -0.02,0.078 -0.06,0.089c-5.48,1.622 -11.33,3.168 -16.92,3.492c-0.01,-0.001 -0.01,-0.001 -0.01,-0.001z" fill="#422C4F"/>
</g>
<g id="Group_395">
<path id="Vector_384" d="M93.77,133.69c-5.69,0 -11.36,-0.686 -16.92,-2.051c-0.04,-0.011 -0.06,-0.052 -0.05,-0.093c0.01,-0.041 0.05,-0.066 0.09,-0.056c7.8,1.915 15.8,2.49 23.79,1.709c0.05,-0.005 0.08,0.027 0.08,0.069c0.01,0.042 -0.02,0.079 -0.07,0.083c-2.3,0.226 -4.62,0.339 -6.92,0.339z" fill="#422C4F"/>
</g>
<g id="Group_396">
<path id="Vector_385" d="M93.76,136.368c-4.74,0 -9.49,-0.83 -13.95,-2.461c-0.04,-0.014 -0.06,-0.058 -0.05,-0.098c0.02,-0.039 0.06,-0.06 0.1,-0.045c6.11,2.233 12.76,2.96 19.21,2.102c0.04,-0.004 0.08,0.024 0.08,0.066c0.01,0.041 -0.02,0.08 -0.06,0.085c-1.77,0.235 -3.55,0.351 -5.33,0.351z" fill="#422C4F"/>
</g>
<g id="Group_397">
<path id="Vector_386" d="M98.09,142.458c-6.78,0 -13.6,-2.225 -19.03,-6.27c-0.03,-0.025 -0.04,-0.073 -0.02,-0.107c0.03,-0.033 0.08,-0.041 0.11,-0.016c6.08,4.526 13.89,6.762 21.45,6.137c0.04,-0.006 0.08,0.028 0.08,0.07c0.01,0.042 -0.03,0.079 -0.07,0.082c-0.84,0.07 -1.68,0.104 -2.52,0.104z" fill="#422C4F"/>
</g>
</g>
</g>
</g>
</g>
</g>
<g id="Button / primary_3">
<rect width="177" height="44" transform="translate(0, 133)" fill="#229A94"/>
<g id="Container_4">
<path id="Label_3" d="M65.49,160v-10.182h3.82c0.78,0 1.44,0.146 1.97,0.438c0.53,0.291 0.93,0.692 1.2,1.203c0.28,0.507 0.42,1.084 0.42,1.73c0,0.653 -0.14,1.233 -0.42,1.74c-0.27,0.507 -0.68,0.906 -1.21,1.198c-0.54,0.288 -1.2,0.433 -1.99,0.433h-2.53v-1.517h2.28c0.46,0 0.84,-0.079 1.13,-0.238c0.29,-0.159 0.51,-0.378 0.64,-0.657c0.15,-0.278 0.22,-0.598 0.22,-0.959c0,-0.361 -0.07,-0.68 -0.22,-0.955c-0.13,-0.275 -0.35,-0.488 -0.65,-0.641c-0.29,-0.156 -0.66,-0.234 -1.13,-0.234h-1.69v8.641zM76.48,160.154c-0.48,0 -0.92,-0.086 -1.31,-0.258c-0.38,-0.176 -0.69,-0.435 -0.91,-0.776c-0.22,-0.341 -0.33,-0.762 -0.33,-1.263c0,-0.431 0.07,-0.787 0.23,-1.069c0.16,-0.281 0.38,-0.507 0.66,-0.676c0.27,-0.169 0.58,-0.296 0.92,-0.383c0.35,-0.089 0.71,-0.154 1.08,-0.193c0.45,-0.047 0.81,-0.088 1.09,-0.125c0.28,-0.04 0.48,-0.099 0.61,-0.179c0.13,-0.083 0.19,-0.21 0.19,-0.383v-0.029c0,-0.375 -0.11,-0.665 -0.33,-0.87c-0.22,-0.206 -0.54,-0.309 -0.96,-0.309c-0.44,0 -0.79,0.096 -1.05,0.289c-0.25,0.192 -0.43,0.419 -0.52,0.681l-1.68,-0.239c0.14,-0.464 0.36,-0.852 0.66,-1.163c0.3,-0.315 0.68,-0.55 1.12,-0.706c0.44,-0.159 0.93,-0.239 1.46,-0.239c0.37,0 0.73,0.043 1.1,0.129c0.36,0.087 0.7,0.229 1,0.428c0.3,0.196 0.54,0.462 0.72,0.8c0.19,0.339 0.28,0.761 0.28,1.268v5.111h-1.73v-1.049h-0.06c-0.11,0.212 -0.26,0.411 -0.46,0.597c-0.2,0.182 -0.44,0.329 -0.74,0.442c-0.3,0.109 -0.64,0.164 -1.04,0.164zM76.95,158.832c0.36,0 0.67,-0.072 0.94,-0.214c0.26,-0.146 0.47,-0.338 0.61,-0.577c0.14,-0.238 0.22,-0.499 0.22,-0.78v-0.9c-0.06,0.046 -0.15,0.089 -0.29,0.129c-0.13,0.04 -0.28,0.075 -0.45,0.104c-0.16,0.03 -0.33,0.057 -0.49,0.08c-0.16,0.023 -0.3,0.043 -0.42,0.06c-0.27,0.036 -0.51,0.096 -0.72,0.179c-0.22,0.083 -0.38,0.199 -0.51,0.348c-0.12,0.145 -0.18,0.334 -0.18,0.566c0,0.332 0.12,0.582 0.36,0.751c0.25,0.169 0.55,0.254 0.93,0.254zM86.14,152.364v1.392h-4.39v-1.392zM82.83,150.534h1.8v7.169c0,0.242 0.04,0.428 0.11,0.557c0.07,0.126 0.17,0.212 0.3,0.258c0.12,0.047 0.26,0.07 0.4,0.07c0.12,0 0.22,-0.008 0.31,-0.025c0.1,-0.016 0.17,-0.031 0.22,-0.045l0.3,1.407c-0.09,0.034 -0.23,0.07 -0.41,0.11c-0.17,0.04 -0.39,0.063 -0.64,0.069c-0.46,0.014 -0.86,-0.054 -1.22,-0.203c-0.36,-0.153 -0.65,-0.388 -0.86,-0.706c-0.21,-0.319 -0.31,-0.716 -0.31,-1.194zM87.64,160v-7.636h1.8v7.636zM88.55,151.28c-0.29,0 -0.53,-0.095 -0.74,-0.284c-0.21,-0.192 -0.31,-0.422 -0.31,-0.691c0,-0.271 0.1,-0.502 0.31,-0.691c0.21,-0.192 0.45,-0.288 0.74,-0.288c0.28,0 0.53,0.096 0.73,0.288c0.21,0.189 0.31,0.42 0.31,0.691c0,0.269 -0.1,0.499 -0.31,0.691c-0.2,0.189 -0.45,0.284 -0.73,0.284zM94.67,160.149c-0.76,0 -1.43,-0.159 -1.98,-0.477c-0.56,-0.322 -0.98,-0.776 -1.28,-1.362c-0.3,-0.59 -0.45,-1.285 -0.45,-2.083c0,-0.786 0.15,-1.475 0.45,-2.069c0.3,-0.596 0.72,-1.06 1.26,-1.392c0.54,-0.334 1.18,-0.502 1.91,-0.502c0.47,0 0.91,0.076 1.33,0.229c0.42,0.149 0.79,0.381 1.11,0.696c0.33,0.315 0.58,0.716 0.77,1.203c0.18,0.484 0.28,1.061 0.28,1.73v0.552h-6.26v-1.213h4.53c0,-0.345 -0.08,-0.651 -0.22,-0.92c-0.15,-0.272 -0.35,-0.485 -0.61,-0.641c-0.26,-0.156 -0.56,-0.234 -0.91,-0.234c-0.37,0 -0.69,0.09 -0.97,0.269c-0.28,0.175 -0.49,0.407 -0.65,0.696c-0.15,0.285 -0.23,0.598 -0.23,0.939v1.059c0,0.444 0.08,0.826 0.24,1.144c0.16,0.315 0.39,0.557 0.68,0.726c0.29,0.165 0.64,0.248 1.03,0.248c0.26,0 0.5,-0.036 0.71,-0.109c0.21,-0.076 0.39,-0.187 0.55,-0.333c0.16,-0.146 0.27,-0.327 0.35,-0.542l1.68,0.189c-0.1,0.444 -0.31,0.832 -0.6,1.163c-0.3,0.328 -0.68,0.583 -1.14,0.766c-0.46,0.179 -0.99,0.268 -1.58,0.268zM101.39,155.526v4.474h-1.8v-7.636h1.72v1.297h0.09c0.18,-0.427 0.46,-0.767 0.84,-1.019c0.39,-0.252 0.87,-0.378 1.44,-0.378c0.52,0 0.98,0.113 1.37,0.338c0.4,0.226 0.7,0.552 0.92,0.98c0.22,0.427 0.32,0.946 0.32,1.556v4.862h-1.8v-4.584c0,-0.51 -0.13,-0.91 -0.4,-1.198c-0.26,-0.288 -0.62,-0.432 -1.08,-0.432c-0.32,0 -0.6,0.069 -0.84,0.208c-0.25,0.136 -0.44,0.333 -0.58,0.592c-0.13,0.258 -0.2,0.572 -0.2,0.94zM111.93,152.364v1.392h-4.39v-1.392zM108.63,150.534h1.8v7.169c0,0.242 0.03,0.428 0.11,0.557c0.07,0.126 0.17,0.212 0.3,0.258c0.12,0.047 0.25,0.07 0.4,0.07c0.12,0 0.22,-0.008 0.31,-0.025c0.1,-0.016 0.17,-0.031 0.22,-0.045l0.3,1.407c-0.09,0.034 -0.23,0.07 -0.41,0.11c-0.17,0.04 -0.39,0.063 -0.65,0.069c-0.45,0.014 -0.85,-0.054 -1.21,-0.203c-0.36,-0.153 -0.65,-0.388 -0.86,-0.706c-0.21,-0.319 -0.32,-0.716 -0.31,-1.194z" fill="white"/>
</g>
</g>
</g></svg>