<svg viewBox="0 0 151.2728 165.66" fill="none" xmlns="http://www.w3.org/2000/svg" x="0" y="0"><defs><mask id="mask0_2001_10335" style="mask-type:luminance" maskUnits="userSpaceOnUse" x="82.13650000000007" y="26.659999999999997" width="6" height="4">
<g id="SVGID_00000072961707252733436200000011517579763201034666_">
<path id="Vector_523" d="M82.3865,29.722c0,0 0.35,-1.622 2.31,-2.155c1.95,-0.533 3.4,0.804 3.4,0.804c-0.67,0.127 -0.95,1.012 -2.86,1.675c-1.9,0.664 -2.85,-0.324 -2.85,-0.324z" fill="white"/>
</g>
</mask><mask id="mask1_2001_10335" style="mask-type:luminance" maskUnits="userSpaceOnUse" x="69.13650000000007" y="26.659999999999997" width="7" height="4">
<g id="SVGID_00000065070289935065143150000005708389903309552798_">
<path id="Vector_530" d="M75.8265,29.661c0,0 -0.36,-1.622 -2.31,-2.155c-1.96,-0.532 -3.41,0.804 -3.41,0.804c0.68,0.127 0.96,1.012 2.86,1.676c1.91,0.664 2.86,-0.325 2.86,-0.325z" fill="white"/>
</g>
</mask></defs><g id="Group 2917">
<path id="Vector_387" d="M75.6365,151.273c41.77,0 75.64,-33.864 75.64,-75.637c0,-41.772 -33.87,-75.636 -75.64,-75.636c-41.77,0 -75.64,33.864 -75.64,75.636c0,41.773 33.87,75.637 75.64,75.637z" fill="#BAE0DE"/>
<g id="Group_398">
<path id="Vector_388" d="M95.5165,80.379c0,0 0.19,-5.479 -1.45,-8.471c-1.64,-2.991 -4.05,-10.368 -4.1,-14.126c-0.76,5.682 -0.73,9.22 0.71,12.555c1.45,3.335 4.62,7.823 4.84,10.042z" fill="#FEFEFE"/>
<path id="Vector_389" d="M95.5265,80.379c0,0 0.18,-5.479 -1.46,-8.471c-1.64,-2.991 -4.05,-10.368 -4.1,-14.126c-0.76,5.682 0.58,8.988 2.02,12.323c1.45,3.335 3.31,8.055 3.54,10.274z" fill="#FEFEFE"/>
<path id="Vector_390" d="M97.0865,87.847c0,0 -0.46,-5.463 -2.44,-8.241c-1.98,-2.777 -5.24,-9.819 -5.73,-13.545c-0.09,5.732 0.36,9.242 2.18,12.384c1.83,3.141 5.51,7.224 5.99,9.402z" fill="#FEFEFE"/>
<path id="Vector_391" d="M97.0865,87.847c0,0 -0.46,-5.463 -2.44,-8.241c-1.98,-2.777 -5.24,-9.819 -5.73,-13.545c-0.09,5.732 1.63,8.857 3.45,11.999c1.83,3.142 4.24,7.609 4.72,9.787z" fill="#FEFEFE"/>
<path id="Vector_392" d="M97.0665,95.07c0,0 -0.46,-5.463 -2.44,-8.241c-1.98,-2.778 -5.24,-9.819 -5.74,-13.545c-0.08,5.732 0.36,9.242 2.19,12.383c1.83,3.142 5.51,7.225 5.99,9.403z" fill="#FEFEFE"/>
<path id="Vector_393" d="M97.0665,95.07c0,0 -0.46,-5.463 -2.44,-8.241c-1.98,-2.778 -5.24,-9.819 -5.74,-13.545c-0.08,5.732 1.63,8.857 3.46,11.999c1.83,3.142 4.24,7.609 4.72,9.787z" fill="#FEFEFE"/>
<path id="Vector_394" d="M95.8065,75.187c0,0 0.55,-3.609 -0.3,-7.668c-0.84,-4.059 -2.69,-6.432 -3.32,-8.766c-0.64,-2.335 -0.62,-5.432 -0.62,-5.432c0,0 -1.15,4.333 0.19,9.577c1.33,5.244 3.88,9.74 4.05,12.289z" fill="#FEFEFE"/>
<path id="Vector_395" d="M95.8065,75.187c0,0 0.55,-3.609 -0.3,-7.668c-0.84,-4.059 -2.69,-6.432 -3.32,-8.766c-0.64,-2.335 -0.62,-5.432 -0.62,-5.432c0,0 -0.95,4.615 1.07,9.635c2.66,6.616 3,9.682 3.17,12.231z" fill="#FEFEFE"/>
<path id="Vector_396" d="M97.2265,70.052c0,0 1.49,-2.872 1.07,-7.541c-0.42,-4.67 -3.59,-12.824 -3.18,-15.138c-1.08,2.857 -1.05,8.446 0.22,13.115c1.26,4.67 1.89,9.564 1.89,9.564z" fill="#FEFEFE"/>
<path id="Vector_397" d="M97.2265,70.052c0,0 1.49,-2.872 1.07,-7.541c-0.42,-4.67 -3.59,-12.824 -3.18,-15.138c-1.08,2.857 0.47,8.216 1.73,12.885c1.27,4.669 0.38,9.794 0.38,9.794z" fill="#FEFEFE"/>
<path id="Vector_398" d="M99.2465,64.907c0,0 1.93,-4.819 1.3,-9.292c-0.62,-4.472 -0.82,-10.166 -0.45,-11.656c-1.45,2.601 -2.94,8.557 -2.09,11.829c0.84,3.273 1.82,6.823 1.24,9.119z" fill="#FEFEFE"/>
<path id="Vector_399" d="M99.2465,64.907c0,0 1.93,-4.819 1.3,-9.292c-0.62,-4.472 -0.82,-10.166 -0.45,-11.656c-1.45,2.601 -1.35,8.384 -0.51,11.656c0.84,3.273 0.24,6.996 -0.34,9.292z" fill="#FEFEFE"/>
<path id="Vector_400" d="M101.1165,60.693c0,0 2.77,-3.911 2.77,-7.792c0.01,-3.88 1.48,-11.801 2.28,-12.767c-2.4,3.768 -4.47,8.617 -4.45,11.368c0.02,2.752 0.63,6.989 -0.6,9.191z" fill="#FEFEFE"/>
<path id="Vector_401" d="M101.1165,60.693c0,0 2.77,-3.911 2.77,-7.792c0.01,-3.88 1.48,-11.801 2.28,-12.767c-2.4,3.768 -3.21,8.575 -3.19,11.327c0.03,2.752 -0.63,7.03 -1.86,9.232z" fill="#FEFEFE"/>
<path id="Vector_402" d="M104.2765,56.072c0,0 4.53,-6.689 4.79,-10.939c0.26,-4.249 0.67,-8.222 1.24,-8.6c-1.65,2.841 -3.22,7.523 -4.03,11.499c-0.8,3.975 -2,8.04 -2,8.04z" fill="#FEFEFE"/>
<path id="Vector_403" d="M104.2765,56.072c0,0 4.53,-6.689 4.79,-10.939c0.26,-4.249 0.67,-8.222 1.24,-8.6c-1.65,2.841 -1.56,6.915 -2.36,10.891c-0.8,3.975 -3.67,8.648 -3.67,8.648z" fill="#FEFEFE"/>
<path id="Vector_404" d="M108.2065,51.024c0,0 2.68,-10.402 9.66,-15.442c-2.98,3.998 -4.27,6.425 -5.04,8.528c-0.77,2.102 -2.9,5.17 -4.62,6.914z" fill="#FEFEFE"/>
<path id="Vector_405" d="M108.2065,51.024c0,0 4.71,-10.206 9.66,-15.442c-2.98,3.998 -4.27,6.425 -5.04,8.528c-0.77,2.102 -2.9,5.17 -4.62,6.914z" fill="#FEFEFE"/>
<path id="Vector_406" d="M110.0765,49.038c0,0 6.51,-10.508 15.92,-11.515c-4.11,2.34 -13.42,8.974 -15.92,11.515z" fill="#FEFEFE"/>
<path id="Vector_407" d="M110.0765,49.038c0,0 7.7,-8.807 15.92,-11.515c-4.11,2.34 -13.42,8.974 -15.92,11.515z" fill="#FEFEFE"/>
<path id="Vector_408" d="M107.3865,52.121c0,0 2.6,-3.805 6.45,-4.135c3.84,-0.33 7.31,0.435 9.57,-1.456c-3.59,3.237 -7.03,3.552 -9.73,3.797c-2.7,0.245 -4.97,1.056 -6.29,1.794z" fill="#FEFEFE"/>
<path id="Vector_409" d="M107.3865,52.121c0,0 2.93,-2.729 6.77,-3.059c3.85,-0.331 6.99,-0.641 9.25,-2.532c-3.59,3.237 -7.03,3.552 -9.73,3.796c-2.7,0.246 -4.97,1.057 -6.29,1.795z" fill="#FEFEFE"/>
<path id="Vector_410" d="M105.0765,54.981c0,0 1.55,-2.892 7.05,-3.459c5.5,-0.567 7.11,-0.452 9.74,-2.38c-2.84,2.889 -5.47,3.81 -8.96,4.119c-3.5,0.309 -5.77,0.773 -7.83,1.72z" fill="#FEFEFE"/>
<path id="Vector_411" d="M105.0765,54.981c0,0 1.9,-2.044 7.4,-2.612c5.5,-0.567 6.76,-1.299 9.39,-3.227c-2.84,2.889 -5.47,3.81 -8.96,4.119c-3.5,0.309 -5.77,0.773 -7.83,1.72z" fill="#FEFEFE"/>
<path id="Vector_412" d="M102.0865,59.586c0,0 1.06,-3.443 5.79,-4.234c4.74,-0.79 8.24,-0.836 9.82,-1.939c-1.93,1.968 -4.78,2.809 -8.54,3.439c-3.76,0.63 -6.19,1.808 -7.07,2.734z" fill="#FEFEFE"/>
<path id="Vector_413" d="M102.0865,59.586c0,0 1.22,-2.827 5.96,-3.617c4.74,-0.79 8.07,-1.453 9.65,-2.555c-1.93,1.968 -4.79,2.808 -8.55,3.438c-3.75,0.631 -6.18,1.808 -7.06,2.734z" fill="#FEFEFE"/>
<path id="Vector_414" d="M99.5765,63.973c0,0 2.01,-2.344 5.98,-2.983c3.96,-0.638 7.27,-1.955 9.59,-4.479c-1.41,0.785 -3.03,1.464 -6.24,1.99c-3.21,0.526 -7.69,1.465 -9.33,5.472z" fill="#FEFEFE"/>
<path id="Vector_415" d="M99.5765,63.973c0,0 2.01,-2.344 5.98,-2.983c3.96,-0.638 7.27,-1.955 9.59,-4.479c-1.41,0.785 -2.97,2.329 -6.18,2.855c-3.21,0.527 -7.75,0.6 -9.39,4.607z" fill="#FEFEFE"/>
<path id="Vector_416" d="M97.1065,70.135c0,0 1.28,-2.973 5.69,-4.104c4.41,-1.13 7.75,-1.368 9.99,-5.355c-2.31,1.827 -5.16,2.348 -7.94,2.817c-2.78,0.469 -7.03,2.517 -7.74,6.642z" fill="#FEFEFE"/>
<path id="Vector_417" d="M97.1065,70.135c0,0 1.28,-2.973 5.69,-4.104c4.41,-1.13 7.75,-1.368 9.99,-5.355c-2.31,1.827 -4.98,3.171 -7.76,3.64c-2.78,0.469 -7.21,1.694 -7.92,5.819z" fill="#FEFEFE"/>
<path id="Vector_418" d="M96.1665,73.536c0,0 0.99,-3.847 5.22,-5.899c4.22,-2.051 8.26,-1.656 10.52,-3.845c-1.63,2.712 -5.31,3.881 -8.07,4.622c-2.76,0.741 -7.11,3.282 -7.67,5.122z" fill="#FEFEFE"/>
<path id="Vector_419" d="M96.1665,73.536c0,0 0.95,-3.276 5.18,-5.327c4.22,-2.052 8.49,-1.613 10.56,-4.417c-1.63,2.712 -5.31,3.881 -8.07,4.622c-2.76,0.741 -7.11,3.282 -7.67,5.122z" fill="#FEFEFE"/>
<path id="Vector_420" d="M95.6865,76.541c0,0 0.24,-4.225 5.72,-6.291c5.48,-2.066 5.81,-0.549 9.83,-3.821c-2.73,4.039 -5.74,4.468 -9.2,5.562c-3.46,1.095 -5.36,2.792 -6.35,4.55z" fill="#FEFEFE"/>
<path id="Vector_421" d="M95.6865,76.541c0,0 0.19,-3.402 5.68,-5.469c5.48,-2.066 5.85,-1.371 9.87,-4.643c-2.73,4.039 -5.74,4.467 -9.2,5.562c-3.46,1.095 -5.36,2.792 -6.35,4.55z" fill="#FEFEFE"/>
<path id="Vector_422" d="M94.9465,80.594c0,0 0.25,-4.225 5.73,-6.291c5.48,-2.066 5.8,-0.549 9.83,-3.821c-2.73,4.039 -5.75,4.468 -9.21,5.562c-3.46,1.096 -5.36,2.792 -6.35,4.55z" fill="#FEFEFE"/>
<path id="Vector_423" d="M94.9465,80.594c0,0 0.2,-3.402 5.68,-5.469c5.48,-2.066 5.85,-1.371 9.88,-4.643c-2.73,4.039 -5.75,4.467 -9.21,5.562c-3.46,1.096 -5.36,2.792 -6.35,4.55z" fill="#FEFEFE"/>
<path id="Vector_424" d="M94.2065,84.648c0,0 0.25,-4.225 5.73,-6.291c5.48,-2.066 5.8,-0.549 9.83,-3.821c-2.73,4.038 -5.74,4.467 -9.21,5.562c-3.46,1.095 -5.36,2.791 -6.35,4.55z" fill="#FEFEFE"/>
<path id="Vector_425" d="M94.2065,84.648c0,0 0.2,-3.403 5.68,-5.469c5.48,-2.066 5.85,-1.372 9.88,-4.644c-2.73,4.039 -5.74,4.468 -9.21,5.562c-3.46,1.096 -5.36,2.792 -6.35,4.551z" fill="#FEFEFE"/>
<path id="Vector_426" d="M95.3965,82.517c-0.13,-0.895 -0.16,-1.764 -0.16,-2.645c0.01,-0.877 0.06,-1.753 0.15,-2.624c0.18,-1.742 0.5,-3.464 0.94,-5.156c0.43,-1.691 0.99,-3.351 1.63,-4.971c0.17,-0.403 0.32,-0.812 0.5,-1.21l0.54,-1.194c0.38,-0.783 0.75,-1.573 1.17,-2.337c1.63,-3.084 3.6,-5.976 5.75,-8.709l0.4,-0.514l0.42,-0.501l0.84,-1.002c0.56,-0.663 1.16,-1.302 1.73,-1.953c0.6,-0.634 1.2,-1.262 1.8,-1.887c0.63,-0.608 1.26,-1.205 1.9,-1.794c-0.6,0.634 -1.2,1.262 -1.81,1.879l-1.77,1.908c-0.57,0.656 -1.15,1.298 -1.71,1.964l-0.83,1.007l-0.41,0.503l-0.4,0.517c-2.12,2.744 -4.05,5.641 -5.64,8.723c-0.41,0.762 -0.77,1.55 -1.15,2.332l-0.52,1.191c-0.17,0.396 -0.32,0.803 -0.48,1.204c-0.63,1.614 -1.16,3.264 -1.58,4.942c-0.41,1.678 -0.72,3.383 -0.88,5.101c-0.08,0.859 -0.12,1.722 -0.12,2.582c0,0.856 0.04,1.731 0.17,2.554z" fill="#FEFEFE"/>
</g>
<g id="Group_399">
<g id="Group_400">
<g id="Group_401">
<path id="Vector_427" d="M132.4765,118.373c0,0 10.36,-13.442 4.28,-23.202c-6.07,-9.76 -3.25,-14.218 -4.23,-24.191c-0.99,-9.973 -8.75,-13.658 -16.43,-10.384c-7.68,3.274 -9.2,17.429 -2.16,27.915c7.03,10.486 13.46,28.525 9.82,34.535c-3.63,6.011 3.65,1.87 8.72,-4.673z" fill="#C8F2FC"/>
</g>
<g id="Group_402">
<g id="Group_403">
<g id="Group_404">
<path id="Vector_428" d="M122.7565,126.003c-0.01,-0.01 -0.02,-0.021 -0.03,-0.033c-0.08,-0.104 -0.06,-0.255 0.04,-0.336c0.03,-0.024 3.13,-2.472 5.45,-7.055c2.14,-4.224 4.03,-11.183 0.91,-20.348c-6.1,-17.919 -9.22,-28.454 -2.37,-36.607c0.08,-0.101 0.23,-0.114 0.34,-0.029c0.1,0.091 0.11,0.236 0.02,0.337c-6.68,7.956 -3.58,18.389 2.46,36.146c3.18,9.333 1.24,16.428 -0.94,20.737c-2.37,4.672 -5.54,7.173 -5.57,7.198c-0.1,0.07 -0.22,0.064 -0.31,-0.01z" fill="#A7DCEA"/>
</g>
<g id="Group_405">
<path id="Vector_429" d="M121.0465,74.582c-4.37,-3.82 -7.9,-9.709 -7.95,-9.777c-0.06,-0.114 -0.03,-0.261 0.09,-0.328c0.11,-0.068 0.26,-0.03 0.33,0.083c0.04,0.078 4.72,7.868 9.92,11.244c0.11,0.072 0.14,0.22 0.07,0.33c-0.07,0.111 -0.22,0.143 -0.33,0.071c-0.72,-0.469 -1.43,-1.021 -2.13,-1.623z" fill="#A7DCEA"/>
</g>
<g id="Group_406">
<path id="Vector_430" d="M125.2165,85.913c-0.01,-0.008 -0.02,-0.016 -0.03,-0.026c-0.08,-0.1 -0.07,-0.251 0.03,-0.337c3.14,-2.672 5.34,-8.498 5.36,-8.556c0.05,-0.124 0.19,-0.187 0.31,-0.141c0.12,0.047 0.19,0.184 0.14,0.308c-0.09,0.244 -2.26,6.001 -5.5,8.754c-0.09,0.077 -0.23,0.075 -0.31,-0.002z" fill="#A7DCEA"/>
</g>
<g id="Group_407">
<path id="Vector_431" d="M117.7865,86.392c-0.33,-0.287 -0.66,-0.584 -0.98,-0.894c-0.09,-0.091 -0.1,-0.243 -0.01,-0.338c0.1,-0.096 0.25,-0.095 0.34,-0.007c4.65,4.466 10.13,6.435 10.18,6.454c0.13,0.044 0.19,0.181 0.15,0.306c-0.04,0.124 -0.18,0.189 -0.3,0.146c-0.06,-0.019 -4.91,-1.76 -9.38,-5.667z" fill="#A7DCEA"/>
</g>
<g id="Group_408">
<path id="Vector_432" d="M125.3365,102.396c-0.59,-0.513 -1.19,-1.113 -1.79,-1.816c-0.09,-0.101 -0.07,-0.252 0.03,-0.338c0.1,-0.085 0.25,-0.074 0.33,0.027c3.42,4.016 6.99,4.569 7.02,4.574c0.13,0.019 0.22,0.14 0.2,0.271c-0.01,0.131 -0.14,0.221 -0.27,0.202c-0.12,-0.018 -2.65,-0.41 -5.52,-2.92z" fill="#A7DCEA"/>
</g>
<g id="Group_409">
<path id="Vector_433" d="M129.5465,99.411c-0.09,-0.079 -0.11,-0.216 -0.04,-0.317c0.03,-0.047 3.28,-4.706 3.63,-7.424c0.02,-0.131 0.14,-0.224 0.27,-0.207c0.13,0.018 0.22,0.137 0.21,0.268c-0.37,2.835 -3.58,7.443 -3.72,7.638c-0.08,0.108 -0.23,0.134 -0.33,0.058c-0.01,-0.005 -0.02,-0.01 -0.02,-0.016z" fill="#A7DCEA"/>
</g>
<g id="Group_410">
<path id="Vector_434" d="M130.4565,112.423c-0.02,-0.019 -0.04,-0.043 -0.06,-0.071c-0.06,-0.118 -0.01,-0.262 0.11,-0.322c0.04,-0.019 3.68,-1.901 5.27,-5.326c0.05,-0.12 0.2,-0.172 0.32,-0.116c0.12,0.057 0.17,0.198 0.11,0.318c-1.66,3.578 -5.33,5.472 -5.48,5.55c-0.09,0.046 -0.2,0.03 -0.27,-0.033z" fill="#A7DCEA"/>
</g>
</g>
</g>
</g>
</g>
<g id="Group_411">
<g id="Group_412">
<g id="Group_413">
<path id="Vector_435" d="M132.4065,97.307l-0.48,-0.354c0.03,-0.047 3.49,-4.792 5.74,-12.789c2.08,-7.375 3.52,-19.107 -1.39,-33.113l0.56,-0.197c4.97,14.165 3.51,26.035 1.4,33.498c-2.28,8.093 -5.8,12.907 -5.83,12.955z" fill="#FEFEFE"/>
</g>
<g id="Group_414">
<path id="Vector_436" d="M139.3265,62.126l-0.18,-0.089c-6.41,-3.24 -6.92,-7.133 -6.93,-7.297l0.59,-0.067c0,0.037 0.5,3.679 6.43,6.74c3.6,-3.182 3.11,-7.587 3.11,-7.631l0.59,-0.073c0.02,0.198 0.55,4.884 -3.46,8.289z" fill="#FEFEFE"/>
</g>
<g id="Group_415">
<path id="Vector_437" d="M139.9565,69.629l-0.17,-0.071c-5.82,-2.502 -7.87,-7.307 -7.96,-7.51l0.55,-0.23c0.02,0.048 2.02,4.694 7.48,7.119c3.29,-2.813 4.44,-7.997 4.45,-8.049l0.58,0.125c-0.05,0.227 -1.24,5.587 -4.79,8.502z" fill="#FEFEFE"/>
</g>
<g id="Group_416">
<path id="Vector_438" d="M139.6965,75.142l-0.01,-0.596c0.04,-0.001 4.62,-0.159 7.5,-4.587l0.5,0.326c-3.06,4.7 -7.79,4.853 -7.99,4.857z" fill="#FEFEFE"/>
</g>
<g id="Group_417">
<path id="Vector_439" d="M139.0965,79.37c-0.14,-0.022 -3.46,-0.579 -6.85,-6.038l0.51,-0.315c3.23,5.2 6.4,5.758 6.43,5.763z" fill="#FEFEFE"/>
</g>
</g>
<path id="Vector_440" d="M138.0765,50.609c-0.14,0.936 -1.01,1.581 -1.95,1.44c-0.93,-0.141 -1.58,-1.015 -1.44,-1.951c0.14,-0.936 1.02,-1.581 1.95,-1.44c0.94,0.142 1.58,1.015 1.44,1.951z" fill="#FEFEFE"/>
<path id="Vector_441" d="M143.6765,54.844c0.76,-0.559 0.93,-1.632 0.37,-2.396c-0.56,-0.764 -1.63,-0.93 -2.4,-0.371c-0.76,0.56 -0.93,1.632 -0.37,2.396c0.56,0.764 1.63,0.93 2.4,0.371z" fill="#FEFEFE"/>
<path id="Vector_442" d="M146.2465,61.18c-0.14,0.937 -1.01,1.581 -1.95,1.44c-0.93,-0.141 -1.58,-1.014 -1.44,-1.95c0.14,-0.937 1.02,-1.582 1.95,-1.44c0.94,0.141 1.58,1.014 1.44,1.95z" fill="#FEFEFE"/>
<path id="Vector_443" d="M134.2165,54.469c-0.14,0.936 -1.01,1.581 -1.95,1.439c-0.93,-0.141 -1.58,-1.014 -1.44,-1.95c0.14,-0.936 1.02,-1.581 1.95,-1.44c0.94,0.141 1.58,1.014 1.44,1.951z" fill="#FEFEFE"/>
<path id="Vector_444" d="M133.8465,61.907c-0.15,0.936 -1.02,1.581 -1.96,1.44c-0.93,-0.141 -1.58,-1.015 -1.44,-1.951c0.15,-0.936 1.02,-1.581 1.96,-1.44c0.93,0.141 1.58,1.015 1.44,1.951z" fill="#FEFEFE"/>
<path id="Vector_445" d="M134.0065,73.205c-0.15,0.936 -1.02,1.581 -1.95,1.44c-0.94,-0.141 -1.59,-1.015 -1.44,-1.951c0.14,-0.936 1.01,-1.581 1.95,-1.44c0.93,0.141 1.58,1.014 1.44,1.951z" fill="#FEFEFE"/>
<path id="Vector_446" d="M149.1165,70.251c-0.14,0.936 -1.01,1.581 -1.95,1.439c-0.94,-0.141 -1.58,-1.014 -1.44,-1.95c0.14,-0.936 1.01,-1.581 1.95,-1.44c0.94,0.141 1.58,1.014 1.44,1.951z" fill="#FEFEFE"/>
</g>
<g id="Group_418">
<path id="Vector_447" d="M55.7465,80.379c0,0 -0.18,-5.479 1.46,-8.471c1.64,-2.991 4.05,-10.368 4.1,-14.126c0.76,5.682 0.73,9.22 -0.71,12.555c-1.45,3.335 -4.62,7.823 -4.85,10.042z" fill="#FEFEFE"/>
<path id="Vector_448" d="M55.7465,80.379c0,0 -0.18,-5.479 1.46,-8.471c1.64,-2.991 4.05,-10.368 4.1,-14.126c0.76,5.682 -0.58,8.988 -2.02,12.323c-1.45,3.335 -3.31,8.055 -3.54,10.274z" fill="#FEFEFE"/>
<path id="Vector_449" d="M54.1865,87.847c0,0 0.46,-5.463 2.44,-8.241c1.98,-2.777 5.24,-9.819 5.73,-13.545c0.09,5.732 -0.36,9.242 -2.18,12.384c-1.83,3.141 -5.51,7.224 -5.99,9.402z" fill="#FEFEFE"/>
<path id="Vector_450" d="M54.1865,87.847c0,0 0.46,-5.463 2.44,-8.241c1.98,-2.777 5.24,-9.819 5.73,-13.545c0.09,5.732 -1.63,8.857 -3.45,11.999c-1.83,3.142 -4.24,7.609 -4.72,9.787z" fill="#FEFEFE"/>
<path id="Vector_451" d="M54.2065,95.07c0,0 0.46,-5.463 2.44,-8.241c1.98,-2.778 5.24,-9.819 5.74,-13.545c0.08,5.732 -0.36,9.242 -2.19,12.383c-1.83,3.142 -5.51,7.225 -5.99,9.403z" fill="#FEFEFE"/>
<path id="Vector_452" d="M54.2065,95.07c0,0 0.46,-5.463 2.44,-8.241c1.98,-2.778 5.24,-9.819 5.74,-13.545c0.08,5.732 -1.63,8.857 -3.46,11.999c-1.83,3.142 -4.24,7.609 -4.72,9.787z" fill="#FEFEFE"/>
<path id="Vector_453" d="M55.4665,75.187c0,0 -0.55,-3.609 0.3,-7.668c0.84,-4.059 2.69,-6.432 3.32,-8.766c0.64,-2.335 0.62,-5.432 0.62,-5.432c0,0 1.15,4.333 -0.19,9.577c-1.33,5.244 -3.88,9.74 -4.05,12.289z" fill="#FEFEFE"/>
<path id="Vector_454" d="M55.4665,75.187c0,0 -0.55,-3.609 0.3,-7.668c0.84,-4.059 2.69,-6.432 3.32,-8.766c0.64,-2.335 0.62,-5.432 0.62,-5.432c0,0 0.95,4.615 -1.07,9.635c-2.66,6.616 -3,9.682 -3.17,12.231z" fill="#FEFEFE"/>
<path id="Vector_455" d="M54.0465,70.052c0,0 -1.49,-2.872 -1.07,-7.541c0.42,-4.67 3.59,-12.824 3.18,-15.138c1.08,2.857 1.05,8.446 -0.22,13.115c-1.26,4.67 -1.89,9.564 -1.89,9.564z" fill="#FEFEFE"/>
<path id="Vector_456" d="M54.0465,70.052c0,0 -1.49,-2.872 -1.07,-7.541c0.42,-4.67 3.59,-12.824 3.18,-15.138c1.08,2.857 -0.47,8.216 -1.73,12.885c-1.27,4.669 -0.38,9.794 -0.38,9.794z" fill="#FEFEFE"/>
<path id="Vector_457" d="M52.0265,64.907c0,0 -1.93,-4.819 -1.3,-9.292c0.63,-4.472 0.82,-10.166 0.45,-11.656c1.45,2.601 2.94,8.557 2.1,11.829c-0.85,3.273 -1.83,6.823 -1.25,9.119z" fill="#FEFEFE"/>
<path id="Vector_458" d="M52.0265,64.907c0,0 -1.93,-4.819 -1.3,-9.292c0.63,-4.472 0.82,-10.166 0.45,-11.656c1.45,2.601 1.35,8.384 0.51,11.656c-0.84,3.273 -0.24,6.996 0.34,9.292z" fill="#FEFEFE"/>
<path id="Vector_459" d="M50.1565,60.693c0,0 -2.77,-3.911 -2.77,-7.792c-0.01,-3.88 -1.48,-11.801 -2.28,-12.767c2.4,3.768 4.47,8.617 4.45,11.368c-0.02,2.752 -0.63,6.989 0.6,9.191z" fill="#FEFEFE"/>
<path id="Vector_460" d="M50.1565,60.693c0,0 -2.77,-3.911 -2.77,-7.792c-0.01,-3.88 -1.48,-11.801 -2.28,-12.767c2.4,3.768 3.21,8.575 3.19,11.327c-0.03,2.751 0.63,7.03 1.86,9.232z" fill="#FEFEFE"/>
<path id="Vector_461" d="M46.9965,56.072c0,0 -4.53,-6.689 -4.79,-10.939c-0.26,-4.249 -0.67,-8.222 -1.24,-8.6c1.65,2.841 3.22,7.523 4.03,11.499c0.8,3.975 2,8.04 2,8.04z" fill="#FEFEFE"/>
<path id="Vector_462" d="M46.9965,56.072c0,0 -4.53,-6.689 -4.79,-10.939c-0.26,-4.249 -0.67,-8.222 -1.24,-8.6c1.65,2.841 1.56,6.915 2.36,10.891c0.8,3.975 3.67,8.648 3.67,8.648z" fill="#FEFEFE"/>
<path id="Vector_463" d="M43.0665,51.024c0,0 -2.68,-10.402 -9.66,-15.442c2.98,3.998 4.27,6.425 5.04,8.528c0.77,2.102 2.9,5.17 4.62,6.914z" fill="#FEFEFE"/>
<path id="Vector_464" d="M43.0665,51.024c0,0 -4.71,-10.206 -9.66,-15.442c2.98,3.998 4.27,6.425 5.04,8.528c0.77,2.102 2.9,5.17 4.62,6.914z" fill="#FEFEFE"/>
<path id="Vector_465" d="M41.1965,49.038c0,0 -6.51,-10.508 -15.92,-11.515c4.11,2.34 13.42,8.974 15.92,11.515z" fill="#FEFEFE"/>
<path id="Vector_466" d="M41.1965,49.038c0,0 -7.7,-8.807 -15.92,-11.515c4.11,2.34 13.42,8.974 15.92,11.515z" fill="#FEFEFE"/>
<path id="Vector_467" d="M43.8865,52.121c0,0 -2.6,-3.805 -6.45,-4.135c-3.84,-0.33 -7.31,0.435 -9.57,-1.456c3.59,3.237 7.03,3.552 9.73,3.797c2.7,0.245 4.98,1.056 6.29,1.794z" fill="#FEFEFE"/>
<path id="Vector_468" d="M43.8865,52.121c0,0 -2.93,-2.729 -6.77,-3.059c-3.85,-0.331 -6.99,-0.641 -9.25,-2.532c3.59,3.237 7.03,3.552 9.73,3.796c2.7,0.246 4.98,1.057 6.29,1.795z" fill="#FEFEFE"/>
<path id="Vector_469" d="M46.1965,54.981c0,0 -1.55,-2.892 -7.05,-3.459c-5.5,-0.567 -7.11,-0.452 -9.74,-2.38c2.84,2.889 5.47,3.81 8.96,4.119c3.5,0.309 5.77,0.773 7.83,1.72z" fill="#FEFEFE"/>
<path id="Vector_470" d="M46.1965,54.981c0,0 -1.9,-2.044 -7.4,-2.612c-5.5,-0.567 -6.76,-1.299 -9.39,-3.227c2.84,2.889 5.47,3.81 8.96,4.119c3.5,0.309 5.77,0.773 7.83,1.72z" fill="#FEFEFE"/>
<path id="Vector_471" d="M49.1865,59.586c0,0 -1.06,-3.443 -5.79,-4.234c-4.74,-0.79 -8.24,-0.836 -9.82,-1.939c1.93,1.968 4.78,2.809 8.54,3.439c3.77,0.63 6.19,1.808 7.07,2.734z" fill="#FEFEFE"/>
<path id="Vector_472" d="M49.1865,59.586c0,0 -1.22,-2.827 -5.96,-3.617c-4.74,-0.79 -8.07,-1.453 -9.65,-2.555c1.93,1.968 4.79,2.808 8.55,3.438c3.75,0.631 6.18,1.808 7.06,2.734z" fill="#FEFEFE"/>
<path id="Vector_473" d="M51.6965,63.973c0,0 -2.01,-2.344 -5.98,-2.983c-3.96,-0.638 -7.27,-1.955 -9.59,-4.479c1.41,0.785 3.03,1.464 6.24,1.99c3.21,0.526 7.69,1.465 9.33,5.472z" fill="#FEFEFE"/>
<path id="Vector_474" d="M51.6965,63.973c0,0 -2.01,-2.344 -5.98,-2.983c-3.96,-0.638 -7.27,-1.955 -9.59,-4.479c1.41,0.785 2.97,2.329 6.18,2.855c3.21,0.527 7.75,0.6 9.39,4.607z" fill="#FEFEFE"/>
<path id="Vector_475" d="M54.1665,70.135c0,0 -1.28,-2.973 -5.69,-4.104c-4.41,-1.13 -7.75,-1.368 -9.99,-5.355c2.31,1.827 5.16,2.348 7.94,2.817c2.78,0.469 7.03,2.517 7.74,6.642z" fill="#FEFEFE"/>
<path id="Vector_476" d="M54.1665,70.135c0,0 -1.28,-2.973 -5.69,-4.104c-4.41,-1.13 -7.75,-1.368 -9.99,-5.355c2.31,1.827 4.98,3.171 7.76,3.64c2.78,0.469 7.21,1.694 7.92,5.819z" fill="#FEFEFE"/>
<path id="Vector_477" d="M55.1065,73.536c0,0 -0.99,-3.847 -5.22,-5.899c-4.22,-2.051 -8.26,-1.656 -10.52,-3.845c1.63,2.712 5.31,3.881 8.07,4.622c2.76,0.741 7.11,3.282 7.67,5.122z" fill="#FEFEFE"/>
<path id="Vector_478" d="M55.1065,73.536c0,0 -0.95,-3.276 -5.18,-5.327c-4.22,-2.052 -8.49,-1.613 -10.56,-4.417c1.63,2.712 5.31,3.881 8.07,4.622c2.76,0.741 7.11,3.282 7.67,5.122z" fill="#FEFEFE"/>
<path id="Vector_479" d="M55.5865,76.541c0,0 -0.24,-4.225 -5.72,-6.291c-5.48,-2.066 -5.81,-0.549 -9.83,-3.821c2.73,4.039 5.74,4.468 9.2,5.562c3.46,1.095 5.37,2.792 6.35,4.55z" fill="#FEFEFE"/>
<path id="Vector_480" d="M55.5865,76.541c0,0 -0.19,-3.402 -5.67,-5.469c-5.49,-2.066 -5.86,-1.371 -9.88,-4.643c2.73,4.039 5.74,4.467 9.2,5.562c3.46,1.095 5.37,2.792 6.35,4.55z" fill="#FEFEFE"/>
<path id="Vector_481" d="M56.3265,80.594c0,0 -0.25,-4.225 -5.73,-6.291c-5.48,-2.066 -5.8,-0.549 -9.83,-3.821c2.73,4.039 5.75,4.468 9.21,5.562c3.46,1.096 5.36,2.792 6.35,4.55z" fill="#FEFEFE"/>
<path id="Vector_482" d="M56.3265,80.594c0,0 -0.2,-3.402 -5.68,-5.469c-5.48,-2.066 -5.85,-1.371 -9.88,-4.643c2.73,4.039 5.75,4.467 9.21,5.562c3.46,1.096 5.36,2.792 6.35,4.55z" fill="#FEFEFE"/>
<path id="Vector_483" d="M57.0665,84.648c0,0 -0.25,-4.225 -5.73,-6.291c-5.48,-2.066 -5.8,-0.549 -9.83,-3.821c2.73,4.038 5.74,4.467 9.21,5.562c3.46,1.095 5.36,2.791 6.35,4.55z" fill="#FEFEFE"/>
<path id="Vector_484" d="M57.0665,84.648c0,0 -0.2,-3.403 -5.68,-5.469c-5.48,-2.066 -5.85,-1.372 -9.88,-4.644c2.73,4.039 5.74,4.468 9.21,5.562c3.46,1.096 5.36,2.792 6.35,4.551z" fill="#FEFEFE"/>
<path id="Vector_485" d="M55.8765,82.517c0.13,-0.895 0.16,-1.764 0.16,-2.645c-0.01,-0.877 -0.06,-1.753 -0.15,-2.624c-0.18,-1.742 -0.5,-3.464 -0.94,-5.156c-0.44,-1.691 -0.99,-3.351 -1.63,-4.971c-0.17,-0.403 -0.32,-0.812 -0.5,-1.21l-0.54,-1.194c-0.38,-0.783 -0.75,-1.573 -1.17,-2.337c-1.63,-3.084 -3.6,-5.976 -5.75,-8.709l-0.4,-0.514l-0.42,-0.501l-0.84,-1.002c-0.56,-0.663 -1.16,-1.302 -1.73,-1.953c-0.6,-0.634 -1.2,-1.262 -1.8,-1.887c-0.63,-0.608 -1.26,-1.205 -1.9,-1.794c0.6,0.634 1.2,1.262 1.81,1.879l1.77,1.908c0.57,0.656 1.15,1.298 1.71,1.964l0.83,1.007l0.41,0.503l0.4,0.517c2.12,2.744 4.05,5.641 5.64,8.723c0.41,0.762 0.77,1.55 1.15,2.332l0.52,1.191c0.17,0.396 0.32,0.803 0.48,1.204c0.63,1.614 1.16,3.264 1.58,4.942c0.41,1.678 0.72,3.383 0.88,5.101c0.08,0.859 0.12,1.722 0.12,2.582c0,0.856 -0.04,1.731 -0.17,2.554z" fill="#FEFEFE"/>
</g>
<g id="Group_419">
<g id="Group_420">
<g id="Group_421">
<path id="Vector_486" d="M18.7965,118.373c0,0 -10.36,-13.442 -4.28,-23.202c6.07,-9.76 3.25,-14.218 4.23,-24.191c0.99,-9.973 8.75,-13.658 16.43,-10.384c7.68,3.274 9.2,17.429 2.16,27.915c-7.03,10.486 -13.46,28.525 -9.82,34.535c3.63,6.011 -3.65,1.87 -8.72,-4.673z" fill="#C8F2FC"/>
</g>
<g id="Group_422">
<g id="Group_423">
<g id="Group_424">
<path id="Vector_487" d="M28.5165,126.003c0.01,-0.01 0.02,-0.021 0.03,-0.033c0.08,-0.104 0.06,-0.255 -0.04,-0.336c-0.03,-0.024 -3.13,-2.472 -5.45,-7.055c-2.14,-4.224 -4.03,-11.183 -0.91,-20.348c6.1,-17.919 9.22,-28.454 2.37,-36.607c-0.08,-0.101 -0.23,-0.114 -0.34,-0.029c-0.1,0.091 -0.11,0.236 -0.02,0.337c6.68,7.956 3.58,18.389 -2.46,36.146c-3.18,9.333 -1.24,16.428 0.94,20.737c2.37,4.672 5.54,7.173 5.58,7.198c0.09,0.07 0.21,0.064 0.3,-0.01z" fill="#A7DCEA"/>
</g>
<g id="Group_425">
<path id="Vector_488" d="M30.2265,74.582c4.37,-3.82 7.9,-9.709 7.94,-9.777c0.07,-0.114 0.04,-0.261 -0.08,-0.328c-0.11,-0.068 -0.26,-0.03 -0.33,0.083c-0.04,0.078 -4.72,7.868 -9.92,11.244c-0.11,0.072 -0.14,0.22 -0.07,0.33c0.07,0.111 0.22,0.143 0.33,0.071c0.72,-0.469 1.43,-1.021 2.13,-1.623z" fill="#A7DCEA"/>
</g>
<g id="Group_426">
<path id="Vector_489" d="M26.0565,85.913c0.01,-0.008 0.02,-0.016 0.03,-0.026c0.08,-0.1 0.07,-0.251 -0.03,-0.337c-3.14,-2.672 -5.34,-8.498 -5.36,-8.556c-0.05,-0.124 -0.19,-0.187 -0.31,-0.141c-0.12,0.047 -0.19,0.184 -0.14,0.308c0.09,0.244 2.26,6.001 5.5,8.754c0.09,0.077 0.23,0.075 0.31,-0.002z" fill="#A7DCEA"/>
</g>
<g id="Group_427">
<path id="Vector_490" d="M33.4865,86.392c0.33,-0.287 0.66,-0.584 0.98,-0.894c0.09,-0.091 0.1,-0.243 0.01,-0.338c-0.1,-0.096 -0.25,-0.095 -0.34,-0.007c-4.65,4.466 -10.13,6.435 -10.18,6.454c-0.13,0.044 -0.19,0.181 -0.15,0.306c0.04,0.124 0.18,0.189 0.3,0.146c0.06,-0.019 4.91,-1.76 9.38,-5.667z" fill="#A7DCEA"/>
</g>
<g id="Group_428">
<path id="Vector_491" d="M25.9365,102.396c0.59,-0.513 1.19,-1.113 1.79,-1.816c0.09,-0.101 0.07,-0.252 -0.03,-0.338c-0.1,-0.085 -0.25,-0.074 -0.33,0.027c-3.42,4.016 -6.99,4.569 -7.02,4.574c-0.13,0.019 -0.22,0.14 -0.2,0.271c0.01,0.131 0.14,0.221 0.27,0.202c0.12,-0.018 2.65,-0.41 5.52,-2.92z" fill="#A7DCEA"/>
</g>
<g id="Group_429">
<path id="Vector_492" d="M21.7265,99.411c0.09,-0.079 0.11,-0.216 0.04,-0.317c-0.03,-0.047 -3.28,-4.706 -3.63,-7.424c-0.02,-0.131 -0.14,-0.224 -0.27,-0.207c-0.13,0.018 -0.22,0.137 -0.21,0.268c0.37,2.835 3.58,7.443 3.72,7.638c0.08,0.108 0.23,0.134 0.33,0.058c0.01,-0.005 0.02,-0.01 0.02,-0.016z" fill="#A7DCEA"/>
</g>
<g id="Group_430">
<path id="Vector_493" d="M20.8165,112.423c0.02,-0.019 0.04,-0.043 0.06,-0.071c0.06,-0.118 0.01,-0.262 -0.11,-0.322c-0.04,-0.019 -3.68,-1.901 -5.27,-5.326c-0.05,-0.12 -0.2,-0.172 -0.32,-0.116c-0.12,0.057 -0.17,0.198 -0.11,0.318c1.66,3.578 5.33,5.472 5.48,5.55c0.09,0.046 0.2,0.03 0.27,-0.033z" fill="#A7DCEA"/>
</g>
</g>
</g>
</g>
</g>
<g id="Group_431">
<g id="Group_432">
<g id="Group_433">
<path id="Vector_494" d="M18.8665,97.307l0.48,-0.354c-0.03,-0.047 -3.49,-4.792 -5.74,-12.789c-2.08,-7.375 -3.52,-19.107 1.39,-33.113l-0.56,-0.197c-4.97,14.165 -3.51,26.035 -1.4,33.498c2.28,8.093 5.8,12.907 5.83,12.955z" fill="#FEFEFE"/>
</g>
<g id="Group_434">
<path id="Vector_495" d="M11.9465,62.126l0.18,-0.09c6.41,-3.239 6.92,-7.132 6.93,-7.296l-0.59,-0.067c0,0.037 -0.5,3.679 -6.43,6.74c-3.6,-3.182 -3.11,-7.587 -3.11,-7.631l-0.59,-0.073c-0.02,0.198 -0.55,4.884 3.46,8.289z" fill="#FEFEFE"/>
</g>
<g id="Group_435">
<path id="Vector_496" d="M11.3165,69.629l0.17,-0.071c5.82,-2.503 7.87,-7.307 7.96,-7.51l-0.55,-0.23c-0.02,0.047 -2.02,4.694 -7.48,7.119c-3.29,-2.813 -4.44,-7.997 -4.45,-8.05l-0.58,0.126c0.05,0.227 1.24,5.587 4.79,8.502z" fill="#FEFEFE"/>
</g>
<g id="Group_436">
<path id="Vector_497" d="M11.5765,75.142l0.01,-0.596c-0.04,-0.001 -4.62,-0.159 -7.5,-4.587l-0.5,0.325c3.06,4.701 7.79,4.854 7.99,4.858z" fill="#FEFEFE"/>
</g>
<g id="Group_437">
<path id="Vector_498" d="M12.1765,79.369c0.14,-0.021 3.46,-0.578 6.85,-6.037l-0.51,-0.315c-3.23,5.199 -6.4,5.758 -6.43,5.763z" fill="#FEFEFE"/>
</g>
</g>
<path id="Vector_499" d="M13.1965,50.609c0.14,0.936 1.01,1.581 1.95,1.44c0.93,-0.141 1.58,-1.015 1.44,-1.951c-0.14,-0.936 -1.02,-1.581 -1.95,-1.44c-0.94,0.141 -1.58,1.014 -1.44,1.951z" fill="#FEFEFE"/>
<path id="Vector_500" d="M9.9865,54.483c0.56,-0.761 0.4,-1.835 -0.36,-2.397c-0.76,-0.563 -1.83,-0.401 -2.4,0.361c-0.56,0.762 -0.4,1.835 0.36,2.397c0.77,0.563 1.84,0.401 2.4,-0.361z" fill="#FEFEFE"/>
<path id="Vector_501" d="M5.0265,61.18c0.14,0.936 1.01,1.581 1.95,1.44c0.93,-0.141 1.58,-1.014 1.44,-1.951c-0.14,-0.936 -1.02,-1.581 -1.95,-1.439c-0.94,0.141 -1.58,1.014 -1.44,1.95z" fill="#FEFEFE"/>
<path id="Vector_502" d="M17.0565,54.468c0.14,0.937 1.01,1.581 1.95,1.44c0.93,-0.141 1.58,-1.014 1.44,-1.95c-0.14,-0.937 -1.02,-1.581 -1.95,-1.44c-0.94,0.141 -1.58,1.014 -1.44,1.95z" fill="#FEFEFE"/>
<path id="Vector_503" d="M17.4365,61.907c0.14,0.936 1.01,1.581 1.95,1.439c0.93,-0.14 1.58,-1.014 1.44,-1.95c-0.14,-0.936 -1.02,-1.581 -1.95,-1.44c-0.94,0.141 -1.59,1.014 -1.44,1.951z" fill="#FEFEFE"/>
<path id="Vector_504" d="M17.2765,73.205c0.14,0.936 1.01,1.581 1.95,1.44c0.93,-0.141 1.58,-1.015 1.44,-1.951c-0.15,-0.936 -1.02,-1.581 -1.96,-1.44c-0.93,0.141 -1.58,1.014 -1.43,1.951z" fill="#FEFEFE"/>
<path id="Vector_505" d="M2.1565,70.25c0.14,0.937 1.01,1.581 1.95,1.44c0.94,-0.141 1.58,-1.014 1.44,-1.95c-0.14,-0.937 -1.01,-1.581 -1.95,-1.44c-0.94,0.141 -1.58,1.014 -1.44,1.95z" fill="#FEFEFE"/>
</g>
<g id="Group_438">
<g id="Clip path group">
<g id="Group_439">
<g id="Group_440">
<g id="Group_441">
<path id="Vector_506" d="M92.0265,21.271c0,0 0.54,5.386 3.71,10.086c5.02,7.415 4.71,18.086 -9.99,21.923c4.9,-2.129 8.67,-4.49 10.06,-9.238c1.38,-4.749 -0.42,-8.27 -2.4,-11.852c-1.98,-3.581 -4.04,-7.046 -1.38,-10.919z" fill="#210900"/>
<g id="Group_442">
<path id="Vector_507" d="M57.9965,58.077c-4.22,-1.263 -8.18,-5.904 -6.65,-15.139c1.55,-9.333 7.31,-15.06 7.36,-15.116l0.15,0.145c-0.06,0.057 -5.77,5.74 -7.31,15.004c-1.9,11.458 4.51,14.31 6.51,14.911z" fill="#360D00"/>
</g>
<g id="Group_443">
<path id="Vector_508" d="M99.3765,39.733c-0.39,-2.681 -1.94,-5.349 -3.58,-8.174c-1.2,-2.055 -2.43,-4.18 -3.34,-6.484c-0.02,0.131 -0.04,0.264 -0.05,0.4c0.89,2.192 2.07,4.222 3.21,6.187c1.63,2.807 3.17,5.458 3.55,8.101c0.38,2.586 -0.26,5.048 -1.79,6.93c-1.85,2.272 -7.25,5.707 -11.29,5.959l0.01,0.204c4.1,-0.256 9.55,-3.718 11.44,-6.034c1.56,-1.927 2.22,-4.445 1.84,-7.089z" fill="#360D00"/>
</g>
<path id="Vector_509" d="M95.1865,37.916c0.75,6.347 -1.07,9.843 -3.11,11.674c-7.79,6.99 -31.78,12.029 -38,4.128c-3.34,-4.247 -2.66,-11.186 -2.66,-11.186c4.79,-8.123 12.95,-21.618 12.95,-21.618c0,0 24.5,-2.383 25.35,-1.748c0.85,0.636 4.63,11.701 5.47,18.75z" fill="#040100"/>
<path id="Vector_510" d="M83.6265,55.233v-1.966c-0.8,-0.436 -1.53,-1.118 -2,-2.183c-1.55,-3.541 -1.04,-8.812 -1.04,-8.812l-12.51,-5.108c0,0 1.14,8.038 0.16,11.702c-0.98,3.663 -3.4,4.986 -3.4,4.986c0,0 -1.6,18.003 12.54,18.52c12.24,0.448 9.06,-14.074 9.98,-17.139z" fill="#D3826F"/>
<path id="Vector_511" d="M80.6665,47.156c-0.3,-2.583 -0.08,-4.884 -0.08,-4.884l-12.51,-5.108c0,0 1.14,8.038 0.16,11.702c-0.98,3.663 -3.4,4.985 -3.4,4.985c0,0 0.79,2.8 2.82,5.597c0.44,-3.196 1.41,-6.337 2.77,-9.137c1.67,-3.563 6.41,-4.879 10.24,-3.155z" fill="#D07A6A"/>
<path id="Vector_512" d="M88.8765,28.714c0,0 1.49,-2.066 2.97,0c1.48,2.066 -0.61,5.415 -2.46,5.72c-1.84,0.305 -1.77,-0.436 -1.65,-1.151c0.12,-0.716 1.14,-4.569 1.14,-4.569z" fill="#C66E5D"/>
<path id="Vector_513" d="M64.3765,29.813c0,0 -1.66,-2.066 -3.32,0c-1.67,2.065 0.67,5.415 2.74,5.72c2.08,0.305 1.99,-0.437 1.85,-1.152c-0.13,-0.715 -1.27,-4.568 -1.27,-4.568z" fill="#DB907B"/>
<path id="Vector_514" d="M62.9365,34.365c0,0 -0.14,-0.296 -0.67,-0.732c-0.53,-0.436 -0.7,-1.812 -0.72,-2.596c-0.02,-0.785 0.49,-1.569 0.8,-1.778c0.3,-0.209 1.56,1.098 1.65,1.499c0.1,0.401 0.46,1.063 0,1.673c-0.45,0.61 -0.26,0.819 0.1,1.046c0.36,0.226 0.09,0.609 -0.1,0.801c-0.19,0.192 -0.46,-0.157 -0.78,-0.557c-0.32,-0.401 0.26,-1.381 0.4,-1.536c0.14,-0.155 -0.95,-0.521 -1.33,0.769c-0.04,-0.68 0.67,-1.845 1.56,-1.132c-0.28,-1.238 -0.79,-1.79 -1.15,-2.045c-0.37,-0.256 -0.62,0.569 -0.76,1.382c-0.14,0.814 -0.06,1.859 0.3,2.126c0.36,0.267 0.6,0.755 0.7,1.08z" fill="#C46A5C"/>
<path id="Vector_515" d="M84.7865,15.935c0,0 4.35,3.708 4.82,10.938c0.48,7.23 -0.58,13.506 -4.82,16.764c-4.23,3.257 -8.31,2.953 -13.53,0.079c-3.89,-2.145 -6.67,-8.285 -6.83,-12.763c-0.16,-4.477 -0.32,-10.939 3.73,-15.018c4.05,-4.078 13.24,-2.515 16.63,0z" fill="#DB907B"/>
<path id="Vector_516" d="M75.8265,29.661c0,0 1.75,-2.43 -0.48,-5.172c-2.38,-0.357 -3.98,-0.727 -4.96,0c-0.98,0.728 -1.12,2.864 -0.56,4.08c1.01,-0.958 1.67,-1.643 3.95,-1.008c0.76,0.319 1.9,1.128 2.05,2.1z" fill="#D3826F"/>
<path id="Vector_517" d="M82.3865,29.722c0,0 -0.72,-2.385 0.76,-4.934c1.19,-0.59 2.99,-0.629 2.99,-0.629l2.25,4.471z" fill="#D3826F"/>
<path id="Vector_518" d="M84.7865,15.935c-3.39,-2.515 -12.58,-4.078 -16.63,0c-4.05,4.079 -3.89,10.541 -3.73,15.018c0.16,4.478 2.94,10.618 6.83,12.763c3.66,2.014 6.75,2.764 9.74,1.913c-2.11,0.297 -4.31,0.497 -8.6,-2.469c-4.29,-2.966 -7.89,-15.009 -0.29,-24.47c0,0 3.86,-1.547 8.25,-0.26c7.72,2.263 7.1,8.812 7.33,9.638c0.65,2.287 1.65,4.008 1.86,5.3c0.21,-2.027 0.01,-4.209 0.06,-6.495c0.2,-9.376 -4.82,-10.938 -4.82,-10.938z" fill="#D3826F"/>
<path id="Vector_519" d="M82.1565,34.975c0,0 -0.14,1.032 -1.3,1.324c-1.78,0.447 -3.16,-1.024 -3.13,-1.49c0.94,0.259 2.84,1.306 4.43,0.166z" fill="#D3826F"/>
<path id="Vector_520" d="M77.9565,42.347c-0.07,-0.082 1.99,0.794 3.42,0c-0.53,0.847 -2.12,1.562 -3.42,0z" fill="#D3826F"/>
<path id="Vector_521" d="M65.8965,27.83c0,0 -1.35,2.17 -0.76,7.141c-0.43,-0.59 -0.9,-5.06 -0.76,-5.884c0.13,-0.824 1.52,-1.257 1.52,-1.257z" fill="#1A1A1A"/>
<g id="Group_444">
<g id="Group_445">
<path id="Vector_522" d="M82.3865,29.722c0,0 0.35,-1.622 2.31,-2.155c1.95,-0.533 3.4,0.804 3.4,0.804c-0.67,0.127 -0.95,1.012 -2.86,1.675c-1.9,0.664 -2.85,-0.324 -2.85,-0.324z" fill="white"/>
<g id="Group_446">
<g id="Clip path group_2">
<mask id="mask0_2001_10335" style="mask-type:luminance" maskUnits="userSpaceOnUse" x="2614" y="268" width="6" height="4">
<g id="SVGID_00000072961707252733436200000011517579763201034666_">
<path id="Vector_523" d="M2614.25 271.062C2614.25 271.062 2614.6 269.44 2616.56 268.907C2618.51 268.374 2619.96 269.711 2619.96 269.711C2619.29 269.838 2619.01 270.723 2617.1 271.386C2615.2 272.05 2614.25 271.062 2614.25 271.062Z" fill="white"/>
</g>
</mask>
<g mask="url(#mask0_2001_10335)">
<g id="Group_447">
<path id="Vector_524" d="M85.7265,28.098c0.34,0.581 0.14,1.329 -0.44,1.67c-0.58,0.341 -1.33,0.146 -1.67,-0.435c-0.34,-0.581 -0.15,-1.329 0.44,-1.67c0.58,-0.341 1.33,-0.146 1.67,0.435z" fill="#1E0B00"/>
<g id="Group_448">
<path id="Vector_525" d="M85.1765,28.419c0.16,0.279 0.07,0.638 -0.21,0.802c-0.28,0.164 -0.64,0.07 -0.8,-0.209c-0.17,-0.28 -0.07,-0.639 0.21,-0.802c0.28,-0.164 0.64,-0.07 0.8,0.209z" fill="#040100"/>
<path id="Vector_526" d="M85.2065,28.102c0.07,0.122 0.03,0.279 -0.09,0.351c-0.12,0.072 -0.28,0.031 -0.35,-0.091c-0.07,-0.123 -0.03,-0.28 0.09,-0.352c0.12,-0.072 0.28,-0.031 0.35,0.092z" fill="white"/>
</g>
</g>
</g>
</g>
</g>
</g>
<path id="Vector_527" d="M82.3865,29.722c0.13,-0.602 0.47,-1.172 0.95,-1.596c0.46,-0.438 1.08,-0.702 1.71,-0.819c0.63,-0.112 1.29,-0.066 1.89,0.16c0.6,0.228 1.12,0.636 1.45,1.163c-0.44,-0.434 -0.98,-0.724 -1.54,-0.891c-0.57,-0.152 -1.16,-0.179 -1.74,-0.069c-0.57,0.101 -1.13,0.319 -1.59,0.677c-0.47,0.353 -0.86,0.823 -1.13,1.375z" fill="#210900"/>
<path id="Vector_528" d="M82.2665,29.087c0.08,-0.615 0.4,-1.193 0.86,-1.624c0.46,-0.433 1.06,-0.688 1.68,-0.813c0.61,-0.123 1.26,-0.103 1.86,0.096c0.59,0.209 1.15,0.555 1.49,1.074c-0.19,-0.238 -0.44,-0.424 -0.7,-0.577c-0.26,-0.157 -0.54,-0.278 -0.83,-0.362c-0.29,-0.076 -0.59,-0.125 -0.89,-0.138c-0.3,0.002 -0.6,0.017 -0.9,0.087c-0.3,0.049 -0.58,0.146 -0.86,0.261c-0.27,0.129 -0.53,0.282 -0.76,0.478c-0.45,0.39 -0.8,0.92 -0.95,1.518z" fill="#89493F"/>
</g>
<g id="Group_449">
<g id="Group_450">
<path id="Vector_529" d="M75.8265,29.661c0,0 -0.36,-1.622 -2.31,-2.155c-1.96,-0.532 -3.41,0.804 -3.41,0.804c0.68,0.127 0.96,1.012 2.86,1.676c1.91,0.664 2.86,-0.325 2.86,-0.325z" fill="white"/>
<g id="Group_451">
<g id="Clip path group_3">
<mask id="mask1_2001_10335" style="mask-type:luminance" maskUnits="userSpaceOnUse" x="2601" y="268" width="7" height="4">
<g id="SVGID_00000065070289935065143150000005708389903309552798_">
<path id="Vector_530" d="M2607.69 271.001C2607.69 271.001 2607.33 269.379 2605.38 268.846C2603.42 268.314 2601.97 269.65 2601.97 269.65C2602.65 269.777 2602.93 270.662 2604.83 271.326C2606.74 271.99 2607.69 271.001 2607.69 271.001Z" fill="white"/>
</g>
</mask>
<g mask="url(#mask1_2001_10335)">
<g id="Group_452">
<path id="Vector_531" d="M71.7765,27.985c-0.34,0.581 -0.15,1.329 0.43,1.67c0.58,0.341 1.33,0.146 1.67,-0.436c0.34,-0.581 0.15,-1.329 -0.43,-1.67c-0.58,-0.341 -1.33,-0.146 -1.67,0.436z" fill="#1E0B00"/>
<g id="Group_453">
<path id="Vector_532" d="M72.3165,28.305c-0.16,0.28 -0.07,0.639 0.21,0.802c0.28,0.164 0.64,0.07 0.8,-0.209c0.17,-0.279 0.07,-0.638 -0.2,-0.802c-0.28,-0.164 -0.64,-0.07 -0.81,0.209z" fill="#040100"/>
<path id="Vector_533" d="M72.2865,27.988c-0.07,0.123 -0.03,0.28 0.09,0.352c0.12,0.071 0.28,0.03 0.35,-0.092c0.08,-0.122 0.03,-0.28 -0.09,-0.352c-0.12,-0.072 -0.28,-0.03 -0.35,0.092z" fill="white"/>
</g>
</g>
</g>
</g>
</g>
</g>
<path id="Vector_534" d="M75.8265,29.661c-0.14,-0.602 -0.47,-1.171 -0.95,-1.595c-0.47,-0.439 -1.09,-0.703 -1.71,-0.819c-0.63,-0.113 -1.3,-0.067 -1.89,0.159c-0.6,0.228 -1.13,0.636 -1.45,1.163c0.44,-0.434 0.98,-0.724 1.54,-0.89c0.56,-0.153 1.16,-0.179 1.73,-0.07c0.58,0.102 1.13,0.319 1.6,0.677c0.46,0.353 0.86,0.823 1.13,1.375z" fill="#210900"/>
<path id="Vector_535" d="M70.1365,28.422c0,0 0.01,1.007 1.02,2.172c1,1.165 3.74,1.417 4.7,-0.676c-1.06,1.033 -2.1,1.378 -3.73,0.742c-1.62,-0.636 -1.99,-2.238 -1.99,-2.238z" fill="#D3826F"/>
<path id="Vector_536" d="M82.3865,29.862c0,0 0.36,1.88 2.83,1.741c2.47,-0.139 3.06,-2.99 3.06,-2.99c0,0 -0.93,2.275 -3.06,2.434c-2.14,0.159 -2.83,-1.185 -2.83,-1.185z" fill="#D3826F"/>
<path id="Vector_537" d="M75.9365,29.026c-0.07,-0.615 -0.4,-1.192 -0.85,-1.623c-0.47,-0.434 -1.07,-0.689 -1.68,-0.814c-0.62,-0.122 -1.27,-0.103 -1.86,0.096c-0.59,0.209 -1.15,0.555 -1.49,1.075c0.19,-0.239 0.44,-0.425 0.7,-0.578c0.26,-0.157 0.54,-0.278 0.83,-0.362c0.29,-0.076 0.59,-0.125 0.89,-0.138c0.3,0.002 0.6,0.018 0.89,0.087c0.3,0.05 0.59,0.147 0.86,0.262c0.27,0.129 0.54,0.282 0.76,0.477c0.46,0.39 0.8,0.921 0.95,1.518z" fill="#89493F"/>
</g>
<path id="Vector_538" d="M75.1865,25.125c0,0 -1.55,-0.556 -3.45,-0.556c-1.91,0 -3.47,1.43 -3.47,1.43c1.75,-2.119 2.94,-2.33 4.39,-2.41c1.46,-0.079 2.68,0.238 3.05,0.503c0.37,0.265 0.37,0.98 -0.52,1.033z" fill="#210900"/>
<path id="Vector_539" d="M82.5965,25.125c0,0 1.55,-0.556 3.46,-0.556c1.91,0 3.47,1.43 3.47,1.43c-1.75,-2.119 -2.94,-2.33 -4.4,-2.41c-1.45,-0.079 -2.67,0.238 -3.04,0.503c-0.37,0.265 -0.37,0.98 0.51,1.033z" fill="#210900"/>
<path id="Vector_540" d="M79.8165,28.356c0.36,0.068 1.02,2.466 1.11,3.641c0.12,1.535 0.28,2.346 0.28,2.346c0.23,-0.144 0.31,-0.928 0.23,-1.791c-0.08,-0.862 -0.28,-3.944 -1.62,-4.196z" fill="#DBA194"/>
<g id="Group_454">
<path id="Vector_541" d="M84.3465,37.235c0,0 -3.9,0.82 -9.87,0c1.77,3.382 3.55,3.894 5.26,4.167c1.7,0.273 4.71,-1.093 4.61,-4.167z" fill="#4B2E26"/>
<path id="Vector_542" d="M84.0465,37.289c-0.16,0.539 -0.77,1.565 -3.06,1.665c-3.02,0.132 -5.13,0.279 -6.07,-1.662c4.78,0.602 8.14,0.16 9.13,-0.003z" fill="white"/>
<path id="Vector_543" d="M83.8765,37.676c0.08,-0.142 0.14,-0.275 0.17,-0.387c-0.99,0.163 -4.35,0.605 -9.13,0.003c0.06,0.14 0.14,0.268 0.22,0.385c4.42,0.532 7.59,0.174 8.74,-0.001z" fill="#F2F2F2"/>
<path id="Vector_544" d="M74.4765,37.235c0,0 3.88,-0.256 4.49,-0.285c0.6,-0.029 1.46,0.158 1.65,0.417c0.63,-0.561 2.67,-0.624 3.73,-0.132c-1.57,0.491 -6.57,0.817 -9.87,0z" fill="#AD5147"/>
<path id="Vector_545" d="M74.4765,37.235c0,0 0.19,2.114 2.37,3.783c2.17,1.67 4.99,1.107 6.39,-0.287c1.39,-1.395 1.11,-3.496 1.11,-3.496c0,0 -1.14,3.965 -4.49,3.908c-3.35,-0.058 -5.38,-3.908 -5.38,-3.908z" fill="#AD5147"/>
</g>
<g id="Group_455">
<path id="Vector_546" opacity="0.29" d="M67.9465,26.63c0,0 5.37,-0.234 9.65,0.548c0.53,0.431 0.16,4.594 -2.25,5.41c-2.4,0.816 -5.24,0.346 -6.48,-0.449c-1.25,-0.795 -0.92,-5.509 -0.92,-5.509z" fill="white"/>
<path id="Vector_547" opacity="0.29" d="M77.6165,29.567c0.28,-1.133 0.23,-2.184 -0.02,-2.389c-2.44,-0.447 -5.24,-0.562 -7.19,-0.579c0.11,1.09 0.35,2.135 0.88,2.472c1.22,0.778 3.96,1.242 6.33,0.496z" fill="white"/>
<path id="Vector_548" d="M72.6165,33.175c-1.55,0 -3.01,-0.365 -3.84,-0.898c-1.29,-0.824 -1.02,-5.166 -0.99,-5.659l0.01,-0.145l0.15,-0.006c0.05,-0.003 5.43,-0.226 9.68,0.551l0.04,0.007l0.03,0.027c0.33,0.268 0.32,1.288 0.17,2.121c-0.12,0.683 -0.66,2.958 -2.46,3.569c-0.89,0.302 -1.86,0.433 -2.79,0.433zM68.1065,26.787c-0.08,1.383 -0.08,4.627 0.84,5.215c1.27,0.812 4.06,1.207 6.35,0.431c1.64,-0.554 2.14,-2.679 2.25,-3.317c0.18,-1.006 0.07,-1.635 -0.03,-1.786c-3.82,-0.689 -8.53,-0.571 -9.41,-0.543z" fill="#1A1A1A"/>
</g>
<g id="Group_456">
<path id="Vector_549" opacity="0.29" d="M91.5965,26.63c0,0 -5.36,-0.234 -9.65,0.548c-0.53,0.431 -0.16,4.594 2.25,5.41c2.41,0.816 5.24,0.346 6.49,-0.449c1.24,-0.795 0.91,-5.509 0.91,-5.509z" fill="white"/>
<path id="Vector_550" opacity="0.29" d="M91.5865,29.389c0.11,-1.388 0.01,-2.759 0.01,-2.759c0,0 -3.78,-0.165 -7.53,0.245c0.37,1.075 1.03,2.115 2.11,2.481c1.86,0.629 3.97,0.492 5.41,0.033z" fill="white"/>
<path id="Vector_551" d="M86.9265,33.175c-0.93,0 -1.89,-0.13 -2.78,-0.433c-1.81,-0.611 -2.35,-2.886 -2.47,-3.569c-0.15,-0.833 -0.16,-1.853 0.17,-2.121l0.03,-0.027l0.05,-0.007c4.25,-0.777 9.62,-0.554 9.68,-0.551l0.14,0.006l0.01,0.145c0.04,0.493 0.31,4.835 -0.98,5.659c-0.84,0.533 -2.29,0.898 -3.85,0.898zM82.0365,27.33c-0.11,0.151 -0.22,0.78 -0.04,1.786c0.12,0.638 0.62,2.763 2.25,3.317c2.29,0.776 5.08,0.381 6.35,-0.431c0.92,-0.588 0.93,-3.832 0.85,-5.215c-0.89,-0.029 -5.6,-0.146 -9.41,0.543z" fill="#1A1A1A"/>
</g>
<path id="Vector_552" d="M81.1365,28.86c0.25,0.42 0.41,0.877 0.53,1.338c0.25,0.924 0.38,1.942 0.46,2.885c0.03,0.472 0.05,0.874 0.07,1.346c0,0.121 0.02,0.223 0.01,0.381c-0.04,0.489 -0.43,0.79 -0.88,0.895c-0.52,0.112 -1.02,0.049 -1.49,-0.031c-0.48,-0.083 -1.52,-0.513 -1.49,-0.599c0.03,-0.081 1.88,0.511 2.87,0.173c0.45,-0.084 0.53,-0.55 0.52,-0.806c0,-0.468 -0.02,-0.935 -0.04,-1.402c-0.05,-0.932 -0.13,-1.865 -0.31,-2.772c-0.1,-0.454 -0.24,-0.896 -0.43,-1.311c-0.19,-0.416 -0.05,-0.518 0.18,-0.097z" fill="#C46A5C"/>
<path id="Vector_553" d="M70.5665,34.996c0,0.182 -0.15,0.33 -0.33,0.33c-0.19,0 -0.33,-0.148 -0.33,-0.33c0,-0.182 0.14,-0.33 0.33,-0.33c0.18,0 0.33,0.148 0.33,0.33z" fill="#4B2E26"/>
<g id="Group_457">
<path id="Vector_554" d="M77.5965,27.343c-0.02,0 -0.04,-0.004 -0.06,-0.012l0.12,-0.305l-0.06,0.152l-0.02,-0.161c0.02,-0.003 0.04,-0.011 0.08,-0.021c1.18,-0.352 2.64,-0.345 4.33,0.023l-0.07,0.318c-1.64,-0.355 -3.04,-0.365 -4.17,-0.029c-0.07,0.022 -0.11,0.035 -0.15,0.035z" fill="#1A1A1A"/>
</g>
</g>
<g id="Group_458">
<path id="Vector_555" d="M81.4065,50.534c0,0 3.34,7.978 -4.25,8.777c-5.12,0.532 -10.22,-3.51 -9.81,-8.227c-1.94,1.522 -2.8,3.243 -4.02,5.969c-1.22,2.725 0.96,12.945 3.87,19.83c2.9,6.885 8.77,23.424 12.77,24.783c4.01,1.359 5.19,-11.228 7.72,-19.297c2.53,-8.068 0.41,-28.085 0.41,-28.085c0,0 -4.68,-0.719 -6.69,-3.75z" fill="#0F2C46"/>
<g id="Group_459">
<path id="Vector_556" d="M65.8365,52.836c0,0 -7.03,5.149 -15.2,7.3c-8.18,2.152 -9.33,3.586 -9.33,3.586c0,0 5.6,17.5 7.03,28.544c1.44,11.045 6.6,18.934 3.59,32.274c-3.01,13.339 -6.67,31.413 -7.1,38.298c-0.43,6.885 13.12,6.454 23.67,6.67c10.54,0.215 14.63,-4.949 16.99,-10.328c2.37,-5.379 -2.58,-42.171 -2.36,-46.904c0.21,-4.734 -2.84,-20.01 -9.06,-30.122c-6.22,-10.112 -8.95,-23.997 -8.23,-29.318z" fill="white"/>
<path id="Vector_557" d="M61.6065,126.476c3.01,-13.339 -10.47,-30.017 -11.48,-41.108c-1.67,-18.286 -8.82,-21.646 -8.82,-21.646c0,0 5.6,17.5 7.03,28.544c1.44,11.045 6.6,18.934 3.59,32.274c-3.01,13.339 -6.67,31.412 -7.1,38.297c-0.27,4.244 4.78,5.708 11.16,6.258c0.43,-6.885 2.6,-29.279 5.62,-42.619z" fill="#F0F6F7"/>
<path id="Vector_558" d="M48.5865,139.852l-0.78,4.197c0,0 2.11,-0.97 3.9,0.608c1.79,1.578 6.88,1.506 9.09,0.807c2.2,-0.699 10.59,-7.638 10.59,-7.638c0,0 -2.47,1.775 -6.29,1.291c-3.82,-0.485 -11.51,-5.433 -11.51,-5.433z" fill="#F0F6F7"/>
<path id="Vector_559" d="M51.7065,144.657c0,0 18.88,-6.347 19.68,-6.831c-2.25,3.819 -16.94,8.821 -19.68,6.831z" fill="#DFEEEF"/>
<path id="Vector_560" d="M83.9865,52.836c0,0 3.01,14.136 0,26.783c-3.02,12.648 -6.03,32.657 -5.6,44.921c0.43,12.264 0.86,33.78 1.51,36.792c0.64,3.012 10.11,8.391 19.79,6.455c9.69,-1.937 9.9,-6.025 9.9,-6.025c0,0 -4.73,-23.452 -10.54,-40.88c-5.81,-17.427 0.43,-23.667 2.58,-36.576c2.15,-12.91 0.22,-24.313 0.22,-24.313c0,0 -14.49,-6.282 -17.86,-7.157z" fill="#F0F6F7"/>
<path id="Vector_561" d="M83.9865,52.836c0,0 3.01,14.136 0,26.783c-3.02,12.648 -5.15,32.083 -4.72,44.347c0.43,12.264 2.2,33.421 2.85,36.434c0.64,3.012 7.89,9.323 17.57,7.387c9.69,-1.937 9.9,-6.025 9.9,-6.025c0,0 -4.73,-23.452 -10.54,-40.88c-5.81,-17.427 0.43,-23.667 2.58,-36.576c2.15,-12.91 0.21,-24.313 0.21,-24.313c0,0 -14.48,-6.282 -17.85,-7.157z" fill="white"/>
<path id="Vector_562" d="M83.9765,103.914c0,0.846 -0.68,1.532 -1.53,1.532c-0.85,0 -1.53,-0.686 -1.53,-1.532c0,-0.846 0.68,-1.532 1.53,-1.532c0.85,0 1.53,0.686 1.53,1.532z" fill="#DFEEEF"/>
<path id="Vector_563" d="M81.5265,130.942c0.85,0 1.53,-0.685 1.53,-1.531c0,-0.846 -0.68,-1.532 -1.53,-1.532c-0.84,0 -1.53,0.686 -1.53,1.532c0,0.846 0.69,1.531 1.53,1.531z" fill="#DFEEEF"/>
<path id="Vector_564" d="M84.5965,154.687c0,0.846 -0.69,1.531 -1.54,1.531c-0.84,0 -1.53,-0.685 -1.53,-1.531c0,-0.846 0.69,-1.532 1.53,-1.532c0.85,0 1.54,0.686 1.54,1.532z" fill="#DFEEEF"/>
<path id="Vector_565" d="M99.0465,120.882c-5.81,-17.428 0.43,-23.667 2.58,-36.577c-2.15,12.91 -15.99,21.853 -7.66,38.226c8.41,16.539 11.26,37.961 11.86,43.245c3.65,-1.905 3.76,-4.014 3.76,-4.014c0,0 -4.73,-23.452 -10.54,-40.88z" fill="#F0F6F7"/>
<path id="Vector_566" d="M87.6865,136.911c0,0 4.48,5.282 17.92,7.267c-10.33,-3.824 -17.92,-7.267 -17.92,-7.267z" fill="#DFEEEF"/>
<g id="Group_460">
<path id="Vector_567" d="M67.7465,50.284c0,0 -2.59,8.202 1.92,21.004c4.52,12.802 12.49,23.6 10.22,33.05c-1.03,-6.235 -5.6,-13.105 -12.49,-18.054c-6.88,-4.948 -9.76,-12.705 -9.76,-12.705l8.16,-5.411l-8.89,-1.255c0,0 4.32,-9.591 5.34,-11.546c1.83,-3.514 5.5,-5.083 5.5,-5.083z" fill="#DFEEEF"/>
<path id="Vector_568" d="M67.7465,50.284c0,0 -2.59,8.202 1.92,21.004c4.52,12.802 12.24,19.828 10.62,30.149c-1.94,-5.499 -6.1,-11.43 -12.98,-16.379c-6.89,-4.949 -9.22,-15.24 -9.22,-15.24l7.71,-1.65l-8.64,-3.165c0,0 4.07,-7.681 5.09,-9.636c1.83,-3.514 5.5,-5.083 5.5,-5.083z" fill="#F0F6F7"/>
<path id="Vector_569" d="M81.4065,50.534c0,0 3.89,7.869 3.49,17.258c-0.41,9.39 -1.35,12.91 -2.59,17.321c-1.23,4.41 -2.17,10.605 -3.04,22.324c2.24,-13.879 10.51,-18.847 13.66,-27.221c2.69,-7.148 3.17,-9.718 3.17,-9.718l-6.38,-3.333l4.73,-1.578l-5.09,-10.113c0,0 -4.52,-4.39 -7.95,-4.94z" fill="#DFEEEF"/>
<path id="Vector_570" d="M81.4065,50.534c0,0 3.89,7.869 3.49,17.258c-0.41,9.39 -1.35,12.91 -2.59,17.321c-1.23,4.41 -2.17,10.605 -3.04,22.324c2.24,-13.879 9.95,-19.443 13.1,-27.818c2.69,-7.147 3.23,-12.741 3.23,-12.741l-5.88,0.287l4.8,-3.658l-5.16,-8.032c0,-0.001 -4.52,-4.391 -7.95,-4.941z" fill="#F0F6F7"/>
</g>
</g>
</g>
<path id="Vector_571" d="M102.5865,63.22c0,0 -3.5,5.766 -2.98,13.45c0.53,7.684 0.19,20.222 -2.72,28.075c5.49,-11.08 5.6,-16.889 4.84,-21.946c-0.75,-5.056 -2.15,-12.371 0.86,-19.579z" fill="#F0F6F7"/>
<g id="Group_461">
<path id="Vector_572" d="M101.8865,59.993c0,0 3.65,1.721 4.51,7.315c0.86,5.594 1.53,7.638 4.05,12.157c2.52,4.518 3.08,9.215 5.16,19.399c-5.24,6.741 -13.72,3.515 -13.72,3.515c0,0 -0.08,-10.543 -1.55,-16.998c-1.47,-6.454 -0.61,-23.452 1.55,-25.388z" fill="white"/>
<path id="Vector_573" d="M100.9265,62.086c0,0 -1.94,15.074 0,25.705c-0.03,5.455 -0.86,7.884 -0.86,7.884c0,0 -3.84,-21.852 0.86,-33.589z" fill="#F0F6F7"/>
<g id="Group_462">
<path id="Vector_574" d="M102.7765,111.198c0,0 -1.39,6.723 -1.44,8.821c-0.05,2.098 2.42,3.344 4.77,3.093c2.36,-0.251 3.84,-3.075 4.33,-6.015c0.48,-2.941 -0.26,-10.794 -2.61,-11.601c-2.34,-0.807 -3.32,2.801 -3.39,3.31c-0.08,0.509 -1.66,2.392 -1.66,2.392z" fill="#C6E2E5"/>
<path id="Vector_575" d="M101.1865,118.731c0,0 3.45,2.042 8.4,-4.197c4.95,-6.24 -3.27,-8.354 -3.27,-8.354l-3.47,3.989z" fill="#CB7663"/>
<path id="Vector_576" d="M105.3865,109.658c0,0 2.03,6.579 -1.58,9.237c-0.43,0.09 -1.14,0.148 -1.14,0.148c0,0 0.96,0.513 2.93,0.333c1.98,-0.179 2.69,-2.187 3.16,-3.801c0.47,-1.614 -0.54,-6.096 -3.37,-5.917z" fill="#0F2C46"/>
<path id="Vector_577" d="M104.9265,109.315c0,0 2.75,2.831 2.5,8.923c-0.05,1.002 -1.72,5.206 -2.79,4.847c2.71,0.86 4.88,-0.574 6.46,-3.084c1.58,-2.51 2.31,-3.873 4.23,-6.383c1.92,-2.51 1.92,-3.873 1.92,-7.459c0,-3.586 -1.5,-5.144 -1.64,-7.296c-0.15,-2.151 -11.15,0.685 -11.4,3.263c-0.24,2.58 -1.5,5.611 0.72,7.189z" fill="white"/>
<path id="Vector_578" d="M103.6365,105.379c0.57,0.299 7.13,-0.767 8.28,5.341c1.32,0.696 1.68,-1.886 0.75,-3.894c-0.93,-2.009 -5.61,-2.797 -5.61,-2.797c5.18,-0.717 7.26,-0.431 8.55,1.649c-1.44,-4.231 -7.04,-4.59 -9.18,-3.299c2.65,-5.235 6.96,-4.805 6.96,-4.805c-1.8,-1.434 -7.4,0.477 -9.33,3.322c-1.93,2.845 -0.42,4.483 -0.42,4.483z" fill="#F0F6F7"/>
<g id="Group_463">
<g id="Group_464">
<g id="Group_465">
<path id="Vector_579" d="M99.4565,125.831l-7.7,14.2l10.99,-53.789l7.31,-10.543z" fill="#0C2338"/>
<path id="Vector_580" d="M88.8665,139.171l11.47,-53.789l7.75,-10.328l1.97,0.646l-7.31,10.542l-10.99,53.789z" fill="#0F2C46"/>
</g>
</g>
<path id="Vector_581" d="M105.2865,114.786c0,0 0.77,-2.635 -0.09,-6.006c-0.86,-3.371 -0.02,-3.174 -0.91,-5.11c-0.9,-1.936 0.32,-3.837 -0.18,-4.554c-0.5,-0.718 -2.51,0.107 -2.83,2.33c-0.33,2.224 0.64,2.152 0.35,3.802c-0.28,1.649 -0.57,2.617 -1.07,3.048c-0.5,0.43 -4.94,-0.505 -4.94,-0.505l0.26,-1.501c0,0 -1.31,-0.361 -2.24,0.966c-0.93,1.327 -0.47,3.12 -0.47,3.12c-1.4,0.466 -1.33,2.581 -0.75,3.191c-1.18,1.614 -0.39,3.371 -0.39,3.371c-0.58,1.004 -0.15,2.653 0.5,3.263c0.64,0.609 5.09,1.506 6.52,1.219c1.44,-0.287 1.62,-1.219 2.23,-2.331c0.61,-1.111 1.18,-1.183 2.11,-2.295c0.93,-1.111 1.47,-0.468 1.9,-2.008z" fill="#D3826F"/>
<path id="Vector_582" d="M105.2865,114.786c0,0 0.77,-2.635 -0.09,-6.006c-0.86,-3.371 -0.02,-3.174 -0.91,-5.11c-0.9,-1.936 0.32,-3.837 -0.18,-4.554c-0.5,-0.718 -2.51,0.107 -2.83,2.33c-0.33,2.224 1.6,2.43 1.31,4.079c-0.28,1.65 -0.49,2.475 -0.99,2.905c-0.5,0.43 -5.98,-0.64 -5.98,-0.64l0.26,-1.501c0,0 -1.31,-0.361 -2.24,0.966c-0.93,1.327 -0.47,3.12 -0.47,3.12c-1.4,0.466 -1.33,2.582 -0.75,3.192c-1.18,1.613 -0.39,3.37 -0.39,3.37c-0.58,1.004 -0.15,2.654 0.5,3.264c0.64,0.609 5.09,1.506 6.52,1.219c1.44,-0.287 1.62,-1.219 2.23,-2.331c0.61,-1.112 1.18,-1.183 2.11,-2.295c0.93,-1.111 1.47,-0.468 1.9,-2.008z" fill="#DB907B"/>
<path id="Vector_583" d="M93.1665,110.375c0,0 0.79,1.417 2.83,1.982c2.05,0.565 3.19,0.242 3.46,0.672c0.28,0.43 -0.12,0.296 -1.49,0.188c-1.38,-0.108 -4.32,-0.735 -4.8,-2.842z" fill="#D3826F"/>
<path id="Vector_584" d="M92.4165,113.567c0,0 0.84,1.049 2.78,1.694c1.93,0.646 3.28,0.108 3.49,0.646c0.22,0.538 -1.72,0.376 -3.31,-0.135c-1.58,-0.511 -3.05,-1.775 -2.96,-2.205z" fill="#D3826F"/>
<path id="Vector_585" d="M92.0265,116.938c0,0 0.83,0.798 2.55,1.201c1.72,0.403 2.82,-0.108 3.06,0.242c0.24,0.349 -0.29,0.672 -2.04,0.43c-1.75,-0.242 -3.34,-0.997 -3.57,-1.873z" fill="#D3826F"/>
</g>
</g>
</g>
<path id="Vector_586" d="M55.6865,128.843c0,0 1.94,3.873 5.7,5.487c3.77,1.613 6.13,4.518 8.07,7.853c1.94,3.335 -13.13,4.626 -13.13,4.626l-6.45,-9.467z" fill="#DB907B"/>
<g id="Group_466">
<g id="Group_467">
<g id="Group_468">
<path id="Vector_587" d="M59.1465,132.987c-2.29,-1.801 -3.46,-4.144 -3.46,-4.144l-5.81,8.499l6.45,9.466c0,0 0.02,-0.001 0.04,-0.003c-0.28,-0.524 -0.55,-1.06 -0.79,-1.61c-2.07,-4.135 -0.56,-9.858 3.57,-12.208z" fill="#D3826F"/>
<path id="Vector_588" d="M57.1565,129.668l2.08,2.582c0,0 -2.87,0.729 -5.09,4.41c-2.23,3.681 -1.59,4.609 -1.59,4.609l-2.97,-2.457c0,0 -0.84,-6.903 7.57,-9.144z" fill="#0F2C46"/>
</g>
<path id="Vector_589" d="M41.3065,63.722c0,0 -13.48,32.722 -14.13,46.447c-0.65,13.725 7.1,19.319 9.9,22.547c2.79,3.227 12.05,8.821 12.05,8.821c1.86,-9.323 9.25,-11.618 9.25,-11.618c0,0 -9.25,-11.09 -12.91,-15.658c-3.66,-4.567 1.21,-11.315 3.29,-19.345c2.09,-8.029 -3.21,-31.552 -7.45,-31.194z" fill="white"/>
<path id="Vector_590" d="M34.7765,111.559c-0.18,0.108 6.46,-1.408 10.69,2.702c-1.32,-3.631 -5.74,-5.571 -10.69,-2.702z" fill="#F0F6F7"/>
<path id="Vector_591" d="M42.1265,129.513c-2.8,-3.227 -10.55,-8.821 -9.9,-22.546c0.47,-10.132 7.95,-30.614 11.83,-40.645c-0.91,-1.683 -1.85,-2.676 -2.75,-2.6c0,0 -13.48,32.722 -14.13,46.447c-0.65,13.725 7.1,19.319 9.9,22.547c2.79,3.227 12.05,8.821 12.05,8.821c0.41,-2.055 1.09,-3.767 1.9,-5.19c-2.96,-1.923 -7.17,-4.833 -8.9,-6.834z" fill="#F0F6F7"/>
</g>
<path id="Vector_592" d="M51.7065,144.657c0,0 12.47,-0.424 19.68,-6.831c1.94,4.357 2.05,5.54 2.05,5.54c0,0 -11.51,7.1 -20.44,6.454c-0.54,-2.043 -1.29,-5.163 -1.29,-5.163z" fill="white"/>
</g>
<g id="Group_469">
<path id="Vector_593" d="M92.2665,23.609c-0.12,-2.152 -0.46,-4.268 -1.45,-6.416c-1.54,-3.362 -4.36,-5.623 -7.66,-7.152c-3.37,-1.559 -12.29,-3.064 -14.59,1.234c-6.2,-1.192 -8.99,4.39 -10.46,9.432c-0.92,3.17 -1.46,6.45 -2.5,9.583c-1.07,3.205 -2.58,6.246 -3.57,9.481c-0.08,0.278 -1.06,4.669 -0.71,4.626c0.17,-0.021 14.51,2.796 15.58,-15.047c0.21,-3.516 0.7,-7.79 3.9,-10.029c2.43,-1.697 5.99,-0.753 8.62,0.441c2.5,-1.301 5.74,-2.062 7.9,0.259c3.17,3.42 1.83,9.072 2.66,13.285c0.43,2.184 1.66,3.795 3.44,5.035c-0.65,-2.722 -0.97,-5.519 -1.06,-8.314c-0.08,-2.215 0.02,-4.334 -0.1,-6.418z" fill="#210900"/>
<path id="Vector_594" d="M93.7165,38.54c0.04,0.038 0.09,0.069 0.13,0.086c-0.04,-0.028 -0.08,-0.058 -0.13,-0.086z" fill="#210900"/>
<path id="Vector_595" d="M93.6665,38.488v0.017c0.02,0.012 0.04,0.023 0.05,0.035c-0.01,-0.016 -0.03,-0.032 -0.05,-0.052z" fill="#210900"/>
</g>
<path id="Vector_596" d="M73.2965,12.304c0,0 -5.9,0.222 -6.35,19.131c-0.36,15.604 -15.8,14.293 -15.62,12.961c0,0 10.65,0.428 12.43,-11.097c0.64,-4.172 -0.58,-20.995 9.54,-20.995z" fill="#360D00"/>
<g id="Group_470">
<path id="Vector_597" d="M90.8165,17.193c-1.54,-3.362 -4.36,-5.624 -7.66,-7.153c-3.37,-1.558 -12.29,-3.063 -14.59,1.235c14.72,-4.83 23.24,8.066 22.25,5.918z" fill="#360D00"/>
</g>
<path id="Vector_598" d="M65.3065,14.302c-1.08,1.028 -1.92,2.285 -2.52,3.646c-0.6,1.362 -0.97,2.815 -1.2,4.281c-0.47,2.941 -0.42,5.928 -0.52,8.903c-0.05,1.487 -0.09,2.986 -0.39,4.46c-0.29,1.47 -0.89,2.904 -1.84,4.082c-0.94,1.187 -2.13,2.142 -3.41,2.922c-1.28,0.783 -2.65,1.401 -4.04,1.959c-0.08,0.035 -0.18,-0.007 -0.22,-0.095c-0.03,-0.087 0.01,-0.186 0.1,-0.221v-0.001c1.38,-0.541 2.74,-1.139 4.01,-1.897c1.26,-0.755 2.44,-1.678 3.36,-2.826c0.93,-1.137 1.53,-2.522 1.83,-3.966c0.31,-1.446 0.36,-2.938 0.43,-4.423c0.13,-2.969 0.11,-5.964 0.6,-8.911c0.25,-1.468 0.63,-2.924 1.25,-4.284c0.61,-1.36 1.47,-2.611 2.56,-3.629z" fill="#360D00"/>
</g>
<g id="Group_471">
<g id="Group_472">
<g id="Group_473">
<path id="Vector_599" d="M60.5765,59.519c-1.55,5.932 0.4,11.36 2.52,15.888c4.72,10.103 3.9,14.146 3.35,16.821c-0.03,0.18 -0.07,0.354 -0.1,0.522c-0.04,0.188 0.09,0.368 0.27,0.404c0.03,0.004 0.05,0.006 0.07,0.006c0.16,0 0.31,-0.116 0.34,-0.281c0.03,-0.165 0.06,-0.336 0.1,-0.513c0.56,-2.765 1.41,-6.941 -3.41,-17.25c-2.06,-4.417 -3.97,-9.703 -2.48,-15.423c1.52,-5.816 4.93,-8.736 6.71,-9.908l0.31,-1.008c-1.53,0.841 -5.87,3.774 -7.68,10.742z" fill="#07003D"/>
</g>
<g id="Group_474">
<path id="Vector_600" d="M67.6465,118.588c-0.19,0 -0.34,-0.149 -0.34,-0.337c-0.01,-0.19 0.14,-0.349 0.33,-0.353c1.16,-0.028 2.14,-0.283 2.22,-0.483c0.1,-0.651 0.68,-14.786 0.57,-17.963c-0.09,-2.462 -0.74,-5.533 -3.27,-6.182c-0.92,-0.235 -1.84,-0.092 -2.64,0.414c-1.18,0.741 -2.04,2.177 -2.41,4.04c-0.77,3.797 -1.67,18.258 -1.33,19.18c0.25,0.386 1.5,0.684 2.31,0.765c0.19,0.019 0.33,0.188 0.31,0.378c-0.02,0.19 -0.18,0.326 -0.38,0.309c-0.38,-0.038 -2.31,-0.271 -2.83,-1.108c-0.6,-0.951 0.62,-16.553 1.24,-19.659c0.41,-2.052 1.38,-3.646 2.72,-4.489c0.97,-0.609 2.07,-0.781 3.18,-0.498c2.33,0.597 3.64,2.957 3.79,6.825c0.11,3.195 -0.48,17.44 -0.58,18.101c-0.15,0.899 -2.06,1.04 -2.88,1.06z" fill="#07003D"/>
</g>
<path id="Vector_601" d="M62.0665,117.682c0,0 0.07,-0.313 0.33,-0.281c0.26,0.033 0.99,0.097 1.15,0.281c0.16,0.183 0,0.85 -0.13,0.942c-0.13,0.093 -0.96,-0.123 -1.21,-0.155c-0.24,-0.032 -0.21,-0.518 -0.14,-0.787z" fill="#66657A"/>
<path id="Vector_602" d="M68.6965,117.899c0,0 -0.04,-0.258 -0.3,-0.226c-0.26,0.033 -1.01,0.043 -1.18,0.226c-0.16,0.183 0.01,0.814 0.14,0.907c0.13,0.092 0.95,-0.088 1.2,-0.12c0.25,-0.033 0.22,-0.518 0.14,-0.787z" fill="#66657A"/>
<g id="Group_475">
<path id="Vector_603" d="M67.3665,92.435c-1.16,-0.296 -2.3,-0.116 -3.31,0.518c-1.38,0.869 -2.38,2.504 -2.8,4.602c-0.04,0.216 -0.09,0.524 -0.14,0.893l1.02,0.067c0.05,-0.285 0.09,-0.542 0.14,-0.756c0.36,-1.817 1.19,-3.212 2.33,-3.929c0.76,-0.48 1.63,-0.616 2.5,-0.392c2.3,0.587 2.98,3.284 3.12,5.605l1.04,0.068c-0.2,-3.766 -1.55,-6.075 -3.9,-6.676z" fill="#66657A"/>
</g>
</g>
<g id="Group_476">
<g id="Group_477">
<path id="Vector_604" d="M92.4565,66.963c-3.86,-15.257 -9.62,-17.258 -11.38,-17.504l0.23,0.754c1.86,0.447 6.95,2.96 10.48,16.919c4.41,17.409 0.06,27.858 0.02,27.962l0.63,0.272c0.05,-0.105 4.49,-10.749 0.02,-28.403z" fill="#07003D"/>
</g>
<path id="Vector_605" d="M92.1165,98.177c1.38,0 2.5,-1.12 2.5,-2.502c0,-1.381 -1.12,-2.501 -2.5,-2.501c-1.38,0 -2.5,1.12 -2.5,2.501c0,1.382 1.12,2.502 2.5,2.502z" fill="#66657A"/>
<path id="Vector_606" d="M93.5765,95.675c0,0.81 -0.65,1.467 -1.46,1.467c-0.81,0 -1.47,-0.657 -1.47,-1.467c0,-0.809 0.66,-1.466 1.47,-1.466c0.81,0 1.46,0.657 1.46,1.466z" fill="#8C8C9B"/>
</g>
</g>
</g>
</g>
</g>
</g></svg>