<svg viewBox="0 0 19.3781 15.6273" fill="none" xmlns="http://www.w3.org/2000/svg" x="0" y="0"><path id="Vector_116" d="M4.1296,0.3158c-0.08,-0.093 -0.18,-0.169 -0.29,-0.223c-0.11,-0.054 -0.23,-0.085 -0.36,-0.091c-0.12,-0.007 -0.25,0.011 -0.36,0.052c-0.12,0.042 -0.23,0.106 -0.32,0.19c-0.09,0.083 -0.16,0.184 -0.22,0.297c-0.05,0.112 -0.08,0.234 -0.08,0.358c-0.01,0.124 0.01,0.247 0.05,0.364c0.05,0.116 0.11,0.223 0.2,0.313l1.25,1.379c-2.7,1.793 -3.86,4.364 -3.92,4.486c-0.05,0.12 -0.08,0.249 -0.08,0.38c0,0.132 0.03,0.261 0.08,0.381c0.03,0.064 0.71,1.583 2.23,3.095c2.02,2.019 4.57,3.087 7.38,3.087c1.37,0.007 2.72,-0.259 3.98,-0.782l1.57,1.727c0.17,0.18 0.4,0.287 0.65,0.298c0.25,0.01 0.49,-0.077 0.67,-0.243c0.18,-0.166 0.29,-0.397 0.31,-0.644c0.01,-0.246 -0.07,-0.488 -0.24,-0.672zM9.6896,12.5088c-2.31,0 -4.33,-0.839 -6.01,-2.491c-0.66,-0.652 -1.22,-1.392 -1.68,-2.197c0.41,-0.727 1.46,-2.336 3.28,-3.46l7.04,7.743c-0.85,0.271 -1.74,0.407 -2.63,0.405zM19.2996,8.2018c-0.03,0.064 -0.7,1.563 -2.19,3.06c-0.08,0.094 -0.19,0.17 -0.3,0.223c-0.12,0.054 -0.24,0.083 -0.37,0.086c-0.13,0.004 -0.25,-0.019 -0.37,-0.065c-0.12,-0.047 -0.23,-0.117 -0.32,-0.207c-0.09,-0.09 -0.16,-0.196 -0.2,-0.314c-0.05,-0.118 -0.07,-0.244 -0.07,-0.371c0,-0.127 0.03,-0.252 0.08,-0.368c0.05,-0.115 0.13,-0.219 0.22,-0.305c0.63,-0.634 1.17,-1.346 1.6,-2.12c-0.46,-0.806 -1.02,-1.545 -1.68,-2.197c-1.68,-1.652 -3.7,-2.49 -6.01,-2.49c-0.26,0 -0.52,0.01 -0.78,0.032c-0.13,0.014 -0.25,0.002 -0.37,-0.034c-0.12,-0.036 -0.23,-0.095 -0.33,-0.175c-0.09,-0.08 -0.17,-0.178 -0.23,-0.288c-0.06,-0.111 -0.09,-0.232 -0.11,-0.357c-0.01,-0.124 0.01,-0.25 0.05,-0.368c0.04,-0.119 0.1,-0.229 0.18,-0.323c0.08,-0.095 0.18,-0.172 0.29,-0.227c0.12,-0.056 0.24,-0.088 0.36,-0.096c0.31,-0.026 0.63,-0.039 0.94,-0.039c2.81,0 5.36,1.067 7.38,3.087c1.51,1.512 2.2,3.031 2.23,3.095c0.05,0.119 0.08,0.249 0.08,0.38c0,0.131 -0.03,0.261 -0.08,0.381z" fill="currentColor"/></svg>