<svg viewBox="0 0 300 300" fill="none" xmlns="http://www.w3.org/2000/svg" x="0" y="0"><g id="Frame 19">
<rect x="1" y="1" width="298" height="298" rx="149" fill="#FEFEFE"/>
<rect x="1" y="1" width="298" height="298" rx="149" stroke="#229A94" stroke-width="2"/>
<circle id="Ellipse 5" cx="150" cy="150" r="124.167" fill="#EDEEFE" stroke="#229A94" stroke-width="1.66667"/>
<g id="button-icon">
<g id="icon_8">
<path d="M125,108.333c-9.2,0 -16.67,7.462 -16.67,16.667v8.333c0,2.302 1.87,4.167 4.17,4.167c2.3,0 4.17,-1.865 4.17,-4.167v-8.333c0,-4.602 3.73,-8.333 8.33,-8.333h8.33c2.3,0 4.17,-1.866 4.17,-4.167c0,-2.301 -1.87,-4.167 -4.17,-4.167z" fill="#229A94"/>
<path d="M175,108.333c9.2,0 16.67,7.462 16.67,16.667v8.333c0,2.302 -1.87,4.167 -4.17,4.167c-2.3,0 -4.17,-1.865 -4.17,-4.167v-8.333c0,-4.602 -3.73,-8.333 -8.33,-8.333h-8.33c-2.3,0 -4.17,-1.866 -4.17,-4.167c0,-2.301 1.87,-4.167 4.17,-4.167z" fill="#229A94"/>
<path d="M108.33,175c0,9.205 7.47,16.667 16.67,16.667h8.33c2.3,0 4.17,-1.866 4.17,-4.167c0,-2.301 -1.87,-4.166 -4.17,-4.166h-8.33c-4.6,0 -8.33,-3.731 -8.33,-8.334v-8.333c0,-2.301 -1.87,-4.167 -4.17,-4.167c-2.3,0 -4.17,1.866 -4.17,4.167z" fill="#229A94"/>
<path d="M175,191.667c9.2,0 16.67,-7.462 16.67,-16.667v-8.333c0,-2.301 -1.87,-4.167 -4.17,-4.167c-2.3,0 -4.17,1.866 -4.17,4.167v8.333c0,4.603 -3.73,8.334 -8.33,8.334h-8.33c-2.3,0 -4.17,1.865 -4.17,4.166c0,2.301 1.87,4.167 4.17,4.167z" fill="#229A94"/>
<path d="M128.12,134.375c0,2.877 2.34,5.208 5.21,5.208c2.88,0 5.21,-2.331 5.21,-5.208c0,-2.876 -2.33,-5.208 -5.21,-5.208c-2.87,0 -5.21,2.332 -5.21,5.208z" fill="#229A94"/>
<path d="M166.67,139.583c-2.88,0 -5.21,-2.331 -5.21,-5.208c0,-2.876 2.33,-5.208 5.21,-5.208c2.87,0 5.2,2.332 5.2,5.208c0,2.877 -2.33,5.208 -5.2,5.208z" fill="#229A94"/>
<path d="M137.94,164.803c1.03,-2.058 3.53,-2.892 5.59,-1.863c4.07,2.037 8.87,2.037 12.94,0c2.06,-1.029 4.56,-0.195 5.59,1.863c1.03,2.059 0.19,4.561 -1.86,5.591c-6.42,3.209 -13.98,3.209 -20.4,0c-2.06,-1.03 -2.89,-3.532 -1.86,-5.591z" fill="#229A94"/>
<path d="M153.73,141.887c-1.03,-2.058 -3.54,-2.893 -5.59,-1.864c-2.06,1.03 -2.9,3.532 -1.87,5.591l2.2,4.393c-0.35,0.611 -0.55,1.32 -0.55,2.076c0,2.302 1.86,4.167 4.16,4.167h0.74c3.72,0 6.13,-3.911 4.47,-7.236z" fill="#229A94"/>
</g>
</g>
</g></svg>