<svg viewBox="0 0 8.3333 16.6667" fill="none" xmlns="http://www.w3.org/2000/svg" xmlns:xlink="http://www.w3.org/1999/xlink" x="0" y="0"><path id="Vector_3" d="M-0.0003,0v1.667h0.834v11.666c0,0.884 0.351,1.732 0.976,2.357c0.625,0.625 1.473,0.977 2.357,0.977c0.884,0 1.732,-0.352 2.357,-0.977c0.625,-0.625 0.976,-1.473 0.976,-2.357v-11.666h0.834v-1.667zM3.3337,11.667c-0.5,0 -0.834,-0.334 -0.834,-0.834c0,-0.5 0.334,-0.833 0.834,-0.833c0.5,0 0.833,0.333 0.833,0.833c0,0.5 -0.333,0.834 -0.833,0.834zM4.9997,8.333c-0.5,0 -0.833,-0.333 -0.833,-0.833c0,-0.5 0.333,-0.833 0.833,-0.833c0.5,0 0.834,0.333 0.834,0.833c0,0.5 -0.334,0.833 -0.834,0.833zM5.8337,4.167h-3.334v-2.5h3.334z" fill="currentColor"/></svg>