<svg viewBox="0 0 55.1351 60.0001" fill="none" xmlns="http://www.w3.org/2000/svg" x="0" y="0"><g id="Group 1">
<path id="Vector 1" d="M0,57.288c0,0 0,-10.729 11.078,-15.242c4.638,-1.89 8.18,-0.484 13.384,0c6.394,0.595 13.397,-2.156 14.424,1.933c1.289,5.13 -15.135,3.866 -15.019,4.387c0.115,0.52 8.402,1.859 12.714,0.52c6.468,-2.007 13.606,-16.137 17.993,-13.16c3.792,2.573 -12.342,23.625 -27.064,24.239c-7.063,0.294 -8.997,-1.323 -14.796,-1.859c-4.954,-0.458 -12.714,-0.818 -12.714,-0.818z" fill="#1A1A1A"/>
<path id="Vector 2" d="M43.356,10.223h-35.951c-3.674,0 -6.498,3.252 -5.982,6.89l2.588,18.253c0.422,2.979 2.973,5.193 5.982,5.193h30.916c3.027,0 5.586,-2.239 5.988,-5.239l2.447,-18.252c0.486,-3.624 -2.332,-6.845 -5.988,-6.845z" fill="#229A94"/>
<rect id="Rectangle 14_3" x="17.547000000000025" y="22.417" width="15.6138" height="13.0859" rx="4.83314" fill="#FEFEFE"/>
<path id="Vector 3_3" d="M6.097,8.513h38.365c0,0 0.269,-2.709 -0.743,-3.866c-1.562,-1.784 -16.061,-0.446 -17.473,-0.967c-0.52,-0.191 -2.528,-3.197 -3.717,-3.42c-1.19,-0.223 -13.681,-0.595 -14.871,0.372c-1.189,0.967 -1.561,7.881 -1.561,7.881z" fill="#1A1A1A"/>
<path id="Vector 3_4" d="M25.726,17.139c3.866,0.446 3.031,5.316 3.031,5.316h2.379c0,0 0.835,-7.324 -5.41,-7.696c-6.245,-0.371 -6.04,7.696 -6.04,7.696h2.231c0,0 -0.504,-5.316 3.809,-5.316z" fill="#FEFEFE"/>
<g id="Vector 3_5">
<path d="M24.462,29.183v2.9h2.007v-2.9c0,0 0.829,-1.103 0.669,-1.858c-0.182,-0.866 -0.826,-1.527 -1.71,-1.487c-0.841,0.038 -1.378,0.665 -1.561,1.487c-0.166,0.744 0.595,1.858 0.595,1.858z" fill="#229A94"/>
</g>
</g></svg>