<svg viewBox="0 0 15.8922 15.8922" fill="none" xmlns="http://www.w3.org/2000/svg" x="0" y="0"><path id="Vector_46" d="M1.4633,7.3543l5.891,-5.891c0.939,-0.937 2.211,-1.463 3.538,-1.463c1.326,0 2.598,0.526 3.537,1.463c1.95,1.95 1.95,5.116 0,7.075l-5.891,5.891c-1.959,1.95 -5.125,1.95 -7.075,0c-0.937,-0.939 -1.463,-2.211 -1.463,-3.537c0,-1.327 0.526,-2.599 1.463,-3.538zM2.6463,8.5383c-0.415,0.412 -0.714,0.926 -0.866,1.491c-0.153,0.565 -0.153,1.16 -0.001,1.725l4.992,-4.983l3.533,3.533l2.942,-2.95c0.311,-0.308 0.557,-0.675 0.725,-1.079c0.169,-0.404 0.255,-0.837 0.255,-1.275c0,-0.437 -0.086,-0.871 -0.255,-1.275c-0.168,-0.404 -0.414,-0.771 -0.725,-1.079c-0.308,-0.311 -0.675,-0.557 -1.079,-0.725c-0.404,-0.169 -0.837,-0.255 -1.275,-0.255c-0.438,0 -0.871,0.086 -1.275,0.255c-0.404,0.168 -0.771,0.414 -1.079,0.725z" fill="currentColor"/></svg>