<svg viewBox="0 0 520 478" fill="none" xmlns="http://www.w3.org/2000/svg" x="0" y="0"><g id="Group 14">
<g id="Group" opacity="0.2">
<path id="Vector" d="M520,302.944c0,18.893 -1.192,42.025 -5.737,87.255c-3.591,35.848 -9.497,86.081 -9.712,87.801l-221.847,-1.01l-8.957,-0.047l-252.571,1.057c-17.212,-102.965 -21.176,-146.616 -21.176,-175.056c0,-31.906 4.229,-62.65 12.086,-91.529c0.948,-3.503 1.956,-6.994 3.016,-10.438c19.547,-63.716 57.197,-118.349 106.409,-154.453c40.1,-29.472 87.598,-46.524 138.51,-46.524c4.606,0 9.181,0.142 13.726,0.415c2.996,0.179 5.982,0.428 8.957,0.725c87.014,8.756 162.744,67.694 204.157,153.681v0.012c21.881,45.543 33.139,96.088 33.139,148.111z" fill="#B5BEC6"/>
</g>
<g id="Group_2" opacity="0.4">
<path id="Vector_2" d="M12.251,422.217c2.481,16.393 5.429,34.855 8.927,55.78l252.571,-1.056l8.957,0.047l221.847,1.009c0.277,-2.223 3.823,-32.692 6.345,-55.78z" fill="#9A9AE2"/>
</g>
<g id="Group_3" opacity="0.8">
<path id="Vector_3" d="M507.916,211.413h-67.002v210.804h-8.958v-210.804h-149.249v210.804h-8.958v-210.804h-152.236v210.804h-8.957v-210.804h-100.468c0.948,-3.503 1.957,-6.994 3.016,-10.438h97.452v-147.566c2.945,-2.374 5.931,-4.666 8.957,-6.887v154.453h152.236v-200.562c2.996,0.178 5.982,0.428 8.957,0.724v199.838h149.25v-125.277c3.047,3.135 6.043,6.353 8.958,9.666v115.611h63.985c1.061,3.456 2.069,6.923 3.017,10.438z" fill="white"/>
</g>
<g id="Group_4">
<g id="Group_5">
<path id="Vector_4" d="M333.077,474.858c-0.141,-0.486 -0.249,-0.95 -0.356,-1.412c-0.108,-0.463 -0.224,-0.935 -0.298,-1.375c-0.183,-0.907 -0.332,-1.781 -0.457,-2.645l-0.183,-1.285l-0.132,-1.251c-0.108,-0.851 -0.142,-1.645 -0.216,-2.462c-0.207,-3.232 -0.149,-6.269 0.083,-9.169c0.249,-2.896 0.689,-5.65 1.286,-8.292c0.605,-2.63 1.344,-5.163 2.364,-7.491c1.004,-2.343 2.315,-4.46 3.824,-6.424c1.518,-1.961 3.219,-3.79 4.886,-5.651c0.83,-0.925 1.651,-1.861 2.505,-2.778c0.855,-0.911 1.8,-1.752 2.821,-2.537c2.04,-1.582 4.471,-2.882 6.826,-4.228c1.162,-0.685 2.315,-1.374 3.368,-2.144c1.054,-0.761 2.017,-1.597 2.862,-2.513c0.855,-0.912 1.593,-1.908 2.224,-2.981c0.647,-1.068 1.169,-2.225 1.534,-3.491c0.365,-1.271 0.589,-2.645 0.68,-4.115c0.058,-0.727 0.067,-1.492 0.058,-2.267c0.009,-0.761 -0.033,-1.559 -0.058,-2.347c-0.133,-3.175 -0.406,-6.449 0,-9.231c0.183,-1.403 0.515,-2.697 1.004,-3.879c0.473,-1.19 1.153,-2.23 1.858,-3.255c1.411,-2.04 3.061,-3.901 4.969,-5.579c1.924,-1.667 4.097,-3.145 6.645,-4.355c0.638,-0.303 1.285,-0.595 1.982,-0.85l1.037,-0.392l1.095,-0.349c0.357,-0.123 0.763,-0.213 1.145,-0.317c0.381,-0.109 0.788,-0.198 1.194,-0.284c0.39,-0.094 0.838,-0.151 1.269,-0.222l0.647,-0.099c0.216,-0.033 0.465,-0.043 0.698,-0.066l2.513,1.848c0.083,0.25 0.174,0.514 0.249,0.755l0.199,0.727c0.133,0.482 0.282,0.974 0.381,1.432c0.108,0.462 0.216,0.926 0.298,1.37c0.084,0.444 0.183,0.907 0.242,1.336l0.206,1.3l0.142,1.261c0.108,0.845 0.157,1.654 0.207,2.456c0.157,3.193 -0.05,6.118 -0.506,8.858c-0.473,2.73 -1.203,5.272 -2.165,7.638c-0.498,1.181 -1.004,2.343 -1.725,3.354c-0.706,1.021 -1.56,1.932 -2.564,2.731c-1.982,1.625 -4.628,2.758 -7.15,3.987c-0.622,0.311 -1.261,0.614 -1.842,0.953c-0.605,0.327 -1.194,0.667 -1.733,1.04c-1.095,0.733 -2.065,1.559 -2.887,2.494c-0.821,0.936 -1.493,1.984 -2.04,3.119c-0.557,1.129 -1.013,2.334 -1.344,3.628c-0.34,1.284 -0.581,2.654 -0.714,4.096c-0.141,1.43 -0.166,2.946 -0.199,4.463c-0.025,3.057 0.017,6.165 -0.323,8.99c-0.166,1.418 -0.415,2.778 -0.747,4.072c-0.348,1.285 -0.714,2.551 -1.07,3.831c-0.721,2.546 -1.402,5.121 -2.265,7.563c-0.862,2.448 -1.941,4.734 -3.318,6.799c-1.36,2.073 -3.003,3.949 -4.778,5.725c-1.792,1.762 -3.725,3.415 -5.864,4.922c-2.141,1.507 -4.472,2.877 -7.06,4.054c-0.663,0.278 -1.294,0.585 -1.999,0.845l-1.029,0.396l-1.07,0.365c-0.729,0.241 -1.468,0.467 -2.239,0.661c-0.382,0.108 -0.797,0.189 -1.203,0.278c-0.407,0.09 -0.805,0.175 -1.245,0.237z" fill="#C7DDF3"/>
</g>
<g id="Group_6">
<path id="Vector_5" d="M328.963,473.927c-0.398,-0.514 -0.738,-1.014 -1.07,-1.511c-0.34,-0.506 -0.698,-1.006 -0.996,-1.502c-0.63,-0.992 -1.194,-1.975 -1.742,-2.952l-0.805,-1.461l-0.729,-1.455c-0.506,-0.968 -0.913,-1.917 -1.361,-2.882c-1.709,-3.821 -3.011,-7.567 -4.014,-11.261c-1.012,-3.695 -1.71,-7.332 -2.174,-10.922c-0.439,-3.591 -0.664,-7.138 -0.473,-10.61c0.174,-3.472 0.821,-6.863 1.792,-10.19c0.97,-3.325 2.231,-6.604 3.426,-9.887c0.605,-1.644 1.194,-3.287 1.817,-4.927c0.638,-1.634 1.418,-3.245 2.322,-4.833c1.775,-3.179 4.165,-6.245 6.429,-9.329c1.12,-1.549 2.223,-3.099 3.161,-4.681c0.953,-1.578 1.749,-3.185 2.38,-4.819c0.63,-1.64 1.079,-3.308 1.377,-5.007c0.299,-1.696 0.423,-3.43 0.299,-5.206c-0.125,-1.776 -0.465,-3.595 -1.012,-5.448c-0.257,-0.925 -0.598,-1.861 -0.954,-2.805c-0.332,-0.941 -0.739,-1.89 -1.12,-2.839c-1.601,-3.803 -3.401,-7.644 -4.156,-11.291c-0.407,-1.828 -0.581,-3.613 -0.514,-5.356c0.041,-1.744 0.397,-3.43 0.805,-5.111c0.804,-3.355 1.99,-6.647 3.575,-9.86c1.6,-3.212 3.591,-6.348 6.154,-9.381c0.656,-0.761 1.311,-1.513 2.058,-2.254l1.086,-1.115l1.187,-1.095c0.381,-0.369 0.829,-0.723 1.252,-1.082c0.415,-0.365 0.871,-0.719 1.327,-1.072c0.44,-0.355 0.963,-0.699 1.46,-1.044l0.747,-0.52c0.249,-0.175 0.547,-0.34 0.821,-0.505l3.907,0.722c0.216,0.255 0.448,0.521 0.639,0.775l0.572,0.76c0.381,0.511 0.788,1.025 1.112,1.522c0.34,0.505 0.68,1.006 0.979,1.497c0.298,0.497 0.638,0.996 0.904,1.483l0.829,1.469l0.746,1.451c0.507,0.973 0.938,1.928 1.353,2.881c1.634,3.808 2.696,7.511 3.367,11.145c0.656,3.627 0.897,7.18 0.78,10.666c-0.066,1.738 -0.174,3.472 -0.597,5.149c-0.398,1.682 -1.037,3.316 -1.908,4.908c-1.692,3.194 -4.421,6.199 -6.951,9.241c-0.623,0.76 -1.261,1.516 -1.825,2.29c-0.589,0.766 -1.153,1.54 -1.643,2.325c-1.012,1.569 -1.825,3.17 -2.414,4.819c-0.589,1.643 -0.937,3.329 -1.095,5.053c-0.174,1.725 -0.19,3.477 -0.024,5.259c0.165,1.785 0.497,3.599 0.978,5.441c0.481,1.843 1.12,3.714 1.767,5.588c1.336,3.752 2.787,7.532 3.642,11.192c0.439,1.837 0.746,3.647 0.92,5.432c0.158,1.786 0.274,3.558 0.415,5.34c0.265,3.555 0.597,7.122 0.631,10.637c0.041,3.515 -0.241,6.968 -1.004,10.337c-0.73,3.372 -1.891,6.664 -3.269,9.921c-1.385,3.244 -3.019,6.452 -4.96,9.602c-1.941,3.147 -4.173,6.241 -6.81,9.264c-0.681,0.747 -1.319,1.508 -2.058,2.249l-1.086,1.115l-1.145,1.101c-0.78,0.737 -1.576,1.465 -2.447,2.182c-0.415,0.359 -0.879,0.714 -1.335,1.068c-0.457,0.355 -0.913,0.708 -1.419,1.053z" fill="#C7DDF3"/>
</g>
<g id="Group_7">
<path id="Vector_6" d="M120.312,437.628c-0.509,-0.273 -0.964,-0.561 -1.419,-0.855c-0.458,-0.288 -0.928,-0.571 -1.345,-0.874c-0.868,-0.59 -1.679,-1.2 -2.47,-1.818l-1.163,-0.926l-1.108,-0.95c-0.754,-0.623 -1.407,-1.279 -2.113,-1.922c-2.712,-2.594 -5.048,-5.296 -7.117,-8.078c-2.064,-2.788 -3.835,-5.656 -5.393,-8.588c-1.532,-2.939 -2.87,-5.938 -3.811,-9.051c-0.961,-3.109 -1.489,-6.345 -1.704,-9.676c-0.218,-3.325 -0.174,-6.731 -0.182,-10.118c0,-1.696 -0.016,-3.388 0.004,-5.088c0.029,-1.705 0.195,-3.448 0.47,-5.224c0.54,-3.548 1.635,-7.261 2.628,-10.945c0.479,-1.834 0.945,-3.667 1.258,-5.457c0.324,-1.791 0.506,-3.539 0.527,-5.239c0.028,-1.706 -0.114,-3.358 -0.402,-4.969c-0.279,-1.611 -0.734,-3.175 -1.406,-4.673c-0.678,-1.498 -1.561,-2.933 -2.633,-4.312c-0.522,-0.696 -1.114,-1.366 -1.727,-2.037c-0.592,-0.675 -1.253,-1.327 -1.894,-1.984c-2.611,-2.626 -5.409,-5.191 -7.246,-8.045c-0.937,-1.417 -1.663,-2.899 -2.165,-4.45c-0.52,-1.54 -0.747,-3.17 -0.937,-4.809c-0.368,-3.283 -0.393,-6.665 -0.04,-10.161c0.368,-3.501 1.099,-7.105 2.368,-10.87c0.32,-0.94 0.656,-1.889 1.066,-2.859l0.596,-1.445l0.681,-1.469c0.215,-0.486 0.495,-0.996 0.747,-1.493c0.243,-0.496 0.527,-1.001 0.819,-1.511c0.264,-0.506 0.612,-1.03 0.932,-1.544l0.487,-0.78c0.162,-0.259 0.369,-0.534 0.551,-0.799l3.642,-1.072c0.267,0.132 0.559,0.26 0.811,0.397l0.746,0.42c0.491,0.28 1.01,0.548 1.452,0.846c0.462,0.288 0.92,0.577 1.334,0.878c0.425,0.298 0.876,0.587 1.261,0.898l1.2,0.921l1.116,0.945c0.754,0.625 1.435,1.271 2.1,1.923c2.648,2.612 4.764,5.381 6.512,8.257c1.736,2.881 3.09,5.876 4.104,8.97c0.5,1.546 0.965,3.104 1.131,4.753c0.187,1.639 0.159,3.345 -0.093,5.111c-0.45,3.524 -1.874,7.333 -3.102,11.087c-0.3,0.936 -0.613,1.876 -0.859,2.797c-0.268,0.926 -0.516,1.843 -0.69,2.745c-0.382,1.809 -0.576,3.562 -0.56,5.248c0.017,1.692 0.256,3.316 0.665,4.894c0.402,1.579 0.949,3.109 1.671,4.597c0.71,1.483 1.577,2.924 2.595,4.322c1.002,1.398 2.162,2.754 3.33,4.105c2.372,2.692 4.852,5.356 6.768,8.187c0.97,1.408 1.825,2.854 2.538,4.337c0.722,1.488 1.385,2.985 2.083,4.478c1.368,2.986 2.795,5.958 3.956,9.008c1.17,3.047 2.024,6.184 2.447,9.453c0.431,3.265 0.481,6.642 0.323,10.077c-0.174,3.444 -0.563,6.949 -1.252,10.539c-0.68,3.595 -1.634,7.265 -2.969,11.049c-0.357,0.949 -0.673,1.89 -1.079,2.858l-0.589,1.445l-0.647,1.461c-0.447,0.977 -0.904,1.964 -1.435,2.966c-0.241,0.496 -0.539,1.007 -0.821,1.512c-0.282,0.51 -0.573,1.015 -0.904,1.54z" fill="#FCCF61"/>
</g>
<g id="Group_8">
<path id="Vector_7" d="M89.166,284.015l-0.324,0.095l33.15,153.022l0.324,-0.095z" fill="white"/>
</g>
<g id="Group_9">
<path id="Vector_8" d="M94.612,309.921l-13.425,-13.261l0.215,-0.297l13.011,12.85l4.157,-20.418l0.325,0.09z" fill="white"/>
</g>
<g id="Group_10">
<path id="Vector_9" d="M97.941,325.388l-19.313,-11.235l0.15,-0.345l19.049,11.078l11.899,-21.116l0.283,0.217z" fill="white"/>
</g>
<g id="Group_11">
<path id="Vector_10" d="M101.474,341.684l-9.295,-3.51l0.102,-0.367l9.083,3.424l7.036,-9.618l0.254,0.251z" fill="white"/>
</g>
<g id="Group_12">
<path id="Vector_11" d="M105.054,358.148l-7.826,-3.354l0.118,-0.365l7.565,3.247l4.559,-8.555l0.284,0.202z" fill="white"/>
</g>
<g id="Group_13">
<path id="Vector_12" d="M109.04,376.589l-14.955,-7.548l0.135,-0.355l14.69,7.413l8.69,-16.057l0.284,0.208z" fill="white"/>
</g>
<g id="Group_14">
<path id="Vector_13" d="M112.945,394.635l-0.122,-0.056l-20.397,-9.623l0.127,-0.363l20.274,9.565l13.094,-21.508l0.266,0.226z" fill="white"/>
</g>
<g id="Group_15">
<path id="Vector_14" d="M116.578,411.421l-0.093,-0.03l-22.156,-6.637l0.084,-0.377l22.059,6.609l16.334,-20.432l0.241,0.265z" fill="white"/>
</g>
<g id="Group_16">
<path id="Vector_15" d="M119.68,425.719h-0.064l-14.121,-0.855l0.018,-0.387l14.058,0.846l12.729,-11.744l0.208,0.306z" fill="white"/>
</g>
<g id="Group_17">
<path id="Vector_16" d="M119.555,435.701c0.442,-0.104 0.842,-0.231 1.248,-0.364c0.398,-0.127 0.813,-0.25 1.186,-0.391c0.772,-0.279 1.502,-0.582 2.215,-0.889l1.053,-0.477l1.013,-0.501c0.688,-0.33 1.302,-0.699 1.949,-1.049c2.53,-1.44 4.778,-3.051 6.835,-4.781c2.049,-1.729 3.891,-3.585 5.566,-5.546c1.659,-1.96 3.177,-4.015 4.405,-6.244c1.244,-2.22 2.165,-4.629 2.862,-7.18c0.697,-2.551 1.194,-5.215 1.742,-7.861c0.266,-1.322 0.548,-2.636 0.804,-3.968c0.241,-1.337 0.382,-2.735 0.448,-4.181c0.142,-2.886 -0.124,-6.019 -0.315,-9.103c-0.083,-1.536 -0.157,-3.065 -0.116,-4.531c0.025,-1.464 0.166,-2.866 0.415,-4.199c0.249,-1.337 0.622,-2.598 1.095,-3.793c0.481,-1.2 1.078,-2.319 1.842,-3.345c0.763,-1.025 1.675,-1.956 2.728,-2.801c0.523,-0.43 1.087,-0.826 1.676,-1.219c0.564,-0.401 1.186,-0.766 1.792,-1.143c2.446,-1.488 5.043,-2.892 6.927,-4.724c0.953,-0.907 1.75,-1.908 2.388,-3.009c0.656,-1.091 1.087,-2.314 1.494,-3.552c0.804,-2.481 1.36,-5.116 1.634,-7.923c0.274,-2.806 0.265,-5.781 -0.125,-8.989c-0.099,-0.804 -0.215,-1.612 -0.382,-2.457l-0.24,-1.256l-0.298,-1.294c-0.084,-0.426 -0.233,-0.884 -0.341,-1.323c-0.115,-0.439 -0.257,-0.898 -0.406,-1.356c-0.125,-0.448 -0.316,-0.936 -0.481,-1.408l-0.258,-0.713c-0.082,-0.236 -0.207,-0.496 -0.307,-0.742l-2.67,-1.616c-0.232,0.048 -0.481,0.081 -0.697,0.138l-0.647,0.165c-0.432,0.108 -0.871,0.213 -1.261,0.345c-0.415,0.128 -0.813,0.256 -1.186,0.401c-0.374,0.142 -0.772,0.275 -1.129,0.435l-1.078,0.458l-1.02,0.497c-0.689,0.326 -1.319,0.684 -1.941,1.052c-2.481,1.47 -4.571,3.179 -6.388,5.05c-1.808,1.876 -3.342,3.916 -4.62,6.119c-0.639,1.1 -1.244,2.214 -1.634,3.462c-0.407,1.242 -0.656,2.58 -0.738,4.015c-0.199,2.845 0.298,6.122 0.671,9.316c0.084,0.793 0.183,1.592 0.224,2.362c0.067,0.783 0.108,1.554 0.108,2.296c0.009,1.487 -0.116,2.9 -0.397,4.218c-0.275,1.314 -0.723,2.533 -1.286,3.675c-0.565,1.144 -1.237,2.221 -2.033,3.227c-0.788,1.006 -1.692,1.941 -2.704,2.815c-1.012,0.879 -2.132,1.687 -3.252,2.489c-2.281,1.593 -4.629,3.142 -6.578,4.937c-0.979,0.893 -1.875,1.837 -2.671,2.839c-0.788,1.007 -1.551,2.032 -2.322,3.048c-1.543,2.04 -3.128,4.052 -4.519,6.182c-1.391,2.126 -2.555,4.395 -3.399,6.855c-0.855,2.453 -1.427,5.079 -1.849,7.794c-0.409,2.722 -0.653,5.542 -0.689,8.495c-0.032,2.948 0.134,6.019 0.576,9.258c0.13,0.823 0.219,1.621 0.389,2.462l0.227,1.251l0.277,1.281c0.189,0.86 0.4,1.729 0.648,2.622c0.114,0.44 0.267,0.903 0.405,1.361c0.142,0.453 0.284,0.91 0.463,1.393z" fill="#33BDB7"/>
</g>
<g id="Group_18">
<path id="Vector_17" d="M118.338,434.964l-0.239,-0.141l50.053,-112.312l0.241,0.146z" fill="white"/>
</g>
<g id="Group_19">
<path id="Vector_18" d="M159.799,341.548l-0.017,-17.337h0.266l0.016,16.826l12.186,-7.237l0.124,0.279z" fill="white"/>
</g>
<g id="Group_20">
<path id="Vector_19" d="M154.755,352.904l-6.03,-19.293l0.248,-0.103l5.948,19.027l16.615,-4.557l0.067,0.302z" fill="white"/>
</g>
<g id="Group_21">
<path id="Vector_20" d="M149.422,364.866l-0.042,-0.095l-4.006,-9.108l0.24,-0.147l3.965,9.018l7.632,-0.726l0.016,0.311z" fill="white"/>
</g>
<g id="Group_22">
<path id="Vector_21" d="M144.03,376.945l-2.273,-7.894l0.248,-0.1l2.207,7.653l6.421,-0.906l0.033,0.307z" fill="white"/>
</g>
<g id="Group_23">
<path id="Vector_22" d="M137.999,390.483l-0.041,-0.128l-4.273,-14.525l0.249,-0.1l4.247,14.399l12.634,-2.636l0.05,0.307z" fill="white"/>
</g>
<g id="Group_24">
<path id="Vector_23" d="M132.101,403.729l-6.902,-19.826l0.25,-0.114l6.818,19.591l17.337,-3.113l0.041,0.307z" fill="white"/>
</g>
<g id="Group_25">
<path id="Vector_24" d="M126.61,416.045l-0.033,-0.081l-9.565,-19.528l0.231,-0.152l9.525,19.444l18.257,-0.425v0.311z" fill="white"/>
</g>
<g id="Group_26">
<path id="Vector_25" d="M133.138,428.918l-11.207,-2.377l-0.033,-0.047l-8.106,-11.942l0.211,-0.194l8.077,11.901l11.099,2.352z" fill="white"/>
</g>
<g id="Group_27">
<path id="Vector_26" d="M127.231,435.805c0.349,-0.326 0.664,-0.647 0.971,-0.973c0.307,-0.326 0.63,-0.647 0.913,-0.973c0.588,-0.652 1.119,-1.299 1.642,-1.952l0.755,-0.973l0.714,-0.977c0.489,-0.652 0.895,-1.305 1.343,-1.956c1.709,-2.608 3.094,-5.22 4.272,-7.837c1.162,-2.617 2.09,-5.238 2.837,-7.865c0.73,-2.622 1.302,-5.254 1.543,-7.885c0.249,-2.631 0.149,-5.267 -0.207,-7.912c-0.357,-2.641 -0.938,-5.292 -1.469,-7.936c-0.273,-1.323 -0.522,-2.646 -0.813,-3.969c-0.29,-1.322 -0.696,-2.645 -1.194,-3.973c-0.987,-2.655 -2.43,-5.314 -3.791,-7.974c-0.664,-1.327 -1.319,-2.66 -1.85,-3.987c-0.531,-1.323 -0.953,-2.65 -1.236,-3.973c-0.298,-1.323 -0.448,-2.646 -0.473,-3.962c-0.041,-1.32 0.058,-2.637 0.349,-3.95c0.29,-1.314 0.746,-2.622 1.369,-3.931c0.298,-0.657 0.647,-1.308 1.02,-1.96c0.357,-0.657 0.771,-1.309 1.161,-1.961c1.626,-2.607 3.401,-5.215 4.38,-7.837c0.506,-1.308 0.838,-2.621 0.987,-3.94c0.158,-1.313 0.075,-2.63 -0.033,-3.953c-0.233,-2.641 -0.755,-5.286 -1.585,-7.936c-0.845,-2.651 -1.99,-5.305 -3.575,-7.97c-0.398,-0.665 -0.813,-1.332 -1.285,-1.998l-0.698,-1.001l-0.762,-1.002c-0.241,-0.331 -0.548,-0.666 -0.813,-1.001c-0.275,-0.336 -0.581,-0.671 -0.88,-1.002c-0.29,-0.334 -0.647,-0.67 -0.979,-1.006l-0.506,-0.505c-0.166,-0.166 -0.365,-0.336 -0.555,-0.501l-3.012,-0.052c-0.19,0.165 -0.398,0.326 -0.572,0.486l-0.514,0.487c-0.341,0.321 -0.697,0.647 -0.996,0.968c-0.315,0.327 -0.63,0.651 -0.904,0.979c-0.282,0.32 -0.589,0.646 -0.838,0.973l-0.788,0.976l-0.722,0.974c-0.493,0.652 -0.92,1.304 -1.337,1.956c-1.651,2.608 -2.86,5.225 -3.768,7.847c-0.895,2.622 -1.48,5.249 -1.776,7.879c-0.146,1.318 -0.258,2.636 -0.129,3.954c0.118,1.323 0.41,2.646 0.884,3.968c0.916,2.655 2.627,5.32 4.185,7.984c0.377,0.666 0.774,1.327 1.111,1.993c0.357,0.667 0.693,1.333 0.979,1.994c0.581,1.327 1.013,2.655 1.27,3.977c0.249,1.323 0.323,2.641 0.257,3.96c-0.058,1.317 -0.249,2.631 -0.573,3.944c-0.323,1.314 -0.771,2.626 -1.338,3.935c-0.563,1.309 -1.252,2.617 -1.945,3.921c-1.424,2.612 -2.936,5.225 -3.982,7.847c-0.532,1.309 -0.97,2.616 -1.298,3.93c-0.317,1.314 -0.6,2.627 -0.905,3.94c-0.595,2.627 -1.241,5.253 -1.662,7.883c-0.426,2.627 -0.592,5.263 -0.402,7.904c0.174,2.636 0.678,5.282 1.347,7.931c0.681,2.646 1.544,5.301 2.647,7.955c1.108,2.655 2.433,5.31 4.076,7.975c0.429,0.665 0.818,1.332 1.293,1.999l0.685,1.001l0.737,1.001c0.507,0.666 1.021,1.337 1.593,2.003c0.266,0.335 0.589,0.671 0.888,1.005c0.299,0.336 0.605,0.667 0.945,1.003z" fill="#F0586A"/>
</g>
<g id="Group_28">
<path id="Vector_27" d="M125.863,435.781l-0.274,-0.004l1.56,-126.532l0.265,0.005z" fill="white"/>
</g>
<g id="Group_29">
<path id="Vector_28" d="M126.999,330.626l-6.686,-15.49l0.241,-0.141l6.487,15.036l8.113,-12.831l0.215,0.185z" fill="white"/>
</g>
<g id="Group_30">
<path id="Vector_29" d="M126.85,343.409l-12.805,-14.096l0.182,-0.227l12.64,13.907l13.106,-12.75l0.166,0.241z" fill="white"/>
</g>
<g id="Group_31">
<path id="Vector_30" d="M126.684,356.886l-0.066,-0.06l-7.087,-6.052l0.157,-0.25l7.013,5.989l6.545,-4.634l0.141,0.264z" fill="white"/>
</g>
<g id="Group_32">
<path id="Vector_31" d="M126.51,370.505l-5.068,-5.871l0.19,-0.223l4.911,5.693l5.392,-4.167l0.149,0.26z" fill="white"/>
</g>
<g id="Group_33">
<path id="Vector_32" d="M126.327,385.755l-9.493,-10.847l0.191,-0.222l9.327,10.658l10.286,-8.957l0.167,0.251z" fill="white"/>
</g>
<g id="Group_34">
<path id="Vector_33" d="M126.153,400.672l-0.083,-0.079l-13.709,-14.04l0.179,-0.236l13.63,13.96l14.301,-11.839l0.158,0.256z" fill="white"/>
</g>
<g id="Group_35">
<path id="Vector_34" d="M125.979,414.552l-16.124,-12.522l0.15,-0.262l15.991,12.42l16.159,-9.911l0.124,0.274z" fill="white"/>
</g>
<g id="Group_36">
<path id="Vector_35" d="M125.83,426.376l-0.041,-0.023l-11.842,-6.444l0.113,-0.283l11.795,6.419l10.833,-3.694l0.075,0.302z" fill="white"/>
</g>
<g id="Group_37">
<path id="Vector_36" d="M140.255,475.567h-33.449l-5.721,-49.357h44.885z" fill="#AEC5E7"/>
</g>
<g id="Group_38">
<path id="Vector_37" d="M148.163,425.522h-49.273v5.106h49.273z" fill="#C7DDF3"/>
</g>
<g id="Group_39">
<path id="Vector_38" d="M337.399,71.481v390.348c0,8.678 -6.039,15.707 -13.488,15.707h-173.602c-7.449,0 -13.496,-7.029 -13.496,-15.707v-390.348c0,-8.678 6.047,-15.71 13.496,-15.71h173.602c7.449,0 13.488,7.032 13.488,15.71z" fill="#AEC5E7"/>
</g>
<g id="Group_40">
<path id="Vector_39" d="M332.555,76.267v380.772c0,8.465 -5.749,15.324 -12.841,15.324h-165.207c-7.093,0 -12.841,-6.859 -12.841,-15.324v-380.772c0,-8.466 5.748,-15.325 12.841,-15.325h165.207c7.092,0 12.841,6.859 12.841,15.325z" fill="white"/>
</g>
<g id="Group_41">
<path id="Vector_40" d="M288.258,55.771v10.065c0,7.208 -5.018,13.051 -11.207,13.051h-79.89c-6.188,0 -11.199,-5.843 -11.199,-13.051v-10.065z" fill="#AEC5E7"/>
</g>
<g id="Group_42">
<path id="Vector_41" d="M303.223,307.28h-132.226c-8.345,0 -15.105,-7.879 -15.105,-17.597v-175.252c0,-9.718 6.76,-17.595 15.105,-17.595h132.226c8.345,0 15.105,7.877 15.105,17.595v175.252c0,9.718 -6.76,17.597 -15.105,17.597z" fill="#E9EFF8"/>
</g>
<g id="Group_43">
<path id="Vector_42" d="M186.368,380.959h-20.787c-5.351,0 -9.69,-5.054 -9.69,-11.289v-24.216c0,-6.236 4.339,-11.29 9.69,-11.29h20.787c5.35,0 9.689,5.054 9.689,11.29v24.216c0,6.235 -4.339,11.289 -9.689,11.289z" fill="#FCCF61"/>
</g>
<g id="Group_44">
<path id="Vector_43" d="M186.368,447.394h-20.787c-5.351,0 -9.69,-5.056 -9.69,-11.291v-24.211c0,-6.24 4.339,-11.295 9.69,-11.295h20.787c5.35,0 9.689,5.055 9.689,11.295v24.211c0,6.235 -4.339,11.291 -9.689,11.291z" fill="#33BDB7"/>
</g>
<g id="Group_45">
<path id="Vector_44" d="M278.022,349.318h-65.814c-1.12,0 -2.024,-1.053 -2.024,-2.361c0,-1.304 0.904,-2.362 2.024,-2.362h65.814c1.12,0 2.032,1.059 2.032,2.362c0,1.308 -0.912,2.361 -2.032,2.361z" fill="#E9EFF8"/>
</g>
<g id="Group_46">
<path id="Vector_45" d="M318.328,370.53h-106.12c-1.12,0 -2.024,-1.059 -2.024,-2.362c0,-1.303 0.904,-2.364 2.024,-2.364h106.12c1.121,0 2.025,1.06 2.025,2.364c0,1.303 -0.904,2.362 -2.025,2.362z" fill="#E9EFF8"/>
</g>
<g id="Group_47">
<path id="Vector_46" d="M278.022,415.756h-65.814c-1.12,0 -2.024,-1.058 -2.024,-2.361c0,-1.304 0.904,-2.362 2.024,-2.362h65.814c1.12,0 2.032,1.058 2.032,2.362c0,1.303 -0.912,2.361 -2.032,2.361z" fill="#E9EFF8"/>
</g>
<g id="Group_48">
<path id="Vector_47" d="M318.328,436.963h-106.12c-1.12,0 -2.024,-1.059 -2.024,-2.362c0,-1.305 0.904,-2.362 2.024,-2.362h106.12c1.121,0 2.025,1.057 2.025,2.362c0,1.303 -0.904,2.362 -2.025,2.362z" fill="#E9EFF8"/>
</g>
<g id="Group_49">
<path id="Vector_48" d="M192.855,313.175h-102.374c-9.396,0 -17.015,-8.871 -17.015,-19.817v-153.132c0,-10.946 7.619,-19.819 17.015,-19.819h102.374c9.39,0 17.005,8.873 17.005,19.819v153.132c0,10.946 -7.615,19.817 -17.005,19.817z" fill="white"/>
</g>
<g id="Group_50">
<path id="Vector_49" d="M192.855,313.628h-102.374c-9.595,0 -17.4,-9.093 -17.4,-20.27v-153.132c0,-11.176 7.805,-20.269 17.4,-20.269h102.374c9.589,0 17.395,9.093 17.395,20.269v153.132c0,11.177 -7.806,20.27 -17.395,20.27zM90.481,120.858c-9.169,0 -16.626,8.689 -16.626,19.368v153.132c0,10.681 7.457,19.369 16.626,19.369h102.374c9.166,0 16.624,-8.688 16.624,-19.369v-153.132c0,-10.679 -7.458,-19.368 -16.624,-19.368z" fill="#C7DDF3"/>
</g>
<g id="Group_51">
<path id="Vector_50" d="M177.044,181.552c0,22.761 -15.843,41.215 -35.378,41.215c-19.544,0 -35.379,-18.454 -35.379,-41.215c0,-22.763 15.835,-41.216 35.379,-41.216c19.535,0 35.378,18.453 35.378,41.216z" fill="white"/>
</g>
<g id="Group_52">
<path id="Vector_51" d="M141.665,223.002c-19.617,0 -35.581,-18.594 -35.581,-41.45c0,-22.857 15.964,-41.451 35.581,-41.451c19.618,0 35.587,18.594 35.587,41.451c0,22.856 -15.969,41.45 -35.587,41.45zM141.665,140.573c-19.394,0 -35.176,18.382 -35.176,40.979c0,22.596 15.782,40.979 35.176,40.979c19.395,0 35.18,-18.383 35.18,-40.979c0,-22.597 -15.785,-40.979 -35.18,-40.979z" fill="#E9EFF8"/>
</g>
<g id="Group_53">
<path id="Vector_52" d="M155.626,161.612c0,8.982 -6.254,16.263 -13.961,16.263c-7.714,0 -13.96,-7.281 -13.96,-16.263c0,-8.983 6.246,-16.263 13.96,-16.263c7.707,0 13.961,7.28 13.961,16.263z" fill="#33BDB7"/>
</g>
<g id="Group_54">
<path id="Vector_53" d="M112.097,204.187c6.325,-11.192 17.203,-18.58 29.568,-18.58c12.36,0 23.241,7.389 29.568,18.58c-6.327,11.192 -17.208,18.58 -29.568,18.58c-12.365,0 -23.243,-7.388 -29.568,-18.58z" fill="#33BDB7"/>
</g>
<g id="Group_55">
<path id="Vector_54" d="M141.665,223.239c-19.734,0 -35.784,-18.701 -35.784,-41.687c0,-22.987 16.05,-41.688 35.784,-41.688c19.735,0 35.786,18.701 35.786,41.688c0,22.986 -16.051,41.687 -35.786,41.687zM141.665,140.809c-19.286,0 -34.973,18.277 -34.973,40.743c0,22.464 15.687,40.742 34.973,40.742c19.287,0 34.973,-18.278 34.973,-40.742c0,-22.466 -15.686,-40.743 -34.973,-40.743z" fill="#33BDB7"/>
</g>
<g id="Group_56">
<path id="Vector_55" d="M182.801,256.454h-82.276c-3.471,0 -6.285,-3.278 -6.285,-7.321c0,-4.047 2.814,-7.327 6.285,-7.327h82.276c3.476,0 6.296,3.28 6.296,7.327c0.001,4.043 -2.82,7.321 -6.296,7.321z" fill="white"/>
</g>
<g id="Group_57">
<path id="Vector_56" d="M182.801,256.927h-82.276c-3.69,0 -6.692,-3.495 -6.692,-7.794c0,-4.301 3.002,-7.799 6.692,-7.799h82.276c3.692,0 6.695,3.498 6.695,7.799c0,4.299 -3.003,7.794 -6.695,7.794zM100.525,242.278c-3.245,0 -5.88,3.074 -5.88,6.855c0,3.774 2.635,6.85 5.88,6.85h82.276c3.244,0 5.89,-3.076 5.89,-6.85c0,-3.781 -2.646,-6.855 -5.89,-6.855z" fill="#33BDB7"/>
</g>
<g id="Group_58">
<path id="Vector_57" d="M182.801,284.222h-82.276c-3.471,0 -6.285,-3.283 -6.285,-7.327c0,-4.044 2.814,-7.322 6.285,-7.322h82.276c3.476,0 6.296,3.279 6.296,7.322c0.001,4.044 -2.82,7.327 -6.296,7.327z" fill="white"/>
</g>
<g id="Group_59">
<path id="Vector_58" d="M182.801,284.694h-82.276c-3.69,0 -6.692,-3.5 -6.692,-7.799c0,-4.299 3.002,-7.793 6.692,-7.793h82.276c3.692,0 6.695,3.494 6.695,7.793c0,4.299 -3.003,7.799 -6.695,7.799zM100.525,270.045c-3.245,0 -5.88,3.072 -5.88,6.85c0,3.779 2.635,6.855 5.88,6.855h82.276c3.244,0 5.89,-3.076 5.89,-6.855c0,-3.778 -2.646,-6.85 -5.89,-6.85z" fill="#33BDB7"/>
</g>
<g id="Group_60">
<path id="Vector_59" d="M369.933,195.37h-74.764c-9.399,0 -17.014,-8.872 -17.014,-19.819v-87.098c0,-10.946 7.615,-19.819 17.014,-19.819h74.764c9.399,0 17.014,8.873 17.014,19.819v87.098c0,10.947 -7.615,19.819 -17.014,19.819z" fill="white"/>
</g>
<g id="Group_61">
<path id="Vector_60" d="M369.933,195.697h-74.765c-9.531,0 -17.287,-9.038 -17.287,-20.146v-87.098c0,-11.108 7.756,-20.146 17.287,-20.146h74.765c9.54,0 17.295,9.038 17.295,20.146v87.098c0,11.108 -7.755,20.146 -17.295,20.146zM295.168,68.96c-9.225,0 -16.731,8.745 -16.731,19.493v87.098c0,10.749 7.506,19.493 16.731,19.493h74.765c9.224,0 16.731,-8.744 16.731,-19.493v-87.098c0,-10.748 -7.507,-19.493 -16.731,-19.493h-74.765z" fill="#C7DDF3"/>
</g>
<g id="Group_62">
<path id="Vector_61" d="M369.485,168.362h-73.869c-0.888,0 -1.617,-0.843 -1.617,-1.884c0,-1.04 0.729,-1.883 1.617,-1.883h73.869c0.896,0 1.617,0.843 1.617,1.883c0,1.041 -0.721,1.884 -1.617,1.884z" fill="#E9EFF8"/>
</g>
<g id="Group_63">
<path id="Vector_62" d="M355.342,182.24h-45.574c-0.896,0 -1.618,-0.844 -1.618,-1.884c0,-1.04 0.722,-1.883 1.618,-1.883h45.574c0.887,0 1.617,0.843 1.617,1.883c0,1.04 -0.73,1.884 -1.617,1.884z" fill="#E9EFF8"/>
</g>
<g id="Group_64">
<path id="Vector_63" d="M352.214,151.351h-39.319c-3.119,0 -5.64,-2.941 -5.64,-6.57v-26.331c0,-6.651 4.628,-12.044 10.335,-12.044h29.921c5.715,0 10.344,5.393 10.344,12.044v26.331c0,3.629 -2.53,6.57 -5.641,6.57z" fill="#F0586A"/>
</g>
<g id="Group_65">
<path id="Vector_64" d="M350.871,117.087h-36.632v-14.872c0,-11.768 8.212,-21.341 18.316,-21.341c10.095,0 18.316,9.573 18.316,21.341zM320.933,109.282h23.235v-7.067c0,-7.462 -5.209,-13.535 -11.613,-13.535c-6.404,0 -11.622,6.073 -11.622,13.535z" fill="#F0586A"/>
</g>
<g id="Group_66">
<path id="Vector_65" d="M334.49,121.749h-3.876v14.261h3.876z" fill="white"/>
</g>
<g id="Group_67">
<path id="Vector_66" d="M372.963,465.391h-5.51v8.153h5.51z" fill="#6686C4"/>
</g>
<g id="Group_68">
<path id="Vector_67" d="M428.491,465.391h-5.51v8.153h5.51z" fill="#6686C4"/>
</g>
<g id="Group_69">
<path id="Vector_68" d="M422.807,469.733l-12.145,7.803h18.581l-0.746,-7.803c0,0 -1.808,1.728 -5.516,-0.184z" fill="#0F2C46"/>
</g>
<g id="Group_70">
<path id="Vector_69" d="M428.53,465.391h-5.591l-16.391,-85.758c-2.596,-13.601 21.012,-17.267 20.912,0c2.73,21.073 2.497,51.543 1.07,85.758z" fill="#0F2C46"/>
</g>
<g id="Group_71">
<path id="Vector_70" d="M426.299,298.418c1.236,24.163 1.484,51.515 1.12,80.874c0.008,0.113 0.041,0.341 0.041,0.341c2.107,16.788 -17.212,19.367 -20.911,0l-15.521,-81.215z" fill="#0F2C46"/>
</g>
<g id="Group_72">
<path id="Vector_71" d="M367.27,469.733l-12.136,7.803h18.573l-0.746,-7.803c0,0 -1.809,1.728 -5.508,-0.184z" fill="#0F2C46"/>
</g>
<g id="Group_73">
<path id="Vector_72" d="M367.453,465.391h5.591l16.391,-85.758c2.597,-13.601 -21.012,-17.267 -20.912,0c-2.729,21.073 -2.497,51.543 -1.07,85.758z" fill="#0F2C46"/>
</g>
<g id="Group_74">
<path id="Vector_73" d="M369.684,298.418c-1.236,24.163 -1.485,51.515 -1.12,80.874c-0.008,0.113 -0.042,0.341 -0.042,0.341c-2.107,16.788 17.213,19.367 20.913,0l15.52,-81.215z" fill="#0F2C46"/>
</g>
<g id="Group_75">
<path id="Vector_74" d="M391.774,214.182c-5.906,-5.495 -14.508,-4.378 -19.22,2.494l-25.035,36.463c-3.699,5.404 -2.945,13.283 1.684,17.601l0.058,0.047c4.164,3.888 10.153,3.614 14.052,-0.632l29.257,-31.893c6.097,-6.633 5.716,-18.016 -0.796,-24.08z" fill="#FBC52D"/>
</g>
<g id="Group_76">
<path id="Vector_75" d="M360.228,255.548l-42.696,-36.392l-5.607,8.92l37.278,42.608c3.716,4.247 9.805,3.666 12.874,-1.229c2.787,-4.435 1.958,-10.662 -1.849,-13.907z" fill="#6686C4"/>
</g>
<g id="Group_77">
<path id="Vector_76" d="M414.528,212.285c6.993,-3.311 14.973,0.617 17.81,8.769l15.072,43.257c2.24,6.409 -0.414,13.714 -5.914,16.311l-0.066,0.034c-4.944,2.337 -10.618,0.094 -13.314,-5.277l-20.249,-40.278c-4.214,-8.38 -1.07,-19.162 6.661,-22.816z" fill="#FBC52D"/>
</g>
<g id="Group_78">
<path id="Vector_77" d="M426.299,298.418c-18.822,6.665 -37.635,6.665 -56.457,0l6.064,-85.281c16.333,-10.382 38.73,-10.272 50.393,0z" fill="#FBC52D"/>
</g>
<g id="Group_79">
<path id="Vector_78" d="M392.67,207.703c0.224,4.345 1.485,9.341 6.105,9.079c8.105,-0.456 10.062,-10.384 10.062,-10.384c0,0 -0.655,-14.205 -0.846,-14.348h-15.064v9.457c0.001,0 -0.423,2.909 -0.257,6.196z" fill="#6686C4"/>
</g>
<g id="Group_80">
<path id="Vector_79" d="M392.67,207.704c11.655,-2.818 13.314,-9.979 13.314,-9.979l-11.713,-5.675h-1.343v9.457c0,0 -0.424,2.91 -0.258,6.197z" fill="#4870B7"/>
</g>
<g id="Group_81">
<path id="Vector_80" d="M410.198,186.902c0,0 -3.492,19.899 -16.524,15.825c-1.501,-0.47 -2.853,-1.386 -3.915,-2.629c-0.954,-1.121 -1.667,-2.507 -2.041,-4.076c-1.31,-5.519 -1.078,-14.528 0.332,-26.294l22.148,2.193z" fill="#6686C4"/>
</g>
<g id="Group_82">
<path id="Vector_81" d="M317.607,219.265c0,0 -4.164,-11.301 -4.056,-6.585c0.107,4.716 0.174,5.073 0.174,5.073c0,0 -5.119,-3.263 -5.425,-4.945c-0.307,-1.682 -6.72,1.826 -2.779,8.405c3.824,6.388 6.545,7.021 6.545,7.021c0,0 5.499,-2.528 5.541,-8.969z" fill="#6686C4"/>
</g>
<g id="Group_83">
<path id="Vector_82" d="M433.25,263.474l-36.441,44.684l6.885,7.616l41.029,-37.631c4.097,-3.751 4.379,-10.856 0.605,-15.033c-3.426,-3.783 -8.826,-3.622 -12.078,0.364z" fill="#6686C4"/>
</g>
<g id="Group_84">
<path id="Vector_83" d="M396.909,308.083c0,0 -10.145,3.378 -6.122,3.855c4.032,0.472 4.347,0.444 4.347,0.444c0,0 -3.435,5.499 -4.903,5.636c-1.477,0.141 0.697,7.988 6.794,4.284c5.931,-3.6 6.819,-6.665 6.819,-6.665c0,0 -1.452,-6.68 -6.935,-7.554z" fill="#6686C4"/>
</g>
<g id="Group_85">
<path id="Vector_84" d="M372.77,260.088l-0.398,-0.043l1.128,-15.977l0.406,0.039z" fill="#F89725"/>
</g>
<g id="Group_86">
<path id="Vector_85" d="M426.199,272.03l-9.979,-19.836l0.357,-0.236l9.971,19.831z" fill="#F89725"/>
</g>
<g id="Group_87">
<path id="Vector_86" d="M387.353,252.076c0,4.625 3.451,8.375 7.698,8.375c4.247,0 7.698,-3.75 7.698,-8.375c0,-4.625 -3.451,-8.376 -7.698,-8.376c-4.247,0 -7.698,3.751 -7.698,8.376z" fill="#F89725"/>
</g>
<g id="Group_88">
<path id="Vector_87" d="M386.855,179.791c0,0 -12.584,-9.616 -9.299,-16.858c3.276,-7.242 1.327,1.811 17.271,0c15.943,-1.811 16.715,11.111 16.864,14.284c0.149,3.417 -2.887,17.539 -3.401,17.502c0,0 -3.409,-16.492 -8.154,-22.208c-2.63,-3.161 -9.656,9.695 -13.281,7.28z" fill="#1A1A1A"/>
</g>
<g id="Group_89">
<path id="Vector_88" d="M405.196,189.524c0,2.87 1.551,5.194 3.468,5.194c1.907,0 3.467,-2.324 3.467,-5.194c0,-2.869 -1.56,-5.195 -3.467,-5.195c-1.917,0 -3.468,2.326 -3.468,5.195z" fill="#6686C4"/>
</g>
<g id="Group_90">
<path id="Vector_89" d="M408.912,167.458c-1.069,0.342 -1.883,0.854 -1.816,1.142c0.066,0.289 0.995,0.246 2.065,-0.096c1.07,-0.343 1.892,-0.853 1.817,-1.142c-0.067,-0.289 -0.988,-0.246 -2.066,0.096z" fill="#1A1A1A"/>
</g>
<g id="Group_91">
<path id="Vector_90" d="M408.605,167.792c-0.39,1.214 -0.506,2.282 -0.266,2.388c0.241,0.104 0.747,-0.796 1.137,-2.01c0.39,-1.214 0.506,-2.283 0.266,-2.387c-0.241,-0.104 -0.756,0.795 -1.137,2.009z" fill="#1A1A1A"/>
</g>
</g>
</g></svg>