<svg viewBox="0 0 9.3333 11.6667" fill="none" xmlns="http://www.w3.org/2000/svg" xmlns:xlink="http://www.w3.org/1999/xlink" x="0" y="0"><path id="Vector_10" d="M4.0833,2.333c0,-0.321 0.2625,-0.583 0.5833,-0.583c0.3209,0 0.5834,0.262 0.5834,0.583c0,0.321 -0.2625,0.584 -0.5834,0.584c-0.3208,0 -0.5833,-0.263 -0.5833,-0.584zM2.3333,4.083c0.3208,0 0.5833,-0.262 0.5833,-0.583c0,-0.321 -0.2625,-0.583 -0.5833,-0.583c-0.3208,0 -0.5833,0.262 -0.5833,0.583c0,0.321 0.2625,0.583 0.5833,0.583zM1.1666,1.75c0,-0.321 -0.2625,-0.583 -0.5833,-0.583c-0.3208,0 -0.5833,0.262 -0.5833,0.583c0,0.321 0.2625,0.583 0.5833,0.583c0.3208,0 0.5833,-0.262 0.5833,-0.583zM2.9166,1.167c0.3209,0 0.5834,-0.263 0.5834,-0.584c0,-0.321 -0.2625,-0.583 -0.5834,-0.583c-0.3208,0 -0.5833,0.262 -0.5833,0.583c0,0.321 0.2625,0.584 0.5833,0.584zM6.4166,1.167c0.3209,0 0.5834,-0.263 0.5834,-0.584c0,-0.321 -0.2625,-0.583 -0.5834,-0.583c-0.3208,0 -0.5833,0.262 -0.5833,0.583c0,0.321 0.2625,0.584 0.5833,0.584zM8.75,1.167c-0.3209,0 -0.5834,0.262 -0.5834,0.583c0,0.321 0.2625,0.583 0.5834,0.583c0.3208,0 0.5833,-0.262 0.5833,-0.583c0,-0.321 -0.2625,-0.583 -0.5833,-0.583zM6.4166,3.5c0,0.321 0.2625,0.583 0.5834,0.583c0.3208,0 0.5833,-0.262 0.5833,-0.583c0,-0.321 -0.2625,-0.583 -0.5833,-0.583c-0.3209,0 -0.5834,0.262 -0.5834,0.583zM8.4583,6.457c0,0.415 -0.1517,0.811 -0.4025,1.126c0.245,0.315 0.4025,0.712 0.4025,1.126c0,1.009 -0.8342,1.832 -1.8433,1.832l-0.2509,-0.018c-0.2741,0.671 -0.9333,1.144 -1.6975,1.144c-0.7641,0 -1.4233,-0.473 -1.6975,-1.144l-0.2508,0.018c-1.015,0 -1.8433,-0.823 -1.8433,-1.832c0,-0.414 0.1516,-0.811 0.4025,-1.126c-0.245,-0.315 -0.4025,-0.711 -0.4025,-1.126c0,-1.009 0.8341,-1.831 1.8433,-1.831l0.2508,0.017c0.2742,-0.671 0.9334,-1.143 1.6975,-1.143c0.7642,0 1.4234,0.472 1.6975,1.143l0.2509,-0.017c1.0091,0 1.8433,0.822 1.8433,1.831zM2.0416,6.457c0,0.251 0.1575,0.485 0.3909,0.601l0.5133,0.234c0.07,-0.42 0.2975,-0.794 0.6183,-1.056l-0.4725,-0.327c-0.105,-0.076 -0.2333,-0.117 -0.3733,-0.117c-0.3675,0 -0.6767,0.298 -0.6767,0.665zM3.57,8.931c-0.3267,-0.263 -0.5542,-0.636 -0.6242,-1.056l-0.5133,0.233c-0.2334,0.117 -0.3909,0.35 -0.3909,0.595c0,0.368 0.3092,0.665 0.6767,0.665c0.1342,0 0.2625,-0.035 0.3792,-0.116zM5.3316,9.858l-0.0641,-0.636c-0.1867,0.07 -0.3909,0.111 -0.6009,0.111c-0.21,0 -0.4083,-0.041 -0.5833,-0.111l-0.0817,0.636c0.0117,0.35 0.3034,0.642 0.665,0.642c0.3617,0 0.6534,-0.292 0.665,-0.642zM5.3316,5.308c-0.0116,-0.35 -0.3033,-0.641 -0.665,-0.641c-0.3616,0 -0.6533,0.291 -0.665,0.641l0.0817,0.636c0.175,-0.07 0.3733,-0.111 0.5833,-0.111c0.21,0 0.4142,0.041 0.6009,0.111zM7.2916,8.703c0,-0.245 -0.1575,-0.49 -0.3908,-0.601l-0.5133,-0.245c-0.07,0.432 -0.2975,0.805 -0.6184,1.068l0.4725,0.332c0.105,0.076 0.2334,0.117 0.3734,0.117c0.3675,0 0.6766,-0.297 0.6766,-0.671zM7.2916,6.457c0,-0.367 -0.3091,-0.665 -0.6766,-0.665c-0.1342,0 -0.2625,0.041 -0.3792,0.117l-0.4783,0.327c0.3266,0.262 0.5541,0.636 0.6241,1.056l0.5134,-0.234c0.2391,-0.116 0.3966,-0.35 0.3966,-0.601z" fill="currentColor"/></svg>