<svg viewBox="0 0 17.35 16.6667" fill="none" xmlns="http://www.w3.org/2000/svg" xmlns:xlink="http://www.w3.org/1999/xlink" x="0" y="0"><path id="Vector_5" d="M4.2833,7.133l0.883,-0.883l-0.883,-0.883l0.883,-0.884l1.767,1.767l-1.767,1.767zM1.9333,5.833h0.067c0.991,-2.441 3.383,-4.166 6.183,-4.166c1.825,0 3.467,0.733 4.675,1.916c0.125,-0.5 0.375,-1.083 0.675,-1.633c-1.498,-1.261 -3.393,-1.951 -5.35,-1.95c-4.075,0 -7.458,2.917 -8.183,6.783c0.466,-0.583 1.175,-0.95 1.933,-0.95zM15.6833,7.083c-0.35,0 -0.683,-0.075 -0.992,-0.183c0.1,0.458 0.159,0.942 0.159,1.433c0,3.684 -2.984,6.667 -6.667,6.667c-2.8,0 -5.192,-1.725 -6.183,-4.167h-0.067c-0.417,0 -0.867,-0.116 -1.25,-0.333c-0.267,-0.15 -0.492,-0.35 -0.683,-0.583c0.741,3.833 4.108,6.75 8.183,6.75c4.583,0 8.333,-3.75 8.333,-8.334c0,-0.458 -0.05,-0.908 -0.116,-1.35c-0.234,0.063 -0.475,0.097 -0.717,0.1zM15.6833,0.833c0,0 -1.667,2.417 -1.667,3.334c0,0.916 0.75,1.666 1.667,1.666c0.917,0 1.667,-0.75 1.667,-1.666c0,-0.917 -1.667,-3.334 -1.667,-3.334zM11.2003,4.483l-1.767,1.767l1.767,1.767l0.883,-0.884l-0.883,-0.883l0.883,-0.883zM5.3163,12.5c0.575,-0.992 1.642,-1.667 2.867,-1.667c1.225,0 2.292,0.675 2.867,1.667h1.4c-0.667,-1.708 -2.325,-2.917 -4.267,-2.917c-0.725,0 -1.417,0.167 -2.025,0.475l-2.975,-1.725c0,-0.416 -0.225,-0.833 -0.625,-1.075c-0.6,-0.341 -1.358,-0.141 -1.708,0.459c-0.342,0.616 -0.142,1.358 0.458,1.708c0.4,0.233 0.875,0.208 1.242,0l2.475,1.433c-0.475,0.442 -0.859,1.009 -1.109,1.642z" fill="currentColor"/></svg>