<svg viewBox="0 0 100 100" fill="none" xmlns="http://www.w3.org/2000/svg" x="0" y="0"><path id="icon_6" fill-rule="evenodd" clip-rule="evenodd" d="M50,100c27.61,0 50,-22.386 50,-50c0,-27.614 -22.39,-50 -50,-50c-27.61,0 -50,22.386 -50,50c0,27.614 22.39,50 50,50zM70.42,42.986c2.26,-2.072 2.42,-5.587 0.34,-7.849c-2.07,-2.263 -5.58,-2.417 -7.85,-0.345l-20.51,18.786l-5.31,-4.87c-2.27,-2.073 -5.78,-1.918 -7.85,0.344c-2.08,2.263 -1.92,5.777 0.34,7.85l9.07,8.306c2.12,1.945 5.38,1.945 7.51,0z" fill="currentColor"/></svg>